<svg width="1512" height="981" viewBox="0 0 1512 981" fill="none" xmlns="http://www.w3.org/2000/svg">
<g opacity="0.08" clip-path="url(#clip0_1729_16292)">
<path d="M1413.06 127.461L1692.62 406.795C1697.98 412.154 1701 419.422 1701 427C1701 434.578 1697.98 441.846 1692.62 447.204L1163.98 975.418C1162.21 977.188 1160.11 978.592 1157.8 979.55C1155.48 980.508 1153 981.001 1150.5 981.001C1148 981.001 1145.52 980.508 1143.2 979.55C1140.89 978.592 1138.79 977.188 1137.02 975.418L1044.32 882.856C1040.74 879.283 1038.73 874.438 1038.73 869.386C1038.73 864.334 1040.74 859.489 1044.32 855.916L1473.58 427L1293.42 247.001C1289.85 243.427 1287.84 238.581 1287.84 233.528C1287.84 228.475 1289.85 223.629 1293.42 220.055L1386.1 127.461C1387.87 125.691 1389.97 124.287 1392.28 123.329C1394.6 122.371 1397.08 121.878 1399.58 121.878C1402.08 121.878 1404.56 122.371 1406.88 123.329C1409.19 124.287 1411.29 125.691 1413.06 127.461Z" fill="#767474"/>
<path d="M1163.98 -121.418L1256.65 -28.8235C1258.42 -27.0553 1259.83 -24.9556 1260.79 -22.6443C1261.74 -20.3331 1262.24 -17.8558 1262.24 -15.3538C1262.24 -12.8519 1261.74 -10.3746 1260.79 -8.06335C1259.83 -5.75213 1258.42 -3.6524 1256.65 -1.88421L827.424 427L1007.59 606.999C1011.16 610.573 1013.17 615.419 1013.17 620.472C1013.17 625.525 1011.16 630.371 1007.59 633.944L914.893 726.539C913.124 728.309 911.022 729.713 908.709 730.671C906.396 731.629 903.917 732.122 901.413 732.122C898.909 732.122 896.43 731.629 894.116 730.671C891.803 729.713 889.702 728.309 887.932 726.539L608.371 447.205C603.009 441.846 599.996 434.578 599.996 427C599.996 419.422 603.009 412.154 608.371 406.796L1137.02 -121.418C1138.79 -123.188 1140.89 -124.592 1143.2 -125.55C1145.52 -126.508 1148 -127.001 1150.5 -127.001C1153 -127.001 1155.48 -126.508 1157.8 -125.55C1160.11 -124.592 1162.21 -123.188 1163.98 -121.418Z" fill="#767474"/>
</g>
<g opacity="0.08" clip-path="url(#clip1_1729_16292)">
<path d="M322.061 -259.539L601.622 19.7953C606.985 25.1541 609.997 32.4218 609.997 39.9998C609.997 47.5779 606.985 54.8456 601.622 60.2043L72.9797 588.418C71.2101 590.188 69.1086 591.592 66.7955 592.55C64.4824 593.508 62.003 594.001 59.4991 594.001C56.9952 594.001 54.5158 593.508 52.2027 592.55C49.8896 591.592 47.7881 590.188 46.0185 588.418L-46.683 495.856C-50.2576 492.283 -52.2656 487.438 -52.2656 482.386C-52.2656 477.334 -50.2576 472.489 -46.683 468.916L382.576 39.9998L202.424 -139.999C198.849 -143.573 196.841 -148.419 196.841 -153.472C196.841 -158.525 198.849 -163.371 202.424 -166.945L295.1 -259.539C296.87 -261.309 298.971 -262.713 301.284 -263.671C303.597 -264.629 306.077 -265.122 308.581 -265.122C311.084 -265.122 313.564 -264.629 315.877 -263.671C318.19 -262.713 320.292 -261.309 322.061 -259.539Z" fill="#767474"/>
<path d="M72.9813 -508.418L165.651 -415.823C167.422 -414.055 168.827 -411.956 169.786 -409.644C170.745 -407.333 171.239 -404.856 171.239 -402.354C171.239 -399.852 170.745 -397.375 169.786 -395.063C168.827 -392.752 167.422 -390.652 165.651 -388.884L-263.576 40.0001L-83.4115 219.999C-79.8365 223.573 -77.8283 228.419 -77.8283 233.472C-77.8283 238.525 -79.8365 243.371 -83.4115 246.944L-176.107 339.539C-177.876 341.309 -179.978 342.713 -182.291 343.671C-184.604 344.629 -187.083 345.122 -189.587 345.122C-192.091 345.122 -194.57 344.629 -196.884 343.671C-199.197 342.713 -201.298 341.309 -203.068 339.539L-482.629 60.2046C-487.991 54.8458 -491.004 47.5781 -491.004 40.0001C-491.004 32.4221 -487.991 25.1544 -482.629 19.7957L46.0201 -508.418C47.7898 -510.188 49.8912 -511.592 52.2043 -512.55C54.5173 -513.508 56.9968 -514.001 59.5007 -514.001C62.0046 -514.001 64.4841 -513.508 66.7971 -512.55C69.1102 -511.592 71.2116 -510.188 72.9813 -508.418Z" fill="#767474"/>
</g>
<defs>
<clipPath id="clip0_1729_16292">
<rect width="1101" height="1108" fill="white" transform="translate(600 -127)"/>
</clipPath>
<clipPath id="clip1_1729_16292">
<rect width="1101" height="1108" fill="white" transform="translate(-491 -514)"/>
</clipPath>
</defs>
</svg>
