<svg width="411" height="470" viewBox="0 0 411 470" fill="none" xmlns="http://www.w3.org/2000/svg">
<path d="M198.672 470.001C300.46 470.001 382.975 454.056 382.975 434.387C382.975 414.717 300.46 398.772 198.672 398.772C96.8845 398.772 14.3691 414.717 14.3691 434.387C14.3691 454.056 96.8845 470.001 198.672 470.001Z" fill="#58D96B"/>
<path opacity="0.5" d="M198.672 470.001C300.46 470.001 382.975 454.056 382.975 434.387C382.975 414.717 300.46 398.772 198.672 398.772C96.8845 398.772 14.3691 414.717 14.3691 434.387C14.3691 454.056 96.8845 470.001 198.672 470.001Z" fill="white"/>
<path d="M278.791 281.929H140.296C136.967 281.929 134.27 284.627 134.27 287.955V299.129C134.27 302.457 136.967 305.155 140.296 305.155H278.791C282.119 305.155 284.817 302.457 284.817 299.129V287.955C284.817 284.627 282.119 281.929 278.791 281.929Z" fill="white"/>
<path d="M278.791 305.8H140.296C138.529 305.8 136.834 305.099 135.584 303.851C134.333 302.603 133.628 300.909 133.625 299.142V287.954C133.628 286.186 134.332 284.491 135.583 283.241C136.833 281.991 138.528 281.287 140.296 281.283H278.791C280.56 281.287 282.254 281.991 283.505 283.241C284.755 284.491 285.459 286.186 285.463 287.954V299.142C285.459 300.909 284.755 302.603 283.504 303.851C282.253 305.099 280.558 305.8 278.791 305.8ZM140.296 282.574C138.869 282.574 137.5 283.14 136.491 284.15C135.482 285.159 134.915 286.527 134.915 287.954V299.142C134.919 300.567 135.487 301.932 136.496 302.938C137.505 303.945 138.871 304.51 140.296 304.51H278.791C280.216 304.51 281.583 303.945 282.592 302.938C283.6 301.932 284.169 300.567 284.172 299.142V287.954C284.172 286.527 283.605 285.159 282.596 284.15C281.587 283.14 280.218 282.574 278.791 282.574H140.296Z" fill="#263238"/>
<path d="M149.755 284.354H140.297V303.439H149.755V284.354Z" fill="#58D96B"/>
<path d="M161.548 284.354H152.09V303.439H161.548V284.354Z" fill="#58D96B"/>
<path d="M173.341 284.354H163.883V303.439H173.341V284.354Z" fill="#58D96B"/>
<path d="M185.136 284.354H175.678V303.439H185.136V284.354Z" fill="#58D96B"/>
<path d="M196.931 284.354H187.473V303.439H196.931V284.354Z" fill="#58D96B"/>
<path d="M208.726 284.354H199.268V303.439H208.726V284.354Z" fill="#58D96B"/>
<path d="M220.519 284.354H211.061V303.439H220.519V284.354Z" fill="#58D96B"/>
<path d="M232.312 284.354H222.854V303.439H232.312V284.354Z" fill="#58D96B"/>
<path d="M230.246 124.078L242.647 118.427L240.066 103.536L226.388 102.478C224.643 97.9112 222.342 93.5773 219.536 89.574L226.595 77.6639L215.897 66.9667L203.897 74.1025C196.985 69.3969 189.159 66.2005 180.929 64.7215L177.47 51.0049H162.347L158.863 64.7989C154.178 65.693 149.616 67.1442 145.276 69.1216L134.462 59.7665L122.088 68.4377L127.249 81.8189C123.919 85.2169 121.004 88.9983 118.565 93.0838L104.371 91.6127L99.2095 105.807L110.991 113.794C110.425 117.111 110.14 120.469 110.139 123.833C110.139 125.266 110.139 126.672 110.307 128.079L97.9062 134.995L101.777 149.602L115.817 149.421C117.897 153.803 120.496 157.919 123.559 161.68L117.494 174.261L129.107 183.977L140.334 175.938C144.584 178.393 149.122 180.312 153.844 181.655L156.102 195.191L171.16 196.481L175.703 183.668C180.645 183.227 185.513 182.169 190.193 180.519L199.69 190.184L212.788 182.622L209.188 169.603C212.984 166.377 216.364 162.693 219.252 158.634L232.556 161.086L239.008 147.395L228.569 138.776C229.737 133.965 230.3 129.028 230.246 124.078ZM207.884 123.82C207.884 131.285 205.671 138.582 201.523 144.789C197.376 150.996 191.481 155.834 184.585 158.691C177.688 161.547 170.099 162.295 162.778 160.838C155.456 159.382 148.731 155.787 143.453 150.509C138.174 145.23 134.579 138.505 133.123 131.184C131.667 123.862 132.414 116.273 135.271 109.377C138.128 102.48 142.965 96.5852 149.172 92.4379C155.379 88.2907 162.676 86.0771 170.141 86.0771C175.099 86.0771 180.008 87.0537 184.588 88.9513C189.168 90.8489 193.329 93.6302 196.834 97.1364C200.339 100.643 203.119 104.805 205.015 109.386C206.911 113.966 207.886 118.876 207.884 123.833V123.82Z" fill="#58D96B"/>
<path d="M171.031 197.204L155.972 195.914C155.817 195.901 155.671 195.838 155.556 195.732C155.441 195.627 155.365 195.487 155.34 195.333L153.095 182.146C148.599 180.842 144.269 179.024 140.191 176.726L129.326 184.468C129.205 184.565 129.055 184.617 128.9 184.617C128.746 184.617 128.595 184.565 128.474 184.468L116.861 174.752C116.742 174.652 116.659 174.515 116.626 174.363C116.594 174.211 116.613 174.053 116.68 173.913L122.539 161.719C119.673 158.134 117.219 154.239 115.222 150.106L101.635 150.273C101.479 150.281 101.325 150.233 101.2 150.139C101.075 150.045 100.987 149.91 100.951 149.757L97.0798 135.15C97.0368 135.002 97.0452 134.843 97.1038 134.701C97.1624 134.558 97.2676 134.439 97.4024 134.363L109.416 127.653C109.325 126.208 109.287 124.982 109.287 123.782C109.288 120.528 109.551 117.278 110.074 114.066L98.654 106.324C98.526 106.234 98.4313 106.104 98.3846 105.955C98.3379 105.805 98.3419 105.645 98.396 105.498L103.557 91.3037C103.615 91.1593 103.718 91.0374 103.85 90.956C103.983 90.8746 104.138 90.8382 104.293 90.8521L118.087 92.2715C120.424 88.4141 123.185 84.8304 126.32 81.5872L121.377 68.619C121.32 68.4746 121.314 68.3146 121.361 68.1663C121.408 68.018 121.505 67.8907 121.635 67.8061L134.01 59.1348C134.133 59.0375 134.285 58.9845 134.442 58.9845C134.599 58.9845 134.752 59.0375 134.875 59.1348L145.34 68.1674C149.475 66.3276 153.803 64.9556 158.243 64.0769L161.611 50.7087C161.653 50.5586 161.742 50.426 161.865 50.3306C161.988 50.2353 162.139 50.1823 162.295 50.1797H177.418C177.573 50.1809 177.723 50.2335 177.844 50.3293C177.966 50.4251 178.052 50.5586 178.089 50.7087L181.444 63.9866C189.448 65.4852 197.065 68.5933 203.832 73.1224L215.445 66.219C215.578 66.1364 215.734 66.1017 215.889 66.1204C216.044 66.1392 216.188 66.2104 216.297 66.3222L226.981 77.0064C227.089 77.1177 227.157 77.2611 227.176 77.4149C227.195 77.5687 227.162 77.7243 227.084 77.8581L220.297 89.4972C222.934 93.3463 225.12 97.4854 226.813 101.833L240.053 102.852C240.208 102.865 240.354 102.929 240.469 103.034C240.583 103.139 240.659 103.28 240.685 103.433L243.266 118.324C243.289 118.477 243.263 118.634 243.191 118.771C243.119 118.908 243.005 119.018 242.865 119.085L230.865 124.544C230.818 129.264 230.221 133.962 229.084 138.544L239.175 146.88C239.294 146.977 239.377 147.111 239.412 147.26C239.447 147.409 239.432 147.566 239.369 147.706L232.981 161.409C232.916 161.55 232.806 161.666 232.668 161.738C232.531 161.81 232.373 161.835 232.22 161.809L219.316 159.435C216.532 163.268 213.32 166.77 209.742 169.874L213.213 182.455C213.254 182.606 213.245 182.765 213.187 182.91C213.129 183.055 213.024 183.176 212.89 183.255L199.793 190.817C199.659 190.89 199.506 190.918 199.354 190.898C199.203 190.877 199.063 190.808 198.954 190.701L189.754 181.358C185.288 182.887 180.659 183.887 175.96 184.339L171.573 196.74C171.531 196.858 171.46 196.963 171.364 197.045C171.269 197.127 171.154 197.181 171.031 197.204ZM156.566 194.546L170.553 195.759L174.915 183.449C174.958 183.323 175.037 183.213 175.143 183.133C175.249 183.053 175.376 183.005 175.508 182.997C180.394 182.561 185.205 181.516 189.831 179.887C189.957 179.843 190.093 179.836 190.223 179.865C190.353 179.895 190.472 179.961 190.567 180.055L199.69 189.333L211.845 182.313L208.387 169.81C208.35 169.683 208.35 169.548 208.389 169.422C208.428 169.295 208.504 169.183 208.606 169.1C212.354 165.908 215.695 162.268 218.555 158.261C218.632 158.152 218.738 158.067 218.862 158.017C218.985 157.966 219.121 157.953 219.252 157.977L232.014 160.325L237.949 147.615L227.936 139.344C227.829 139.261 227.749 139.148 227.708 139.019C227.666 138.89 227.665 138.751 227.704 138.621C228.915 133.868 229.535 128.984 229.549 124.079C229.55 123.945 229.589 123.814 229.662 123.702C229.736 123.59 229.84 123.501 229.962 123.447L241.872 118.014L239.433 104.194L226.284 103.175C226.152 103.165 226.026 103.117 225.921 103.037C225.815 102.957 225.735 102.848 225.691 102.723C223.971 98.1952 221.7 93.896 218.929 89.923C218.857 89.8092 218.818 89.6772 218.818 89.5423C218.818 89.4075 218.857 89.2755 218.929 89.1617L225.704 77.7161L215.781 67.7932L204.245 74.6451C204.134 74.7178 204.004 74.7565 203.871 74.7565C203.738 74.7565 203.608 74.7178 203.496 74.6451C196.672 70.0159 188.953 66.8686 180.838 65.406C180.705 65.3827 180.582 65.3215 180.484 65.23C180.385 65.1384 180.316 65.0203 180.283 64.8899L176.941 51.7023H162.889L159.546 64.9802C159.512 65.1099 159.442 65.2272 159.344 65.3185C159.246 65.4099 159.123 65.4715 158.992 65.4963C154.361 66.3773 149.852 67.8068 145.559 69.7546C145.437 69.8111 145.302 69.8315 145.169 69.8132C145.037 69.7949 144.912 69.7387 144.81 69.6513L134.423 60.6188L122.926 68.6577L127.842 81.5614C127.889 81.686 127.9 81.8215 127.872 81.9518C127.845 82.0822 127.781 82.202 127.687 82.2969C124.402 85.6607 121.522 89.3982 119.106 93.4328C119.037 93.5458 118.937 93.6371 118.819 93.6964C118.7 93.7557 118.567 93.7806 118.435 93.7683L104.745 92.3618L99.9444 105.549L111.274 113.292C111.386 113.366 111.475 113.471 111.527 113.595C111.58 113.719 111.595 113.856 111.571 113.988C111.018 117.267 110.738 120.586 110.732 123.911C110.732 125.202 110.732 126.492 110.9 128.105C110.905 128.237 110.875 128.369 110.811 128.485C110.747 128.601 110.653 128.697 110.538 128.763L98.6153 135.421L102.254 148.97L115.777 148.725C115.91 148.725 116.04 148.762 116.152 148.833C116.264 148.904 116.353 149.005 116.41 149.125C118.449 153.456 121.006 157.525 124.023 161.242C124.105 161.343 124.158 161.466 124.174 161.596C124.19 161.726 124.169 161.858 124.113 161.977L118.281 174.081L129.029 183.113L139.817 175.371C139.931 175.299 140.063 175.26 140.197 175.26C140.332 175.26 140.464 175.299 140.578 175.371C144.784 177.787 149.269 179.681 153.933 181.01C154.061 181.045 154.177 181.116 154.266 181.214C154.355 181.312 154.414 181.434 154.437 181.565L156.566 194.546ZM170.14 162.287C162.538 162.284 155.108 160.028 148.788 155.802C142.468 151.577 137.543 145.572 134.636 138.548C131.728 131.524 130.969 123.795 132.453 116.34C133.938 108.884 137.6 102.036 142.977 96.661C148.353 91.2863 155.202 87.6266 162.659 86.1444C170.115 84.6622 177.843 85.4242 184.867 88.334C191.89 91.2438 197.893 96.1708 202.116 102.492C206.339 108.813 208.593 116.245 208.593 123.847C208.576 134.037 204.519 143.806 197.31 151.009C190.102 158.213 180.331 162.264 170.14 162.274V162.287ZM170.14 86.8003C162.813 86.8003 155.651 88.973 149.559 93.0438C143.466 97.1145 138.718 102.9 135.914 109.67C133.11 116.439 132.376 123.888 133.806 131.074C135.235 138.26 138.764 144.862 143.945 150.043C149.126 155.224 155.727 158.752 162.913 160.181C170.099 161.611 177.548 160.877 184.317 158.073C191.087 155.269 196.873 150.521 200.943 144.429C205.014 138.336 207.187 131.174 207.187 123.847C207.18 114.022 203.275 104.602 196.329 97.6539C189.384 90.7058 179.965 86.7977 170.14 86.7874V86.8003Z" fill="#263238"/>
<path d="M87.4677 153.551C87.0247 153.55 86.5935 153.408 86.2364 153.146C85.8792 152.884 85.6145 152.515 85.4805 152.093C84.0815 147.742 83.0203 143.29 82.3062 138.776C82.2207 138.227 82.3568 137.666 82.6847 137.217C83.0126 136.768 83.5054 136.468 84.0547 136.382C84.6039 136.297 85.1647 136.433 85.6136 136.761C86.0625 137.089 86.3628 137.582 86.4483 138.131C87.1306 142.43 88.14 146.67 89.4678 150.815C89.619 151.337 89.5624 151.897 89.3098 152.378C89.0573 152.859 88.6283 153.224 88.1129 153.396C87.9088 153.486 87.6903 153.538 87.4677 153.551Z" fill="#263238"/>
<path d="M83.3513 129.24C82.8045 129.24 82.2791 129.028 81.8864 128.647C81.4938 128.267 81.2648 127.748 81.248 127.201C81.248 126.388 81.248 125.576 81.248 124.763C81.2526 106.518 86.8416 88.7121 97.2641 73.7376C107.687 58.7631 122.443 47.3377 139.55 40.997C156.658 34.6562 175.296 33.7039 192.96 38.2681C210.625 42.8322 226.469 52.6941 238.363 66.5284C238.543 66.7368 238.68 66.9785 238.766 67.2398C238.852 67.5011 238.886 67.7769 238.865 68.0513C238.845 68.3256 238.771 68.5933 238.647 68.839C238.523 69.0848 238.352 69.3037 238.144 69.4833C237.935 69.6629 237.694 69.7997 237.432 69.8859C237.171 69.9721 236.895 70.006 236.621 69.9856C236.346 69.9652 236.079 69.891 235.833 69.7672C235.587 69.6434 235.368 69.4724 235.189 69.2639C223.856 56.068 208.755 46.6586 191.915 42.3011C175.076 37.9436 157.306 38.8468 140.995 44.8895C124.684 50.9321 110.614 61.8243 100.678 76.1013C90.7421 90.3783 85.4159 107.355 85.4159 124.75C85.4159 125.524 85.4159 126.298 85.4159 127.072C85.4245 127.348 85.3785 127.623 85.2805 127.88C85.1825 128.138 85.0345 128.374 84.845 128.574C84.6555 128.774 84.4283 128.935 84.1763 129.047C83.9244 129.159 83.6528 129.221 83.3771 129.227L83.3513 129.24Z" fill="#263238"/>
<path d="M242.633 59.9736L244.943 79.0711L227.252 71.5353L242.633 59.9736Z" fill="#263238"/>
<path d="M332.844 192.069L343.438 188.907L340.702 173.423L329.592 174.094C328.142 170.28 326.231 166.657 323.902 163.306L330.883 154.506L319.76 143.435L310.882 150.48C305.135 146.596 298.638 143.959 291.81 142.738L290.52 131.331H274.777L273.487 142.815C269.586 143.556 265.786 144.761 262.171 146.403L254.428 137.718L241.525 146.751L247.06 156.984C244.29 159.81 241.864 162.954 239.834 166.352L228.531 163.655L223.188 178.275L233.511 183.436C233.039 186.194 232.801 188.987 232.802 191.785C232.802 192.972 232.802 194.146 232.944 195.32L222.221 199.553L226.285 214.74L237.55 213.076C239.281 216.722 241.447 220.145 244.002 223.27L237.757 232.728L249.809 242.832L257.938 235.09C261.48 237.127 265.259 238.722 269.19 239.838L269.487 250.961L285.152 252.329L287.371 241.528C291.48 241.17 295.528 240.303 299.423 238.948L305.966 247.761L319.579 239.903L315.23 229.864C318.382 227.173 321.194 224.11 323.605 220.741L334.005 224.199L340.651 210.005L331.27 204.301C332.301 200.305 332.83 196.196 332.844 192.069ZM314.237 191.849C314.237 198.062 312.394 204.135 308.943 209.3C305.491 214.465 300.585 218.491 294.845 220.867C289.106 223.244 282.79 223.865 276.697 222.652C270.604 221.439 265.008 218.447 260.616 214.053C256.224 209.66 253.234 204.062 252.024 197.969C250.813 191.875 251.437 185.56 253.816 179.821C256.195 174.082 260.223 169.178 265.39 165.729C270.556 162.279 276.63 160.439 282.842 160.442C286.966 160.442 291.05 161.254 294.859 162.833C298.669 164.411 302.131 166.725 305.046 169.642C307.962 172.558 310.274 176.021 311.851 179.831C313.428 183.642 314.238 187.725 314.237 191.849Z" fill="#58D96B"/>
<path d="M285.139 253.116H285.075L269.423 251.825C269.251 251.813 269.091 251.737 268.972 251.613C268.852 251.49 268.783 251.326 268.777 251.154L268.494 240.535C264.85 239.462 261.34 237.982 258.029 236.122L250.286 243.464C250.159 243.578 249.993 243.641 249.822 243.641C249.651 243.641 249.485 243.578 249.357 243.464L237.305 233.36C237.175 233.248 237.089 233.091 237.066 232.92C237.042 232.749 237.081 232.575 237.176 232.431L243.138 223.399C240.812 220.47 238.817 217.294 237.189 213.927L226.428 215.527C226.257 215.555 226.083 215.517 225.939 215.421C225.796 215.325 225.693 215.179 225.653 215.011L221.589 199.798C221.546 199.632 221.565 199.456 221.644 199.303C221.722 199.151 221.854 199.033 222.015 198.972L232.26 194.92C232.183 193.772 232.157 192.791 232.157 191.849C232.158 189.183 232.369 186.521 232.789 183.888L222.879 178.945C222.724 178.87 222.603 178.74 222.539 178.58C222.475 178.42 222.472 178.243 222.531 178.081L227.912 163.306C227.975 163.147 228.093 163.016 228.244 162.935C228.395 162.855 228.57 162.831 228.737 162.867L239.538 165.448C241.45 162.32 243.695 159.408 246.235 156.764L240.944 146.983C240.863 146.832 240.841 146.656 240.881 146.489C240.922 146.323 241.022 146.177 241.164 146.08L254.067 137.047C254.209 136.948 254.382 136.904 254.554 136.926C254.726 136.947 254.884 137.032 254.996 137.163L262.351 145.46C265.708 143.975 269.217 142.863 272.816 142.144L274.107 131.176C274.128 131.006 274.211 130.85 274.339 130.736C274.467 130.622 274.632 130.558 274.803 130.557H290.533C290.703 130.559 290.866 130.623 290.992 130.737C291.118 130.851 291.198 131.007 291.217 131.176L292.507 142.08C299.079 143.327 305.336 145.876 310.908 149.577L319.386 142.854C319.515 142.742 319.68 142.681 319.85 142.681C320.021 142.681 320.186 142.742 320.315 142.854L331.425 153.977C331.539 154.105 331.602 154.27 331.602 154.441C331.602 154.613 331.539 154.778 331.425 154.906L324.766 163.293C326.903 166.427 328.682 169.79 330.07 173.319L340.664 172.687C340.836 172.678 341.006 172.732 341.141 172.839C341.276 172.946 341.368 173.098 341.399 173.268L344.122 188.752C344.154 188.921 344.121 189.096 344.031 189.242C343.94 189.387 343.797 189.494 343.632 189.539L333.541 192.546C333.49 196.386 333.005 200.208 332.096 203.94L340.999 209.411C341.144 209.502 341.251 209.642 341.301 209.806C341.351 209.969 341.34 210.145 341.27 210.301L334.625 224.495C334.552 224.65 334.425 224.773 334.269 224.841C334.112 224.91 333.936 224.92 333.773 224.87L323.85 221.566C321.597 224.679 319 227.527 316.108 230.057L320.25 239.631C320.318 239.787 320.326 239.962 320.274 240.124C320.222 240.285 320.112 240.422 319.966 240.509L306.34 248.367C306.194 248.455 306.021 248.485 305.853 248.452C305.686 248.418 305.538 248.324 305.437 248.187L299.191 239.773C295.558 241.006 291.796 241.82 287.978 242.199L285.862 252.522C285.837 252.693 285.748 252.848 285.615 252.958C285.481 253.068 285.312 253.124 285.139 253.116ZM270.158 250.393L284.584 251.683L286.662 241.49C286.694 241.342 286.773 241.208 286.887 241.108C287.001 241.008 287.143 240.948 287.294 240.935C291.347 240.569 295.339 239.702 299.179 238.354C299.321 238.305 299.475 238.302 299.618 238.346C299.762 238.39 299.888 238.479 299.979 238.599L306.146 246.909L318.689 239.67L314.573 230.199C314.517 230.06 314.505 229.907 314.54 229.762C314.575 229.616 314.654 229.485 314.766 229.386C317.883 226.733 320.653 223.699 323.012 220.353C323.103 220.234 323.228 220.145 323.371 220.099C323.514 220.053 323.668 220.051 323.812 220.095L333.618 223.373L339.735 210.25L330.922 204.83C330.795 204.75 330.697 204.632 330.641 204.493C330.585 204.354 330.575 204.201 330.612 204.056C331.622 200.114 332.138 196.061 332.147 191.991C332.148 191.841 332.197 191.696 332.288 191.577C332.379 191.458 332.506 191.372 332.651 191.333L342.638 188.352L340.122 174.094L329.644 174.726C329.494 174.737 329.345 174.7 329.219 174.618C329.093 174.536 328.998 174.416 328.947 174.274C327.514 170.516 325.63 166.945 323.334 163.642C323.244 163.523 323.195 163.378 323.195 163.229C323.195 163.08 323.244 162.935 323.334 162.816L329.915 154.506L319.657 144.325L311.269 150.983C311.15 151.073 311.005 151.122 310.856 151.122C310.707 151.122 310.562 151.073 310.443 150.983C304.784 147.136 298.378 144.525 291.643 143.318C291.496 143.292 291.361 143.218 291.259 143.109C291.156 143 291.092 142.861 291.075 142.712L289.785 131.912H275.397L274.107 142.776C274.095 142.925 274.033 143.065 273.933 143.175C273.833 143.284 273.698 143.358 273.552 143.383C269.707 144.117 265.964 145.308 262.403 146.931C262.266 146.991 262.113 147.005 261.967 146.973C261.821 146.94 261.689 146.863 261.59 146.751L254.3 138.544L242.441 146.841L247.68 156.519C247.748 156.652 247.774 156.802 247.753 156.95C247.732 157.098 247.666 157.236 247.564 157.345C244.829 160.129 242.438 163.231 240.441 166.584C240.36 166.71 240.243 166.809 240.104 166.866C239.966 166.924 239.813 166.938 239.667 166.906L228.97 164.326L224.028 177.926L233.809 182.817C233.942 182.886 234.05 182.995 234.118 183.13C234.185 183.264 234.208 183.417 234.183 183.565C233.722 186.285 233.489 189.039 233.486 191.797C233.486 192.843 233.486 193.952 233.628 195.281C233.636 195.429 233.598 195.575 233.52 195.7C233.441 195.825 233.326 195.922 233.189 195.978L223.047 199.991L226.789 213.966L237.434 212.392C237.584 212.37 237.736 212.397 237.869 212.469C238.002 212.541 238.107 212.654 238.17 212.792C239.868 216.383 241.991 219.758 244.493 222.844C244.581 222.963 244.628 223.108 244.628 223.257C244.628 223.405 244.581 223.55 244.493 223.67L238.596 232.612L249.68 241.915L257.422 234.651C257.529 234.545 257.668 234.478 257.818 234.459C257.967 234.44 258.118 234.471 258.248 234.547C261.735 236.561 265.458 238.134 269.332 239.231C269.476 239.27 269.603 239.353 269.696 239.469C269.789 239.585 269.842 239.728 269.848 239.877L270.158 250.393ZM282.842 223.915C276.493 223.915 270.286 222.032 265.006 218.504C259.727 214.976 255.612 209.962 253.182 204.096C250.752 198.23 250.116 191.775 251.355 185.547C252.594 179.319 255.651 173.599 260.141 169.109C264.631 164.619 270.352 161.562 276.579 160.323C282.807 159.084 289.262 159.72 295.128 162.15C300.995 164.58 306.009 168.695 309.536 173.974C313.064 179.254 314.947 185.461 314.947 191.81C314.947 200.329 311.566 208.498 305.546 214.525C299.526 220.552 291.361 223.943 282.842 223.953V223.915ZM282.842 161.1C276.768 161.097 270.829 162.896 265.777 166.269C260.725 169.642 256.787 174.438 254.46 180.049C252.134 185.66 251.524 191.836 252.707 197.794C253.891 203.752 256.815 209.225 261.109 213.522C265.404 217.818 270.876 220.744 276.833 221.93C282.791 223.116 288.967 222.509 294.579 220.185C300.191 217.861 304.989 213.924 308.364 208.874C311.739 203.823 313.54 197.885 313.54 191.81C313.52 183.677 310.278 175.884 304.525 170.135C298.772 164.387 290.975 161.152 282.842 161.138V161.1Z" fill="#263238"/>
<path d="M282.339 268.149C264.99 268.106 248.192 262.056 234.802 251.026C234.374 250.672 234.104 250.162 234.052 249.609C234 249.056 234.17 248.505 234.524 248.077C234.878 247.649 235.388 247.38 235.941 247.328C236.494 247.276 237.045 247.446 237.473 247.8C249.875 258.054 265.411 263.76 281.502 263.972C297.593 264.183 313.273 258.888 325.941 248.965C338.609 239.041 347.505 225.085 351.152 209.411C354.799 193.737 352.978 177.287 345.993 162.79C345.849 162.54 345.758 162.262 345.727 161.975C345.695 161.688 345.723 161.397 345.809 161.121C345.894 160.845 346.036 160.59 346.225 160.371C346.413 160.152 346.645 159.975 346.905 159.85C347.166 159.724 347.449 159.654 347.738 159.643C348.027 159.632 348.314 159.681 348.583 159.786C348.853 159.891 349.097 160.051 349.302 160.255C349.506 160.459 349.667 160.702 349.773 160.971C355.263 172.373 357.768 184.981 357.054 197.615C356.34 210.249 352.43 222.496 345.691 233.206C338.952 243.917 329.605 252.741 318.524 258.853C307.444 264.964 294.993 268.163 282.339 268.149Z" fill="#263238"/>
<path d="M340.793 169.268L340.729 150.028L357.413 159.59L340.793 169.268Z" fill="#263238"/>
<path d="M105.029 450.968C141.851 450.968 171.702 443.457 171.702 434.193C171.702 424.928 141.851 417.418 105.029 417.418C68.2061 417.418 38.3555 424.928 38.3555 434.193C38.3555 443.457 68.2061 450.968 105.029 450.968Z" fill="#263238"/>
<path d="M245.487 420.23C245.487 419.482 245.577 418.733 245.577 417.959C245.577 399.894 228.609 385.287 207.666 385.287C186.723 385.287 169.742 399.92 169.742 417.959C169.742 418.733 169.742 419.482 169.845 420.23H245.487Z" fill="white"/>
<path d="M245.484 420.94H169.843C169.667 420.941 169.497 420.875 169.368 420.755C169.238 420.635 169.159 420.471 169.146 420.295C169.082 419.418 169.043 418.669 169.043 417.96C169.043 399.559 186.373 384.591 207.664 384.591C228.955 384.591 246.284 399.559 246.284 417.96C246.284 418.669 246.284 419.405 246.181 420.295C246.165 420.47 246.085 420.632 245.957 420.752C245.828 420.871 245.66 420.938 245.484 420.94ZM170.488 419.573H244.813C244.813 419.005 244.813 418.489 244.813 417.998C244.813 400.372 228.116 386.023 207.599 386.023C187.082 386.023 170.372 400.372 170.372 417.998C170.437 418.463 170.462 418.966 170.488 419.573Z" fill="#263238"/>
<path d="M245.487 423.341C245.487 422.592 245.577 421.831 245.577 421.07C245.577 403.004 228.609 388.397 207.666 388.397C186.723 388.397 169.742 403.03 169.742 421.07C169.742 421.831 169.742 422.592 169.845 423.341H245.487Z" fill="#263238"/>
<path d="M245.484 424.037H169.843C169.669 424.038 169.501 423.973 169.372 423.856C169.243 423.739 169.162 423.578 169.146 423.405C169.082 422.514 169.043 421.779 169.043 421.069C169.043 402.668 186.373 387.7 207.664 387.7C228.955 387.7 246.284 402.668 246.284 421.069C246.284 421.779 246.284 422.514 246.181 423.405C246.165 423.578 246.085 423.739 245.956 423.856C245.827 423.973 245.658 424.038 245.484 424.037ZM170.488 422.643H244.813C244.813 422.076 244.813 421.559 244.813 421.069C244.813 403.443 228.116 389.094 207.599 389.094C187.082 389.094 170.372 403.443 170.372 421.069C170.437 421.559 170.462 422.076 170.488 422.643Z" fill="#263238"/>
<path d="M126.192 212.533L152.27 253.76L180.929 237.631L182.671 251.618C182.671 251.618 155.07 273.335 151.225 275.052C147.38 276.768 140.386 275.761 138.644 273.658C136.902 271.555 122.23 219.566 122.23 219.566C122.23 219.566 119.65 209.746 126.192 212.533Z" fill="white"/>
<path d="M146.308 276.664C142.927 276.664 139.43 275.735 138.101 274.084C136.307 271.929 123.042 225.05 121.545 219.656C121.378 219.049 120.1 213.811 122.281 211.914C123.249 211.088 124.655 211.049 126.462 211.823C126.592 211.877 126.701 211.972 126.771 212.094L152.501 252.767L180.58 237.011C180.681 236.957 180.794 236.929 180.909 236.929C181.024 236.929 181.137 236.957 181.238 237.011C181.34 237.065 181.429 237.142 181.496 237.236C181.563 237.33 181.608 237.439 181.625 237.553L183.367 251.528C183.383 251.647 183.368 251.768 183.322 251.879C183.277 251.99 183.203 252.087 183.109 252.16C181.973 253.051 155.379 273.903 151.508 275.671C149.861 276.355 148.091 276.694 146.308 276.664ZM124.152 212.727C123.807 212.712 123.468 212.822 123.197 213.036C122.049 214.03 122.397 217.437 122.887 219.346C128.733 240.07 137.894 271.555 139.185 273.245C140.707 275.064 147.391 276.058 150.927 274.445C154.463 272.832 178.876 253.799 181.896 251.36L180.322 238.805L152.605 254.406C152.448 254.492 152.264 254.514 152.091 254.469C151.918 254.423 151.769 254.313 151.675 254.16L125.713 213.114C125.22 212.893 124.691 212.761 124.152 212.727Z" fill="#263238"/>
<path d="M179.535 235.592L159.611 248.173L170.205 268.793L186.864 250.625L185.122 231.398L179.535 235.592Z" fill="#58D96B"/>
<path d="M170.206 269.49H170.116C170.006 269.471 169.901 269.427 169.81 269.362C169.718 269.298 169.642 269.214 169.587 269.116L158.993 248.47C158.911 248.315 158.89 248.134 158.936 247.964C158.981 247.794 159.089 247.648 159.238 247.554L179.136 235.05L184.697 230.883C184.796 230.805 184.914 230.756 185.039 230.741C185.163 230.725 185.29 230.743 185.404 230.794C185.519 230.844 185.619 230.924 185.692 231.026C185.765 231.128 185.809 231.248 185.82 231.373L187.562 250.599C187.574 250.695 187.564 250.793 187.533 250.885C187.502 250.977 187.45 251.06 187.381 251.128L170.723 269.31C170.653 269.373 170.572 269.422 170.483 269.453C170.394 269.484 170.3 269.497 170.206 269.49ZM160.529 248.419L170.374 267.581L186.142 250.38L184.542 232.715L179.949 236.147L160.529 248.419Z" fill="#263238"/>
<path d="M97.3262 309.014L145.973 357.906C145.973 357.906 133.74 369.442 125.005 379.235C116.269 389.029 101.946 401.598 101.946 401.598L106.836 407.533C106.836 407.533 163.458 364.951 166.193 362.099C168.929 359.248 168.993 353.712 168.296 346.383C167.6 339.053 146.98 281.374 146.98 281.374L97.3262 309.014Z" fill="#263238"/>
<path d="M106.836 408.243C106.732 408.242 106.63 408.219 106.536 408.174C106.443 408.13 106.36 408.065 106.294 407.985L101.403 402.036C101.288 401.897 101.231 401.717 101.246 401.537C101.26 401.356 101.345 401.188 101.481 401.069C101.623 400.952 115.881 388.41 124.488 378.771C132.127 370.216 142.553 360.216 144.979 357.893L96.8356 309.504C96.7597 309.429 96.7018 309.338 96.666 309.237C96.6303 309.137 96.6176 309.03 96.6291 308.923C96.6464 308.816 96.6879 308.713 96.7505 308.624C96.8131 308.535 96.8951 308.46 96.9904 308.407L146.747 280.768C146.84 280.726 146.942 280.705 147.044 280.705C147.146 280.705 147.247 280.726 147.341 280.768C147.435 280.807 147.52 280.865 147.591 280.938C147.662 281.011 147.717 281.098 147.753 281.193C148.592 283.542 168.399 339.028 169.109 346.357C169.857 354.254 169.728 359.725 166.812 362.654C163.896 365.583 109.636 406.411 107.326 408.153C107.178 408.237 107.005 408.269 106.836 408.243ZM102.965 401.675L107.004 406.578C112.784 402.217 163.225 364.19 165.806 361.609C168.386 359.028 168.386 353.712 167.703 346.447C167.057 339.737 149.16 289.284 146.695 282.381L98.5259 309.182L146.528 357.415C146.656 357.552 146.73 357.731 146.734 357.919C146.724 358.107 146.646 358.286 146.515 358.422C146.386 358.538 134.205 370.035 125.585 379.7C117.791 388.358 105.546 399.339 102.874 401.675H102.965Z" fill="#263238"/>
<path d="M123.339 372.552L135.133 393.133L111.235 405.637C110.394 408.391 110.394 411.334 111.235 414.089C112.706 418.14 116.396 422.179 116.745 424.412C117.093 426.644 117.48 427.715 112.706 427.715C107.932 427.715 102.783 423.676 100.202 420.734C97.6216 417.792 97.2603 409.701 95.0409 406.398C92.8215 403.095 89.1568 398.308 92.0989 393.894C95.0409 389.481 100.912 388.733 100.912 388.733L123.339 372.552Z" fill="#58D96B"/>
<path d="M112.682 428.386C107.391 428.386 102.011 423.857 99.6621 421.173C98.1652 419.47 97.391 416.308 96.6426 413.25C96.2352 411.004 95.5005 408.83 94.4619 406.798L93.9845 406.088C91.6747 402.682 88.5133 398.024 91.5199 393.52C94.3329 389.288 99.5847 388.268 100.643 388.101L122.927 372.023C123.007 371.95 123.101 371.895 123.203 371.861C123.305 371.828 123.414 371.817 123.521 371.829C123.616 371.849 123.706 371.889 123.784 371.947C123.862 372.005 123.926 372.079 123.973 372.165L135.741 392.811C135.787 392.892 135.816 392.982 135.827 393.075C135.838 393.168 135.831 393.262 135.805 393.352C135.78 393.442 135.735 393.525 135.675 393.596C135.615 393.668 135.541 393.725 135.457 393.765L111.817 406.127C111.096 408.661 111.123 411.35 111.895 413.869C112.741 415.903 113.801 417.841 115.056 419.65C116.11 421.047 116.918 422.614 117.443 424.283V424.515C117.624 425.625 117.792 426.579 117.147 427.341C116.501 428.102 115.263 428.386 112.682 428.386ZM123.121 373.571L101.327 389.288C101.234 389.362 101.122 389.407 101.004 389.417C101.004 389.417 95.4039 390.178 92.6812 394.256C90.2037 397.972 92.9393 401.998 95.1329 405.263L95.6232 405.985C96.7686 408.159 97.5737 410.496 98.0104 412.914C98.7072 415.805 99.4427 418.799 100.707 420.244C103.546 423.495 108.514 426.992 112.682 426.992C114.63 426.992 115.779 426.799 116.088 426.425C116.398 426.05 116.205 425.534 116.088 424.734V424.502C115.577 423.03 114.842 421.646 113.908 420.399C112.591 418.502 111.483 416.469 110.604 414.334C109.702 411.43 109.702 408.321 110.604 405.417C110.628 405.33 110.67 405.249 110.728 405.18C110.786 405.111 110.858 405.056 110.94 405.017L134.167 392.849L123.121 373.571Z" fill="#263238"/>
<path d="M115.88 427.315C110.718 425.831 105.931 421.702 102.654 417.198C98.989 412.166 99.9052 403.456 96.2018 400.256C93.9566 398.282 93.7759 394.411 93.9695 391.727C93.236 392.338 92.593 393.051 92.0597 393.843C89.1177 398.256 92.7953 403.043 95.0018 406.346C97.2083 409.65 97.5825 417.74 100.163 420.682C102.744 423.624 107.905 427.663 112.667 427.663C113.75 427.722 114.835 427.604 115.88 427.315Z" fill="#263238"/>
<path d="M112.682 428.385C107.391 428.385 102.011 423.856 99.6621 421.172C98.1652 419.469 97.391 416.308 96.6426 413.249C96.2352 411.004 95.5005 408.83 94.4619 406.798L93.9845 406.088C91.6747 402.681 88.5133 398.023 91.5199 393.52C92.0902 392.667 92.7813 391.902 93.5715 391.249C93.6765 391.162 93.804 391.108 93.939 391.092C94.0739 391.076 94.2106 391.099 94.3329 391.158C94.4575 391.221 94.5601 391.32 94.627 391.442C94.6938 391.564 94.7218 391.704 94.7071 391.842C94.5522 394.023 94.5909 397.946 96.7071 399.791C98.8233 401.636 99.4685 404.849 100.204 408.294C100.862 411.366 101.494 414.54 103.224 416.85C106.837 421.817 111.521 425.405 116.127 426.708C116.272 426.745 116.401 426.827 116.494 426.944C116.587 427.06 116.639 427.204 116.643 427.353C116.645 427.501 116.602 427.646 116.519 427.768C116.435 427.89 116.317 427.984 116.179 428.037C115.041 428.347 113.859 428.464 112.682 428.385ZM93.3264 393.546C93.1137 393.784 92.9195 394.039 92.7457 394.307C90.2682 398.023 93.0038 402.049 95.1974 405.314L95.6877 406.036C96.8331 408.21 97.6382 410.547 98.0749 412.966C98.7717 415.856 99.5072 418.85 100.772 420.295C103.611 423.547 108.579 427.043 112.746 427.043H113.03C108.679 424.884 104.939 421.668 102.152 417.688C100.294 415.108 99.5718 411.817 98.9008 408.656C98.2298 405.494 97.6104 402.41 95.8426 400.914C93.8425 399.081 93.2748 396.126 93.2619 393.494L93.3264 393.546Z" fill="#263238"/>
<path d="M93.3262 303.271C93.3262 303.271 102.759 320.64 110.101 330.769C119.882 344.279 137.586 364.899 137.586 364.899L134.799 430.257L143.534 431.302C143.534 431.302 159.264 367.003 159.612 361.751C159.961 356.499 136.889 307.233 136.889 307.233" fill="#263238"/>
<path d="M143.534 431.999H143.444L134.708 430.954C134.532 430.931 134.372 430.842 134.259 430.706C134.147 430.569 134.09 430.395 134.101 430.218L136.876 365.145C134.992 362.925 118.695 343.828 109.533 331.182C102.255 321.13 92.7581 303.788 92.7581 303.607C92.6712 303.445 92.6522 303.254 92.7054 303.078C92.7586 302.901 92.8797 302.753 93.042 302.665C93.1214 302.62 93.209 302.591 93.2997 302.58C93.3904 302.569 93.4824 302.577 93.5702 302.602C93.658 302.627 93.7399 302.67 93.8109 302.727C93.882 302.785 93.9408 302.856 93.984 302.936C94.0872 303.117 103.494 320.382 110.759 330.356C120.411 343.699 138.037 364.242 138.218 364.448C138.324 364.585 138.383 364.752 138.386 364.925L135.521 429.637L143.005 430.541C144.592 423.986 158.593 366.564 158.915 361.712C159.186 357.557 142.657 321.195 136.256 307.517C136.181 307.349 136.173 307.158 136.236 306.985C136.299 306.811 136.426 306.669 136.592 306.588C136.675 306.549 136.765 306.526 136.856 306.522C136.948 306.518 137.04 306.531 137.126 306.563C137.212 306.594 137.292 306.642 137.36 306.704C137.427 306.766 137.482 306.84 137.521 306.923C139.895 311.982 160.657 356.525 160.309 361.79C159.96 367.055 144.824 428.824 144.205 431.47C144.17 431.621 144.084 431.756 143.962 431.852C143.84 431.948 143.689 432 143.534 431.999Z" fill="#263238"/>
<path d="M159.456 365.377C159.27 365.377 159.092 365.304 158.959 365.174C158.826 365.044 158.75 364.867 158.747 364.681C158.669 346.254 151.004 331.57 142.849 316.021L141.34 313.13C141.295 313.036 141.271 312.932 141.271 312.827C141.271 312.722 141.295 312.619 141.34 312.524L145.456 303.182C145.492 303.097 145.545 303.02 145.611 302.956C145.677 302.892 145.755 302.841 145.841 302.807C145.927 302.773 146.018 302.756 146.11 302.757C146.203 302.758 146.294 302.778 146.378 302.814C146.463 302.85 146.54 302.903 146.604 302.969C146.669 303.035 146.719 303.113 146.753 303.199C146.788 303.285 146.804 303.376 146.803 303.469C146.802 303.561 146.783 303.652 146.746 303.737L142.875 312.769L144.165 315.35C152.385 331.054 160.14 345.88 160.231 364.642C160.231 364.828 160.158 365.007 160.027 365.139C159.897 365.272 159.72 365.348 159.534 365.352L159.456 365.377Z" fill="white"/>
<path d="M142.554 395.056H142.476C142.293 395.036 142.126 394.945 142.01 394.802C141.894 394.66 141.839 394.477 141.857 394.294C141.857 394.294 142.025 392.578 142.334 390.139C142.344 390.048 142.372 389.96 142.416 389.879C142.46 389.799 142.521 389.728 142.593 389.672C142.665 389.615 142.748 389.574 142.837 389.55C142.925 389.526 143.018 389.52 143.109 389.533C143.2 389.542 143.288 389.57 143.369 389.615C143.449 389.659 143.519 389.719 143.576 389.791C143.633 389.864 143.674 389.946 143.698 390.035C143.722 390.124 143.728 390.216 143.715 390.307C143.418 392.733 143.25 394.423 143.25 394.436C143.229 394.606 143.146 394.763 143.018 394.876C142.89 394.99 142.725 395.054 142.554 395.056Z" fill="white"/>
<path d="M143.637 386.191H143.547C143.455 386.18 143.367 386.15 143.287 386.105C143.207 386.059 143.138 385.997 143.082 385.924C143.027 385.85 142.987 385.766 142.965 385.677C142.942 385.587 142.938 385.495 142.953 385.404C143.83 379.145 144.656 375.197 145.418 373.674C145.645 373.342 145.802 372.967 145.877 372.572C145.953 372.176 145.946 371.77 145.856 371.377C145.508 370.642 144.218 370.319 142.966 370.01C142.724 369.974 142.497 369.87 142.312 369.71C142.127 369.55 141.991 369.341 141.921 369.106C141.663 368.1 142.824 367.042 144.501 365.442C145.718 364.425 146.802 363.259 147.727 361.971C147.921 361.648 147.869 361.493 147.843 361.442C147.611 360.732 145.753 359.958 143.972 359.222C141.395 358.301 138.981 356.972 136.824 355.287C133.082 352.009 116.371 325.995 109.365 314.963C109.266 314.806 109.233 314.617 109.271 314.437C109.31 314.256 109.418 314.097 109.571 313.995C109.649 313.945 109.736 313.911 109.827 313.895C109.918 313.879 110.011 313.882 110.101 313.902C110.191 313.922 110.276 313.961 110.351 314.014C110.426 314.068 110.49 314.136 110.539 314.214C125.069 337.079 135.237 352.048 137.74 354.216C139.779 355.804 142.063 357.05 144.501 357.906C146.979 358.938 148.773 359.674 149.198 360.99C149.287 361.272 149.31 361.57 149.268 361.863C149.226 362.156 149.118 362.435 148.953 362.68C147.966 364.083 146.799 365.35 145.482 366.448C144.697 367.111 143.98 367.85 143.34 368.655C144.889 369.042 146.489 369.455 147.095 370.784C147.292 371.365 147.354 371.983 147.276 372.591C147.197 373.199 146.981 373.782 146.643 374.294C146.166 375.236 145.353 377.971 144.308 385.584C144.284 385.748 144.204 385.898 144.082 386.008C143.959 386.119 143.802 386.184 143.637 386.191Z" fill="white"/>
<path d="M108.604 313.105C108.484 313.106 108.366 313.075 108.262 313.016C108.158 312.957 108.071 312.872 108.01 312.769L106.41 310.188C106.356 310.111 106.319 310.024 106.3 309.932C106.281 309.841 106.28 309.746 106.299 309.654C106.317 309.562 106.354 309.474 106.407 309.397C106.46 309.319 106.528 309.253 106.607 309.203C106.687 309.153 106.775 309.119 106.868 309.103C106.96 309.088 107.055 309.091 107.146 309.113C107.238 309.136 107.323 309.176 107.399 309.232C107.474 309.288 107.537 309.359 107.584 309.44L109.184 312.021C109.235 312.098 109.269 312.184 109.286 312.274C109.303 312.365 109.302 312.458 109.283 312.548C109.263 312.638 109.227 312.723 109.174 312.799C109.122 312.874 109.055 312.939 108.978 312.989C108.867 313.064 108.737 313.104 108.604 313.105Z" fill="white"/>
<path d="M133.547 395.855L156.464 397.791L150.244 430.05C151.107 431.897 152.349 433.54 153.89 434.874C155.431 436.208 157.235 437.203 159.186 437.792C165.78 439.728 168.503 440.889 168.503 443.999C168.503 447.109 165.78 447.87 154.915 449.044C144.05 450.219 132.772 445.948 132.772 445.948C132.772 445.948 127.727 445.16 127.34 441.676C126.953 438.192 132.385 428.463 132.385 428.463L133.547 395.855Z" fill="#58D96B"/>
<path d="M150.952 449.948C144.682 449.857 138.468 448.75 132.552 446.671C131.855 446.555 127.029 445.574 126.603 441.806C126.216 438.322 130.797 429.87 131.649 428.335L132.81 395.882C132.814 395.786 132.838 395.691 132.88 395.605C132.922 395.518 132.982 395.441 133.055 395.379C133.125 395.317 133.207 395.27 133.296 395.241C133.385 395.213 133.478 395.202 133.571 395.211L156.488 397.147C156.585 397.154 156.678 397.182 156.763 397.228C156.848 397.275 156.921 397.34 156.978 397.418C157.036 397.496 157.078 397.586 157.1 397.682C157.122 397.777 157.125 397.876 157.108 397.972L150.978 429.896C151.813 431.605 152.989 433.124 154.434 434.36C155.879 435.596 157.561 436.523 159.379 437.083C165.65 438.929 169.198 440.155 169.198 443.961C169.198 447.768 165.508 448.581 155.004 449.703C153.659 449.856 152.306 449.938 150.952 449.948ZM134.178 396.605L133.029 428.49C133.032 428.604 133 428.716 132.939 428.812C131.468 431.393 127.687 438.916 127.984 441.6C128.307 444.516 132.784 445.251 132.836 445.251H132.965C133.081 445.251 144.204 449.445 154.785 448.31C165.572 447.161 167.689 446.426 167.689 443.961C167.689 441.496 165.482 440.374 158.862 438.425C156.807 437.807 154.907 436.757 153.29 435.347C151.672 433.936 150.374 432.197 149.481 430.244C149.443 430.118 149.443 429.984 149.481 429.857L155.546 398.385L134.178 396.605Z" fill="#263238"/>
<path d="M154.914 449.045C165.236 447.948 168.204 447.187 168.475 444.439C162.215 445.889 155.757 446.29 149.365 445.626C141.825 444.682 134.492 442.502 127.661 439.174C127.402 439.982 127.292 440.83 127.338 441.677C127.725 445.161 132.771 445.948 132.771 445.948C132.771 445.948 144.036 450.219 154.914 449.045Z" fill="#263238"/>
<path d="M150.952 449.948C144.682 449.856 138.468 448.75 132.552 446.671C131.855 446.555 127.029 445.574 126.603 441.806C126.553 440.873 126.667 439.938 126.939 439.045C126.967 438.946 127.016 438.854 127.083 438.776C127.149 438.698 127.232 438.636 127.326 438.593C127.42 438.545 127.524 438.521 127.629 438.521C127.734 438.521 127.838 438.545 127.932 438.593C134.697 441.878 141.955 444.032 149.417 444.967C155.726 445.645 162.105 445.248 168.282 443.793C168.391 443.768 168.505 443.771 168.613 443.8C168.721 443.829 168.82 443.884 168.901 443.961C168.983 444.033 169.046 444.123 169.086 444.224C169.127 444.324 169.143 444.433 169.134 444.542C168.798 447.974 164.979 448.709 154.94 449.78C153.614 449.905 152.283 449.961 150.952 449.948ZM128.139 440.219C128.034 440.68 127.999 441.154 128.035 441.625C128.358 444.542 132.836 445.277 132.887 445.277H133.016C133.132 445.277 144.255 449.471 154.836 448.335C163.353 447.432 166.45 446.761 167.443 445.354C161.479 446.654 155.342 446.972 149.275 446.296C141.953 445.401 134.819 443.349 128.139 440.219Z" fill="#263238"/>
<path d="M93.0415 221.024C93.0415 221.024 66.5244 234.547 60.421 241.18C54.3175 247.812 59.1306 253.903 61.4791 260.793C63.8275 267.684 94.9383 307.156 97.3255 309.014C99.7126 310.872 111.907 305.04 128.359 297.878C144.811 290.717 148.772 287.801 148.772 283.826C148.772 279.852 127.507 215.437 126.191 212.534C124.875 209.63 99.932 216.985 93.0415 221.024Z" fill="white"/>
<path d="M98.7075 310.059C98.0676 310.101 97.4321 309.928 96.901 309.569C95.0299 308.111 63.3514 268.277 60.7707 261.026C60.3061 259.735 59.7384 258.367 59.1964 257.077C56.9641 251.812 54.6543 246.354 59.8545 240.702C65.9451 234.083 91.3524 221.063 92.6557 220.405C99.1849 216.65 121.121 209.927 125.689 211.372C125.922 211.428 126.14 211.535 126.327 211.684C126.514 211.834 126.666 212.022 126.773 212.237C128.244 215.463 149.419 279.8 149.419 283.813C149.419 288.278 145.135 291.298 128.579 298.511C126.308 299.491 124.115 300.459 122.024 301.388C109.508 306.924 102.204 310.047 98.7075 310.059ZM124.102 212.495C118.618 212.495 99.9462 217.837 93.3912 221.631C93.1331 221.76 66.9128 235.167 60.9771 241.631C56.3834 246.625 58.319 251.206 60.5771 256.522C61.132 257.813 61.6998 259.18 62.1772 260.561C64.6676 267.761 95.9461 307.014 97.7913 308.447C99.6365 309.879 110.218 305.092 121.547 300.098L128.115 297.22C143.599 290.472 148.116 287.452 148.116 283.813C148.116 280.407 127.354 216.714 125.586 212.843C125.366 212.598 124.812 212.495 124.102 212.495Z" fill="#263238"/>
<path d="M85.7513 273.761L103.52 274.471L79.6479 269.799C79.6479 269.799 62.9376 262.328 62.9376 253.438C62.9376 244.547 73.2605 241.36 73.2605 241.36L98.513 234.598L100.294 218.959C99.8937 218.959 98.7453 218.959 97.1452 219.062C95.7292 219.629 94.3501 220.284 93.0161 221.024C93.0161 221.024 66.499 234.547 60.3956 241.179C54.2921 247.812 59.1052 253.902 61.4537 260.793C63.8021 267.683 94.9129 307.156 97.3001 309.014C99.6872 310.872 111.881 305.039 128.333 297.878L128.85 297.646C124.127 298.6 108.965 302.317 104.204 298.239C99.2356 293.968 88.9256 283.31 88.9256 283.31L127.314 283.658L85.7513 273.761Z" fill="#58D96B"/>
<path opacity="0.5" d="M85.7513 273.761L103.52 274.471L79.6479 269.799C79.6479 269.799 62.9376 262.328 62.9376 253.438C62.9376 244.547 73.2605 241.36 73.2605 241.36L98.513 234.598L100.294 218.959C99.8937 218.959 98.7453 218.959 97.1452 219.062C95.7292 219.629 94.3501 220.284 93.0161 221.024C93.0161 221.024 66.499 234.547 60.3956 241.179C54.2921 247.812 59.1052 253.902 61.4537 260.793C63.8021 267.683 94.9129 307.156 97.3001 309.014C99.6872 310.872 111.881 305.039 128.333 297.878L128.85 297.646C124.127 298.6 108.965 302.317 104.204 298.239C99.2356 293.968 88.9256 283.31 88.9256 283.31L127.314 283.658L85.7513 273.761Z" fill="white"/>
<path d="M85.6211 224.946C88.8253 229.732 92.9751 233.811 97.8151 236.933C106.293 242.237 111.867 241.179 114.783 235.862C117.171 231.527 113.351 218.675 111.88 214.146C104.564 216.133 96.5118 219.01 93.0407 221.023C93.0407 221.023 89.9696 222.597 85.6211 224.946Z" fill="#263238"/>
<path d="M107.531 241.115C104.641 241.115 101.26 239.915 97.4405 237.527C92.5275 234.34 88.3095 230.192 85.0401 225.333C84.9836 225.254 84.9452 225.163 84.9273 225.067C84.9095 224.972 84.9128 224.873 84.9369 224.779C84.9613 224.684 85.0047 224.595 85.0646 224.517C85.1245 224.439 85.1996 224.375 85.2853 224.327C89.5693 222.004 92.692 220.456 92.7178 220.391C96.0986 218.443 103.918 215.591 111.686 213.462C111.861 213.417 112.046 213.44 112.204 213.526C112.362 213.612 112.481 213.756 112.538 213.927C114.228 219.088 117.88 231.695 115.39 236.211C114.841 237.327 114.063 238.316 113.107 239.111C112.151 239.907 111.038 240.493 109.841 240.831C109.087 241.025 108.31 241.12 107.531 241.115ZM86.6273 225.192C89.7418 229.623 93.6856 233.409 98.2406 236.34C102.808 239.192 106.615 240.211 109.557 239.476C110.569 239.182 111.508 238.679 112.313 237.999C113.118 237.318 113.77 236.476 114.228 235.527C116.409 231.592 112.938 219.54 111.48 214.998C104.125 217.036 96.6276 219.785 93.4146 221.63C93.3243 221.656 90.5371 223.075 86.6273 225.192Z" fill="#263238"/>
<path d="M109.74 210.946C109.145 211.632 108.697 212.432 108.424 213.298C108.151 214.163 108.059 215.076 108.153 215.979C108.682 218.637 111.34 228.973 111.069 232.418C110.798 235.863 107.624 236.405 100.991 233.708C94.3588 231.011 90.1264 223.385 89.0554 221.514C87.9844 219.643 83.752 208.52 83.752 208.52L86.6682 206.662C86.6682 206.662 89.5973 211.165 96.746 211.165C103.895 211.165 108.953 207.449 109.74 209.049C110.527 210.649 109.74 210.946 109.74 210.946Z" fill="white"/>
<path d="M107.597 236.134C105.222 235.97 102.897 235.38 100.732 234.392C96.293 232.624 92.2025 228.469 88.5379 222.056L88.4476 221.901C87.3766 220.017 83.2861 209.255 83.1054 208.804C83.0494 208.654 83.0457 208.49 83.0949 208.337C83.1441 208.185 83.2433 208.054 83.3764 207.965L86.2926 206.107C86.4491 206.009 86.6377 205.975 86.8184 206.014C86.9992 206.052 87.1577 206.16 87.2604 206.313C87.3765 206.481 90.0863 210.507 96.7446 210.507C99.8297 210.417 102.88 209.829 105.777 208.765C108.048 208.017 109.648 207.475 110.345 208.765C110.545 209.075 110.676 209.425 110.729 209.79C110.783 210.155 110.757 210.527 110.655 210.881C110.559 211.123 110.393 211.33 110.177 211.475C109.668 212.07 109.285 212.762 109.05 213.51C108.815 214.257 108.733 215.044 108.81 215.823C108.926 216.391 109.132 217.294 109.39 218.404C110.345 222.611 111.971 229.643 111.739 232.456C111.74 233.057 111.592 233.648 111.308 234.178C111.025 234.707 110.614 235.157 110.113 235.489C109.354 235.942 108.48 236.166 107.597 236.134ZM84.6152 208.843C85.4668 211.075 88.7701 219.643 89.6605 221.204L89.7508 221.359C93.2477 227.501 97.1188 231.45 101.248 233.101C106.345 235.127 108.487 234.882 109.403 234.314C109.714 234.096 109.965 233.803 110.134 233.463C110.303 233.123 110.384 232.746 110.371 232.366C110.577 229.785 108.926 222.585 108.048 218.727C107.79 217.604 107.584 216.688 107.468 216.146C107.35 215.136 107.445 214.112 107.747 213.141C108.05 212.169 108.552 211.272 109.222 210.507C109.269 210.45 109.326 210.401 109.39 210.365C109.396 210.031 109.302 209.703 109.119 209.423C108.124 209.493 107.147 209.728 106.229 210.12C103.186 211.232 99.983 211.843 96.7446 211.926C94.8294 212.014 92.9186 211.677 91.1493 210.938C89.3801 210.2 87.7964 209.079 86.512 207.655L84.6152 208.843Z" fill="#263238"/>
<path d="M97.5331 222.533L109.74 210.92L109.353 208.739C107.882 208.21 103.172 211.178 96.746 211.178C89.5973 211.178 86.6682 206.675 86.6682 206.675L83.752 208.533C83.752 208.533 87.9973 219.669 89.0554 221.527C90.1135 223.385 94.3588 231.076 100.991 233.721C101.662 233.992 102.282 234.224 102.901 234.418L97.5331 222.533Z" fill="#58D96B"/>
<path opacity="0.5" d="M97.5331 222.533L109.74 210.92L109.353 208.739C107.882 208.21 103.172 211.178 96.746 211.178C89.5973 211.178 86.6682 206.675 86.6682 206.675L83.752 208.533C83.752 208.533 87.9973 219.669 89.0554 221.527C90.1135 223.385 94.3588 231.076 100.991 233.721C101.662 233.992 102.282 234.224 102.901 234.418L97.5331 222.533Z" fill="white"/>
<path d="M72.8867 199.797L78.4482 206.958L85.6097 204.042L80.3063 194.235L72.8867 199.797Z" fill="#263238"/>
<path d="M78.4463 207.655C78.3423 207.656 78.2394 207.634 78.1455 207.589C78.0516 207.544 77.9691 207.479 77.9043 207.397L72.3299 200.21C72.2724 200.135 72.2303 200.05 72.2059 199.96C72.1815 199.869 72.1754 199.774 72.188 199.681C72.2177 199.498 72.3142 199.332 72.459 199.216L79.8915 193.655C79.9708 193.593 80.0628 193.549 80.161 193.527C80.2591 193.504 80.361 193.504 80.4593 193.526C80.5572 193.547 80.6494 193.589 80.7295 193.649C80.8097 193.709 80.876 193.786 80.9238 193.874L86.2272 203.681C86.3039 203.867 86.3039 204.076 86.2272 204.262C86.1958 204.352 86.1449 204.435 86.078 204.504C86.0111 204.574 85.9299 204.627 85.8401 204.662L78.6786 207.578C78.6065 207.618 78.5278 207.644 78.4463 207.655ZM73.8655 199.913L78.6786 206.094L84.6271 203.668L80.0722 195.255L73.8655 199.913Z" fill="#263238"/>
<path d="M82.4342 202.791C82.4342 202.791 74.4726 192.171 74.692 188.997C74.9113 185.822 91.5312 173.757 96.0475 174.558C100.564 175.358 107.661 188.855 107.661 188.855L111.648 192.842L110.358 196.558C110.358 196.558 117.158 205.965 116.358 207.294C115.558 208.623 109.467 212.327 102.035 213.927C94.6023 215.527 87.4537 210.739 87.4537 210.739C87.4537 210.739 82.4212 212.856 80.2921 211.539C78.163 210.223 75.2597 205.436 75.7888 204.378C76.3178 203.32 82.4342 202.791 82.4342 202.791Z" fill="white"/>
<path d="M98.8869 214.882C94.8282 214.75 90.8723 213.572 87.4026 211.462C86.1122 211.952 82.0347 213.372 79.9443 212.069C77.8539 210.765 74.3441 205.617 75.1699 204.004C75.6732 202.984 78.4733 202.442 81.1443 202.146C79.0798 199.307 73.8022 191.732 74.0473 188.868C74.2022 186.932 78.3442 183.474 80.7959 181.577C84.667 178.622 92.7835 173.19 96.2803 173.835C100.9 174.648 107.39 186.61 108.332 188.403L112.203 192.274C112.3 192.367 112.366 192.487 112.394 192.618C112.421 192.749 112.409 192.886 112.358 193.01L111.158 196.378C115.7 202.688 117.61 206.455 116.991 207.578C116.062 209.114 109.765 212.907 102.216 214.533C101.121 214.763 100.006 214.88 98.8869 214.882ZM87.4671 209.978C87.6049 209.977 87.7399 210.017 87.8542 210.094C87.9317 210.094 94.8609 214.688 101.906 213.178C109.507 211.552 115.184 207.849 115.778 206.868C115.868 205.991 112.758 200.984 109.803 196.907C109.736 196.815 109.692 196.708 109.676 196.596C109.661 196.483 109.673 196.368 109.713 196.262L110.887 192.958L107.21 189.294C107.16 189.239 107.116 189.178 107.081 189.113C105.158 185.448 99.3385 175.783 95.9707 175.177C93.8803 174.816 87.5833 178.106 81.6476 182.687C77.4668 185.9 75.5054 188.21 75.4409 188.984C75.2603 191.113 79.9701 198.287 82.9896 202.3C83.064 202.401 83.1104 202.52 83.124 202.645C83.1376 202.77 83.1179 202.896 83.067 203.01C83.0168 203.124 82.936 203.222 82.8334 203.293C82.7309 203.363 82.6107 203.404 82.4863 203.41C79.583 203.668 76.7829 204.236 76.3958 204.701C76.2667 205.449 78.6539 209.656 80.6798 210.92C82.1637 211.849 85.9832 210.585 87.1316 210.068C87.2336 210.009 87.3493 209.978 87.4671 209.978Z" fill="#263238"/>
<path d="M102.048 213.862C104.955 213.224 107.785 212.272 110.487 211.023C110.236 211.012 109.986 210.987 109.738 210.946C106.603 210.314 97.5315 208.275 94.0217 203.888C92.4746 201.801 90.7098 199.885 88.757 198.171L108.396 189.487L107.7 188.79C107.7 188.79 100.603 175.293 96.0863 174.493C91.57 173.693 74.9888 185.745 74.7307 188.932C74.4726 192.12 82.4729 202.713 82.4729 202.713C82.4729 202.713 76.3695 203.255 75.8404 204.313C75.3114 205.372 78.2276 210.146 80.3438 211.475C82.46 212.804 87.5054 210.675 87.5054 210.675C87.5054 210.675 94.6282 215.449 102.048 213.862Z" fill="#58D96B"/>
<path opacity="0.5" d="M102.048 213.862C104.955 213.224 107.785 212.272 110.487 211.023C110.236 211.012 109.986 210.987 109.738 210.946C106.603 210.314 97.5315 208.275 94.0217 203.888C92.4746 201.801 90.7098 199.885 88.757 198.171L108.396 189.487L107.7 188.79C107.7 188.79 100.603 175.293 96.0863 174.493C91.57 173.693 74.9888 185.745 74.7307 188.932C74.4726 192.12 82.4729 202.713 82.4729 202.713C82.4729 202.713 76.3695 203.255 75.8404 204.313C75.3114 205.372 78.2276 210.146 80.3438 211.475C82.46 212.804 87.5054 210.675 87.5054 210.675C87.5054 210.675 94.6282 215.449 102.048 213.862Z" fill="white"/>
<path d="M173.65 204.843L203.097 398.166L206.8 397.637L178.412 204.572C176.842 204.097 175.156 204.193 173.65 204.843Z" fill="#263238"/>
<path d="M203.098 398.927C202.93 398.929 202.766 398.87 202.638 398.761C202.51 398.652 202.426 398.5 202.401 398.333L172.968 204.946C172.946 204.787 172.978 204.625 173.06 204.486C173.142 204.348 173.269 204.242 173.419 204.185C175.095 203.463 176.975 203.376 178.71 203.94C178.819 203.987 178.915 204.062 178.987 204.157C179.059 204.252 179.106 204.363 179.123 204.482L207.511 397.533C207.525 397.626 207.521 397.72 207.499 397.811C207.477 397.902 207.437 397.987 207.382 398.062C207.266 398.207 207.1 398.304 206.917 398.333L203.201 398.862L203.098 398.927ZM174.439 205.372L203.678 397.379L206.014 397.043L177.807 205.114C176.681 204.905 175.52 204.994 174.439 205.372Z" fill="#263238"/>
<path d="M174.45 228.714C174.45 228.714 168.617 227.424 168.617 230.831C168.617 234.237 168.088 240.108 170.205 241.437C172.321 242.766 174.979 242.237 175.25 239.05C175.521 235.863 175.25 227.914 174.45 228.714Z" fill="#58D96B"/>
<path d="M172.398 242.792C171.481 242.778 170.586 242.505 169.817 242.005C167.688 240.715 167.778 236.366 167.868 232.572C167.868 231.94 167.868 231.347 167.868 230.805C167.853 230.384 167.936 229.965 168.111 229.582C168.286 229.199 168.547 228.862 168.875 228.598C170.462 227.308 173.404 227.772 174.32 227.953C174.492 227.896 174.678 227.896 174.849 227.953C176.398 228.663 175.895 238.934 175.895 239.037C175.889 239.719 175.703 240.387 175.357 240.973C175.01 241.56 174.514 242.045 173.92 242.379C173.452 242.633 172.93 242.774 172.398 242.792ZM172.101 229.127C171.292 229.065 170.484 229.26 169.791 229.682C169.625 229.815 169.495 229.987 169.411 230.183C169.328 230.379 169.295 230.593 169.314 230.805C169.314 231.347 169.314 231.966 169.314 232.598C169.249 235.514 169.159 239.915 170.604 240.818C170.999 241.106 171.46 241.29 171.945 241.353C172.43 241.416 172.923 241.356 173.378 241.179C173.755 240.95 174.064 240.625 174.275 240.237C174.486 239.85 174.59 239.414 174.578 238.973C174.798 235.761 174.681 232.534 174.23 229.346C173.529 229.21 172.815 229.145 172.101 229.153V229.127Z" fill="#263238"/>
<path d="M177.87 243.141C177.87 243.141 177.663 247.309 178.463 247.722C179.263 248.135 189.96 247.309 190.36 246.431C190.76 245.554 190.567 242.263 189.767 242.057C188.967 241.851 178.863 242.109 177.87 243.141Z" fill="#58D96B"/>
<path d="M179.987 248.534C179.365 248.577 178.74 248.512 178.141 248.341C177.354 247.928 177.019 246.173 177.174 243.115C177.175 242.947 177.24 242.786 177.354 242.663C178.722 241.231 189.393 241.282 189.948 241.373C190.143 241.438 190.321 241.545 190.468 241.688C190.616 241.831 190.729 242.006 190.8 242.198C191.335 243.651 191.403 245.235 190.993 246.728C190.892 246.887 190.76 247.026 190.605 247.134C190.45 247.243 190.275 247.319 190.09 247.36C186.771 248.094 183.386 248.487 179.987 248.534ZM178.838 247.102C182.513 247.162 186.183 246.812 189.78 246.057C189.96 244.953 189.863 243.822 189.497 242.766C188.206 242.598 180.154 242.895 178.554 243.54C178.458 244.735 178.554 245.937 178.838 247.102Z" fill="#263238"/>
<path d="M174.721 237.721C174.721 237.721 174.463 243.025 175.469 243.554C176.476 244.083 190.141 243.025 190.644 241.967C191.147 240.908 190.889 236.663 189.883 236.405C188.876 236.147 175.986 236.405 174.721 237.721Z" fill="#58D96B"/>
<path d="M177.328 244.392C176.594 244.446 175.856 244.372 175.148 244.173C173.986 243.566 173.857 240.302 174.012 237.721C174.022 237.552 174.09 237.393 174.206 237.269C175.844 235.553 189.367 235.566 190.064 235.747C190.285 235.82 190.485 235.944 190.651 236.107C190.816 236.27 190.942 236.469 191.019 236.689C191.671 238.486 191.761 240.439 191.277 242.289C191.038 242.658 190.662 242.918 190.232 243.011C185.986 243.891 181.664 244.353 177.328 244.392ZM175.406 238.095C175.234 239.734 175.383 241.391 175.844 242.973C176.993 243.308 188.542 242.405 190.038 241.566C190.387 240.573 190.103 237.476 189.613 237.037C188.374 236.779 177.277 237.192 175.406 238.095Z" fill="#263238"/>
<path d="M174.191 231.889C174.191 231.889 173.92 237.192 174.978 237.721C176.036 238.25 190.36 237.192 190.889 236.134C191.418 235.076 191.16 230.831 190.101 230.56C189.043 230.289 175.507 230.56 174.191 231.889Z" fill="#58D96B"/>
<path d="M176.901 238.495C176.154 238.535 175.405 238.487 174.669 238.353C173.456 237.747 173.379 234.482 173.482 231.902C173.493 231.727 173.567 231.562 173.688 231.437C175.405 229.721 189.547 229.747 190.27 229.927C190.505 230.003 190.719 230.132 190.896 230.305C191.073 230.477 191.207 230.688 191.289 230.921C191.95 232.704 192.031 234.65 191.521 236.482C190.837 237.824 181.353 238.495 176.901 238.495ZM174.863 232.276C174.785 234.56 174.992 236.779 175.34 237.128C176.489 237.476 188.773 236.547 190.308 235.721C190.657 234.753 190.373 231.618 189.857 231.218C188.76 230.985 176.85 231.347 174.863 232.276Z" fill="#263238"/>
<path d="M173.392 226.018C173.392 226.018 173.121 231.321 174.192 231.85C175.263 232.38 189.573 231.321 190.102 230.263C190.631 229.205 190.36 224.96 189.302 224.689C188.244 224.418 174.721 224.728 173.392 226.018Z" fill="#58D96B"/>
<path d="M176.102 232.663C175.344 232.687 174.587 232.622 173.844 232.469C172.631 231.863 172.554 228.598 172.67 226.018C172.678 225.846 172.752 225.685 172.876 225.566C174.58 223.85 188.722 223.876 189.445 224.056C189.68 224.132 189.894 224.261 190.071 224.433C190.248 224.606 190.382 224.817 190.464 225.05C191.125 226.833 191.206 228.779 190.696 230.611C190.038 231.979 180.554 232.663 176.102 232.663ZM174.076 226.443C173.9 228.076 174.058 229.726 174.541 231.295C175.702 231.644 187.986 230.702 189.522 229.889C189.87 228.921 189.522 225.785 189.07 225.385C188.038 225.153 176.063 225.502 174.076 226.443Z" fill="#263238"/>
<path d="M57.9043 250.625C58.2656 258.625 65.1949 264.316 69.5176 267.09C71.4817 268.354 73.7758 269.01 76.1114 268.974L153.198 267.955V250.986L69.9305 239.373C69.9305 239.373 63.311 239.631 61.5302 244.612" fill="white"/>
<path d="M75.9308 269.671C73.5139 269.678 71.1471 268.983 69.1176 267.671C64.8336 264.909 57.5946 259.025 57.2075 250.651C57.2005 250.465 57.2669 250.283 57.3924 250.146C57.518 250.008 57.6926 249.925 57.8785 249.915C57.9705 249.91 58.0625 249.923 58.1491 249.955C58.2358 249.986 58.3152 250.034 58.3827 250.097C58.4502 250.159 58.5043 250.235 58.5419 250.319C58.5794 250.403 58.5995 250.494 58.6011 250.586C58.9624 258.328 65.8143 263.89 69.8789 266.496C71.7185 267.707 73.8838 268.329 76.0856 268.277L152.54 267.271V251.593L69.866 239.979C69.9306 239.979 63.8271 240.302 62.2271 244.767C62.1967 244.853 62.1495 244.933 62.0883 245.001C62.0271 245.069 61.953 245.125 61.8703 245.164C61.7876 245.204 61.6979 245.227 61.6063 245.232C61.5147 245.236 61.4231 245.223 61.3367 245.192C61.1631 245.126 61.022 244.994 60.9427 244.826C60.8634 244.658 60.852 244.466 60.9109 244.289C62.8206 238.934 69.6467 238.599 69.9435 238.599L153.327 250.212C153.495 250.237 153.648 250.32 153.759 250.448C153.87 250.576 153.932 250.739 153.934 250.909V267.954C153.934 268.137 153.862 268.312 153.734 268.443C153.606 268.573 153.432 268.648 153.25 268.651L76.0985 269.671H75.9308Z" fill="#263238"/>
<path d="M69.9692 239.32C69.9692 239.32 63.3497 239.578 61.569 244.559L57.9043 250.624C58.2656 258.624 65.1949 264.315 69.5176 267.089C71.4817 268.353 73.7758 269.009 76.1114 268.973L153.198 267.954V255.05C151.598 253.218 150.075 251.54 149.03 250.392L147.262 250.134L143.301 263.734C143.301 263.734 97.0799 262.676 83.2213 260.186C69.3628 257.695 65.0917 254.856 64.7304 248.456C64.6567 246.595 65.1092 244.751 66.0358 243.135C66.9624 241.519 68.3257 240.197 69.9692 239.32Z" fill="#58D96B"/>
<path opacity="0.5" d="M69.9692 239.32C69.9692 239.32 63.3497 239.578 61.569 244.559L57.9043 250.624C58.2656 258.624 65.1949 264.315 69.5176 267.089C71.4817 268.353 73.7758 269.009 76.1114 268.973L153.198 267.954V255.05C151.598 253.218 150.075 251.54 149.03 250.392L147.262 250.134L143.301 263.734C143.301 263.734 97.0799 262.676 83.2213 260.186C69.3628 257.695 65.0917 254.856 64.7304 248.456C64.6567 246.595 65.1092 244.751 66.0358 243.135C66.9624 241.519 68.3257 240.197 69.9692 239.32Z" fill="white"/>
<path d="M147.662 248.87L147.133 273.761L172.553 268.496C172.553 268.496 185.547 269.554 188.463 269.296C191.38 269.038 193.767 264.78 193.767 262.664V257.89C194.347 257.46 194.817 256.899 195.14 256.253C195.463 255.608 195.629 254.895 195.625 254.173C195.367 252.057 191.121 250.728 191.121 250.728C191.121 250.728 178.927 248.07 175.469 248.87C172.011 249.67 147.662 248.87 147.662 248.87Z" fill="#58D96B"/>
<path d="M147.134 274.496C146.974 274.498 146.819 274.443 146.696 274.341C146.615 274.273 146.551 274.188 146.506 274.092C146.462 273.996 146.438 273.892 146.438 273.786L146.967 248.856C146.976 248.671 147.055 248.497 147.186 248.366C147.249 248.296 147.327 248.242 147.414 248.209C147.502 248.175 147.596 248.163 147.689 248.173C156.102 248.443 172.696 248.805 175.355 248.173C178.916 247.347 190.839 249.927 191.304 250.031C191.768 250.134 196.052 251.579 196.362 254.069C196.406 254.869 196.259 255.667 195.934 256.399C195.609 257.13 195.114 257.774 194.491 258.276V262.728C194.491 265.051 191.91 269.735 188.542 270.057C185.716 270.315 173.922 269.373 172.619 269.27L147.25 274.548L147.134 274.496ZM148.347 249.592L147.857 272.935L172.451 267.773H172.658C172.787 267.773 185.561 268.818 188.439 268.573C190.955 268.341 193.11 264.444 193.11 262.638V257.863C193.11 257.755 193.136 257.648 193.185 257.551C193.235 257.455 193.306 257.372 193.394 257.308C193.394 257.308 195.188 255.915 194.981 254.237C194.813 252.947 192.194 251.76 190.955 251.373C187.665 250.663 178.374 248.895 175.677 249.527C172.464 250.289 152.464 249.721 148.347 249.592Z" fill="#263238"/>
<path d="M69.4411 202.984L113.985 182.571C113.985 182.571 115.843 181.28 112.926 180.971C109.991 180.96 107.062 181.228 104.178 181.771C104.178 181.771 94.771 168.39 92.9129 167.861C91.0548 167.332 89.9967 167.861 89.7386 168.932L89.4676 169.99C89.4676 169.99 74.2155 174.338 68.3701 182.029C62.5247 189.719 69.4411 202.984 69.4411 202.984Z" fill="#58D96B"/>
<path d="M69.4394 203.681C69.3118 203.682 69.1866 203.647 69.0774 203.581C68.9682 203.515 68.8791 203.42 68.8201 203.307C68.5233 202.752 61.7876 189.565 67.8136 181.616C73.2718 174.429 86.3949 170.183 88.8853 169.435L89.053 168.751C89.1217 168.452 89.2511 168.171 89.4331 167.925C89.6151 167.678 89.8459 167.472 90.1111 167.319C90.5765 167.099 91.081 166.975 91.595 166.953C92.109 166.931 92.6222 167.011 93.1048 167.19C94.9758 167.732 101.983 177.513 104.486 181.01C107.288 180.479 110.137 180.232 112.989 180.274C113.841 180.351 114.989 180.558 115.235 181.448C115.48 182.339 114.576 183.01 114.396 183.139H114.28L69.7233 203.552C69.6426 203.621 69.5443 203.666 69.4394 203.681ZM91.5951 168.351C91.3254 168.34 91.0579 168.403 90.8208 168.532C90.7151 168.591 90.6234 168.672 90.5521 168.77C90.4808 168.868 90.4316 168.981 90.4079 169.099L90.1498 170.158C90.1188 170.277 90.0573 170.386 89.9713 170.474C89.8853 170.562 89.7779 170.627 89.6595 170.661C89.5047 170.661 74.5493 175.048 68.9362 182.455C64.1102 188.816 68.5491 199.436 69.762 202.068L113.635 181.964L113.776 181.835C113.482 181.749 113.179 181.692 112.873 181.668C110.003 181.662 107.139 181.925 104.318 182.455C104.187 182.479 104.052 182.465 103.928 182.415C103.805 182.365 103.698 182.28 103.621 182.171C99.1179 175.719 93.8145 168.932 92.7306 168.532C92.3617 168.422 91.9799 168.361 91.5951 168.351Z" fill="#263238"/>
<path d="M90.95 189.887C90.8323 189.886 90.7167 189.856 90.6132 189.799C90.5098 189.743 90.4216 189.663 90.3564 189.564C89.9435 188.919 86.3047 183.113 86.3047 180.403C86.3047 177.938 89.6467 175.848 91.1178 175.048L89.4532 171.719C89.3711 171.548 89.3602 171.351 89.4232 171.172C89.4861 170.993 89.6176 170.846 89.7887 170.764C89.9598 170.682 90.1565 170.671 90.3356 170.734C90.5147 170.797 90.6614 170.928 90.7436 171.099L92.7307 175.048C92.8024 175.221 92.8024 175.416 92.7307 175.59C92.7029 175.679 92.6562 175.76 92.5938 175.829C92.5315 175.898 92.4549 175.953 92.3694 175.99C91.1694 176.57 87.7241 178.571 87.7241 180.403C87.7241 182.39 90.4984 187.139 91.5952 188.803C91.6923 188.961 91.7238 189.151 91.6828 189.332C91.6418 189.513 91.5316 189.67 91.3758 189.771C91.2476 189.849 91.1 189.889 90.95 189.887Z" fill="#263238"/>
<path d="M76.4742 196.029C76.3487 196.026 76.2259 195.992 76.1175 195.929C76.0091 195.866 75.9186 195.776 75.8548 195.668C75.7129 195.397 72.2676 189.1 72.2676 185.667C72.3853 183.308 73.2945 181.058 74.8483 179.28C74.9788 179.151 75.155 179.078 75.3387 179.078C75.5223 179.078 75.6985 179.151 75.829 179.28C75.959 179.413 76.0319 179.591 76.0319 179.777C76.0319 179.962 75.959 180.141 75.829 180.273C74.5079 181.795 73.7236 183.708 73.5967 185.719C73.5967 188.79 76.9903 194.971 77.0161 195.035C77.0617 195.116 77.0909 195.204 77.1019 195.296C77.113 195.388 77.1057 195.481 77.0804 195.569C77.0552 195.658 77.0126 195.741 76.955 195.813C76.8975 195.886 76.8261 195.946 76.7452 195.99C76.6579 196.019 76.5661 196.032 76.4742 196.029Z" fill="#263238"/>
<path d="M69.8912 199.759C69.745 199.745 69.6068 199.686 69.4962 199.589C69.3857 199.493 69.3084 199.364 69.2755 199.221C69.2426 199.078 69.2558 198.928 69.313 198.793C69.3703 198.658 69.4687 198.544 69.5944 198.468L95.2598 186.623C95.4309 186.544 95.6263 186.536 95.8029 186.602C95.9796 186.667 96.1231 186.8 96.2018 186.971C96.2805 187.142 96.288 187.337 96.2227 187.514C96.1573 187.691 96.0245 187.834 95.8534 187.913L70.1751 199.771C70.0805 199.785 69.9842 199.781 69.8912 199.759Z" fill="#263238"/>
<path d="M245.487 426.024C245.487 425.276 245.577 424.515 245.577 423.753C245.577 405.688 228.609 391.068 207.666 391.068C186.723 391.068 169.742 405.701 169.742 423.753C169.742 424.515 169.742 425.276 169.845 426.024H245.487Z" fill="white"/>
<path d="M245.484 426.76H169.843C169.667 426.76 169.497 426.694 169.368 426.574C169.238 426.455 169.159 426.29 169.146 426.115C169.082 425.237 169.043 424.502 169.043 423.792C169.043 405.391 186.373 390.41 207.664 390.41C228.955 390.41 246.284 405.391 246.284 423.792C246.284 424.489 246.284 425.237 246.181 426.115C246.165 426.289 246.085 426.452 245.957 426.571C245.828 426.69 245.66 426.757 245.484 426.76ZM170.488 425.366H244.813C244.813 424.786 244.813 424.282 244.813 423.792C244.813 406.153 228.116 391.817 207.599 391.817C187.082 391.817 170.372 406.153 170.372 423.792C170.437 424.282 170.462 424.798 170.488 425.366Z" fill="#263238"/>
<path d="M245.487 429.173C245.487 428.412 245.577 427.663 245.577 426.902C245.577 408.837 228.609 394.217 207.666 394.217C186.723 394.217 169.742 408.85 169.742 426.902C169.742 427.663 169.742 428.412 169.845 429.173H245.487Z" fill="white"/>
<path d="M245.484 429.896H169.843C169.667 429.896 169.497 429.83 169.368 429.71C169.238 429.59 169.159 429.426 169.146 429.25C169.082 428.373 169.043 427.625 169.043 426.928C169.043 408.514 186.373 393.546 207.664 393.546C228.955 393.546 246.284 408.514 246.284 426.928C246.284 427.625 246.284 428.36 246.181 429.25C246.165 429.425 246.085 429.588 245.957 429.707C245.828 429.826 245.66 429.893 245.484 429.896ZM170.488 428.489H244.813C244.813 427.921 244.813 427.405 244.813 426.928C244.813 409.288 228.116 394.94 207.599 394.94C187.082 394.94 170.437 409.25 170.437 426.902C170.437 427.392 170.462 427.896 170.488 428.463V428.489Z" fill="#263238"/>
<path d="M207.665 394.217C194.761 394.217 183.367 399.778 176.516 408.269L185.406 415.288C187.952 412.13 191.173 409.581 194.833 407.83C198.493 406.079 202.498 405.17 206.555 405.17C210.612 405.17 214.618 406.079 218.278 407.83C221.938 409.581 225.159 412.13 227.704 415.288L239.318 408.837C232.479 400.023 220.853 394.217 207.665 394.217Z" fill="#58D96B"/>
<path d="M227.704 415.998C227.599 415.999 227.495 415.975 227.4 415.928C227.306 415.881 227.224 415.812 227.162 415.727C224.682 412.649 221.543 410.165 217.977 408.459C214.411 406.753 210.508 405.867 206.555 405.867C202.602 405.867 198.699 406.753 195.133 408.459C191.567 410.165 188.428 412.649 185.948 415.727C185.834 415.869 185.669 415.96 185.488 415.982C185.307 416.004 185.125 415.954 184.98 415.843L176.077 408.81C175.933 408.696 175.84 408.529 175.819 408.346C175.804 408.161 175.86 407.977 175.973 407.83C183.2 398.875 195.045 393.52 207.665 393.52C220.569 393.52 232.634 399.094 239.821 408.41C239.879 408.492 239.921 408.584 239.943 408.681C239.965 408.779 239.967 408.88 239.95 408.978C239.93 409.078 239.889 409.173 239.829 409.256C239.769 409.338 239.691 409.406 239.601 409.456L227.988 415.907C227.9 415.956 227.804 415.987 227.704 415.998ZM206.555 404.475C210.619 404.468 214.635 405.354 218.319 407.071C222.003 408.788 225.264 411.294 227.872 414.411L238.195 408.643C231.214 400.036 219.872 394.926 207.652 394.926C195.716 394.926 184.503 399.868 177.496 408.178L185.238 414.333C187.856 411.233 191.121 408.744 194.804 407.041C198.487 405.337 202.498 404.462 206.555 404.475Z" fill="#263238"/>
<path d="M218.014 428.205C217.914 425.217 216.656 422.385 214.508 420.307C212.359 418.229 209.486 417.067 206.497 417.067C203.508 417.067 200.635 418.229 198.486 420.307C196.338 422.385 195.08 425.217 194.98 428.205C194.98 428.527 194.98 428.85 194.98 429.173H217.91C217.988 428.85 218.014 428.527 218.014 428.205Z" fill="#263238"/>
<path d="M217.963 429.896H195.033C194.857 429.893 194.689 429.826 194.561 429.707C194.432 429.588 194.352 429.425 194.336 429.25C194.336 428.915 194.336 428.579 194.336 428.231C194.439 425.06 195.771 422.054 198.05 419.848C200.329 417.642 203.377 416.408 206.549 416.408C209.721 416.408 212.769 417.642 215.048 419.848C217.328 422.054 218.66 425.06 218.763 428.231C218.763 428.579 218.763 428.915 218.763 429.25C218.757 429.347 218.73 429.441 218.686 429.527C218.642 429.613 218.58 429.688 218.505 429.749C218.429 429.81 218.342 429.854 218.249 429.879C218.156 429.905 218.058 429.91 217.963 429.896ZM195.691 428.489H217.317V428.231C217.317 425.363 216.178 422.613 214.15 420.585C212.122 418.557 209.372 417.418 206.504 417.418C203.636 417.418 200.886 418.557 198.858 420.585C196.83 422.613 195.691 425.363 195.691 428.231V428.489Z" fill="#263238"/>
</svg>
