<svg width="375" height="83" viewBox="0 0 375 83" fill="none" xmlns="http://www.w3.org/2000/svg">
<g filter="url(#filter0_dd_2172_13579)">
<rect x="2" y="1.26367" width="371.176" height="78.9074" rx="10.3825" fill="white"/>
<path d="M41.34 20.6767C41.147 20.355 40.7994 20.1582 40.4242 20.1582H30.1C29.2699 20.1582 28.7572 21.0638 29.1843 21.7756L40.7178 40.9981C40.9108 41.3198 41.2584 41.5166 41.6335 41.5166H51.9578C52.7879 41.5166 53.3006 40.611 52.8735 39.8992L41.34 20.6767Z" fill="#C52229"/>
<path fill-rule="evenodd" clip-rule="evenodd" d="M40.425 19.0908H30.1008C28.4406 19.0908 27.4151 20.902 28.2693 22.3255L39.8028 41.5481C40.1888 42.1914 40.884 42.585 41.6343 42.585H51.9585C53.6187 42.585 54.6441 40.7739 53.79 39.3503L42.2565 20.1278C41.8705 19.4845 41.1752 19.0908 40.425 19.0908ZM40.425 20.1587C40.8001 20.1587 41.1477 20.3556 41.3407 20.6772L52.8743 39.8998C53.3013 40.6116 52.7886 41.5171 51.9585 41.5171H41.6343C41.2592 41.5171 40.9115 41.3203 40.7186 40.9986L29.185 21.7761C28.758 21.0643 29.2707 20.1587 30.1008 20.1587H40.425Z" fill="#9B0F15"/>
<path d="M52.4667 20.6767C52.6597 20.355 53.0073 20.1582 53.3824 20.1582H63.7066C64.5367 20.1582 65.0494 21.0638 64.6224 21.7756L53.0888 40.9981C52.8958 41.3198 52.5482 41.5166 52.1731 41.5166H41.8489C41.0188 41.5166 40.5061 40.611 40.9331 39.8992L52.4667 20.6767Z" fill="#F1333B"/>
<path fill-rule="evenodd" clip-rule="evenodd" d="M53.3816 19.0908H63.7059C65.3661 19.0908 66.3915 20.902 65.5373 22.3255L54.0038 41.5481C53.6178 42.1914 52.9226 42.585 52.1724 42.585H41.8481C40.1879 42.585 39.1625 40.7739 40.0167 39.3503L51.5502 20.1278C51.9362 19.4845 52.6314 19.0908 53.3816 19.0908ZM53.3816 20.1587C53.0065 20.1587 52.6589 20.3556 52.4659 20.6772L40.9324 39.8998C40.5053 40.6116 41.018 41.5171 41.8481 41.5171H52.1724C52.5475 41.5171 52.8951 41.3203 53.0881 40.9986L64.6216 21.7761C65.0487 21.0643 64.536 20.1587 63.7059 20.1587H53.3816Z" fill="#9B0F15"/>
<path fill-rule="evenodd" clip-rule="evenodd" d="M53.5785 20.7656C53.8335 20.9137 53.9202 21.2405 53.7721 21.4955L48.9665 29.7719C48.8184 30.0269 48.4917 30.1136 48.2366 29.9655C47.9816 29.8175 47.8949 29.4907 48.043 29.2357L52.8486 20.9593C52.9967 20.7043 53.3235 20.6176 53.5785 20.7656Z" fill="#FE666D"/>
<path fill-rule="evenodd" clip-rule="evenodd" d="M30.0836 20.7656C29.8286 20.9137 29.7419 21.2405 29.89 21.4955L34.6956 29.7719C34.8437 30.0269 35.1705 30.1136 35.4255 29.9655C35.6805 29.8175 35.7672 29.4907 35.6191 29.2357L30.8135 20.9593C30.6654 20.7043 30.3386 20.6176 30.0836 20.7656Z" fill="#DF3840"/>
<path d="M40.2294 21.9117C40.2294 22.2895 39.9306 22.5958 39.562 22.5958C39.1934 22.5958 38.8945 22.2895 38.8945 21.9117C38.8945 21.5338 39.1934 21.2275 39.562 21.2275C39.9306 21.2275 40.2294 21.5338 40.2294 21.9117Z" fill="#AA161D"/>
<path d="M37.8851 22.0785C37.8851 22.5485 37.5134 22.9295 37.0549 22.9295C36.5963 22.9295 36.2246 22.5485 36.2246 22.0785C36.2246 21.6085 36.5963 21.2275 37.0549 21.2275C37.5134 21.2275 37.8851 21.6085 37.8851 22.0785Z" fill="#AA161D"/>
<path d="M39.9613 24.5141C39.9613 24.9841 39.5896 25.3651 39.131 25.3651C38.6725 25.3651 38.3008 24.9841 38.3008 24.5141C38.3008 24.0441 38.6725 23.6631 39.131 23.6631C39.5896 23.6631 39.9613 24.0441 39.9613 24.5141Z" fill="#AA161D"/>
<path d="M41.8595 23.3552C41.8595 23.5902 41.6737 23.7807 41.4444 23.7807C41.2152 23.7807 41.0293 23.5902 41.0293 23.3552C41.0293 23.1202 41.2152 22.9297 41.4444 22.9297C41.6737 22.9297 41.8595 23.1202 41.8595 23.3552Z" fill="#AA161D"/>
<path d="M37.4709 24.0886C37.4709 24.3236 37.285 24.5141 37.0557 24.5141C36.8265 24.5141 36.6406 24.3236 36.6406 24.0886C36.6406 23.8536 36.8265 23.6631 37.0557 23.6631C37.285 23.6631 37.4709 23.8536 37.4709 24.0886Z" fill="#AA161D"/>
<path d="M35.1564 21.486C35.1564 21.721 34.9706 21.9115 34.7413 21.9115C34.512 21.9115 34.3262 21.721 34.3262 21.486C34.3262 21.251 34.512 21.0605 34.7413 21.0605C34.9706 21.0605 35.1564 21.251 35.1564 21.486Z" fill="#AA161D"/>
<path d="M41.4455 26.3249C41.4455 26.5599 41.2596 26.7504 41.0304 26.7504C40.8011 26.7504 40.6152 26.5599 40.6152 26.3249C40.6152 26.0899 40.8011 25.8994 41.0304 25.8994C41.2596 25.8994 41.4455 26.0899 41.4455 26.3249Z" fill="#AA161D"/>
<path d="M39.3088 26.7507C39.3088 26.9857 39.1229 27.1762 38.8936 27.1762C38.6644 27.1762 38.4785 26.9857 38.4785 26.7507C38.4785 26.5157 38.6644 26.3252 38.8936 26.3252C39.1229 26.3252 39.3088 26.5157 39.3088 26.7507Z" fill="#AA161D"/>
<path d="M43.4508 25.2071C43.4508 25.5896 43.1483 25.8996 42.7752 25.8996C42.4021 25.8996 42.0996 25.5896 42.0996 25.2071C42.0996 24.8247 42.4021 24.5146 42.7752 24.5146C43.1483 24.5146 43.4508 24.8247 43.4508 25.2071Z" fill="#AA161D"/>
<path d="M44.3283 27.1755C44.3283 27.4105 44.1424 27.601 43.9132 27.601C43.6839 27.601 43.498 27.4105 43.498 27.1755C43.498 26.9405 43.6839 26.75 43.9132 26.75C44.1424 26.75 44.3283 26.9405 44.3283 27.1755Z" fill="#AA161D"/>
<path d="M61.324 46.8554C61.324 54.8176 54.8694 61.2723 46.9071 61.2723C38.9449 61.2723 32.4902 54.8176 32.4902 46.8554C32.4902 38.8931 38.9449 32.4385 46.9071 32.4385C54.8694 32.4385 61.324 38.8931 61.324 46.8554Z" fill="#FFBB0D"/>
<path fill-rule="evenodd" clip-rule="evenodd" d="M62.3915 46.8559C62.3915 55.408 55.4587 62.3407 46.9067 62.3407C38.3547 62.3407 31.4219 55.408 31.4219 46.8559C31.4219 38.3039 38.3547 31.3711 46.9067 31.3711C55.4587 31.3711 62.3915 38.3039 62.3915 46.8559ZM46.9067 61.2728C54.8689 61.2728 61.3236 54.8182 61.3236 46.8559C61.3236 38.8937 54.8689 32.439 46.9067 32.439C38.9445 32.439 32.4898 38.8937 32.4898 46.8559C32.4898 54.8182 38.9445 61.2728 46.9067 61.2728Z" fill="#E89B05"/>
<path fill-rule="evenodd" clip-rule="evenodd" d="M33.5585 47.3906C33.2636 47.3906 33.0245 47.1516 33.0245 46.8567C33.0245 39.1893 39.2401 32.9737 46.9074 32.9737C47.2023 32.9737 47.4414 33.2128 47.4414 33.5077C47.4414 33.8026 47.2023 34.0416 46.9074 34.0416C39.8299 34.0416 34.0924 39.7791 34.0924 46.8567C34.0924 47.1516 33.8534 47.3906 33.5585 47.3906Z" fill="#E8AA0A"/>
<path fill-rule="evenodd" clip-rule="evenodd" d="M60.254 46.3223C60.5489 46.3223 60.788 46.5613 60.788 46.8562C60.788 54.5236 54.5724 60.7392 46.9051 60.7392C46.6102 60.7392 46.3711 60.5001 46.3711 60.2052C46.3711 59.9103 46.6102 59.6713 46.9051 59.6713C53.9826 59.6713 59.7201 53.9338 59.7201 46.8562C59.7201 46.5613 59.9591 46.3223 60.254 46.3223Z" fill="#E8AA0A"/>
<path d="M57.5849 46.8559C57.5849 52.7539 52.8037 57.5351 46.9058 57.5351C41.0078 57.5351 36.2266 52.7539 36.2266 46.8559C36.2266 40.958 41.0078 36.1768 46.9058 36.1768C52.8037 36.1768 57.5849 40.958 57.5849 46.8559Z" fill="#FFDD28"/>
<path fill-rule="evenodd" clip-rule="evenodd" d="M58.6544 46.8565C58.6544 53.3442 53.395 58.6036 46.9073 58.6036C40.4195 58.6036 35.1602 53.3442 35.1602 46.8565C35.1602 40.3687 40.4195 35.1094 46.9073 35.1094C53.395 35.1094 58.6544 40.3687 58.6544 46.8565ZM46.9073 57.5357C52.8052 57.5357 57.5865 52.7544 57.5865 46.8565C57.5865 40.9585 52.8052 36.1773 46.9073 36.1773C41.0093 36.1773 36.2281 40.9585 36.2281 46.8565C36.2281 52.7544 41.0093 57.5357 46.9073 57.5357Z" fill="#E89B05"/>
<path fill-rule="evenodd" clip-rule="evenodd" d="M46.9075 55.934C51.9208 55.934 55.9848 51.87 55.9848 46.8567C55.9848 46.5618 56.2239 46.3228 56.5188 46.3228C56.8137 46.3228 57.0527 46.5618 57.0527 46.8567C57.0527 52.4598 52.5106 57.002 46.9075 57.002C46.6126 57.002 46.3735 56.7629 46.3735 56.468C46.3735 56.1731 46.6126 55.934 46.9075 55.934Z" fill="#ECC704"/>
<path fill-rule="evenodd" clip-rule="evenodd" d="M46.9069 37.7779C41.8937 37.7779 37.8296 41.8419 37.8296 46.8552C37.8296 47.1501 37.5906 47.3892 37.2957 47.3892C37.0008 47.3892 36.7617 47.1501 36.7617 46.8552C36.7617 41.2521 41.3039 36.71 46.9069 36.71C47.2018 36.71 47.4409 36.949 47.4409 37.2439C47.4409 37.5388 47.2018 37.7779 46.9069 37.7779Z" fill="#FFEF9C"/>
<path d="M41.0332 45.4687L44.7042 44.7211L45.8055 42.8523L46.9068 40.9834L49.1093 44.7211L52.7803 45.4687L49.8435 48.4588L50.5777 52.1965L46.9068 50.3277L43.2358 52.1965L43.97 48.4588L41.0332 45.4687Z" fill="#FFEF9C"/>
<path fill-rule="evenodd" clip-rule="evenodd" d="M44.7038 44.7207L46.9063 40.983L49.1089 44.7207L52.7799 45.4682L49.8431 48.4584L50.5773 52.1961L46.9063 50.3273L43.2354 52.1961L43.9696 48.4584L41.0328 45.4682L44.7038 44.7207ZM42.8132 48.805L40.2709 46.2165C39.9966 45.9372 39.8971 45.5303 40.0115 45.1559C40.126 44.7816 40.4361 44.4999 40.8197 44.4218L44.025 43.7691L45.9863 40.4408C46.1783 40.115 46.5282 39.915 46.9063 39.915C47.2845 39.915 47.6344 40.115 47.8264 40.4408L49.7877 43.7691L52.993 44.4218C53.3766 44.4999 53.6867 44.7816 53.8011 45.1559C53.9156 45.5303 53.8161 45.9372 53.5418 46.2165L50.9995 48.805L51.6252 51.9903C51.704 52.3912 51.547 52.802 51.221 53.0482C50.8949 53.2945 50.457 53.3332 50.0928 53.1478L46.9063 51.5256L43.7199 53.1478C43.3557 53.3332 42.9177 53.2945 42.5917 53.0482C42.2657 52.802 42.1087 52.3912 42.1875 51.9903L42.8132 48.805Z" fill="#E89B05"/>
<path d="M74.449 33.7178V29.1872H75.9798C76.3353 29.1872 76.6258 29.2514 76.8515 29.3797C77.0786 29.5065 77.2467 29.6783 77.3558 29.8951C77.465 30.1119 77.5195 30.3538 77.5195 30.6207C77.5195 30.8876 77.465 31.1302 77.3558 31.3485C77.2482 31.5668 77.0815 31.7408 76.8559 31.8706C76.6302 31.9989 76.3412 32.0631 75.9887 32.0631H74.8915V31.5764H75.971C76.2143 31.5764 76.4098 31.5343 76.5572 31.4503C76.7047 31.3662 76.8116 31.2527 76.878 31.1096C76.9458 30.9651 76.9798 30.8021 76.9798 30.6207C76.9798 30.4393 76.9458 30.2771 76.878 30.134C76.8116 29.991 76.704 29.8789 76.555 29.7978C76.4061 29.7152 76.2084 29.6739 75.9622 29.6739H74.9976V33.7178H74.449ZM78.3325 33.7178V30.3198H78.8369V30.8331H78.8723C78.9342 30.665 79.0463 30.5285 79.2085 30.4238C79.3708 30.3191 79.5536 30.2668 79.7572 30.2668C79.7955 30.2668 79.8434 30.2675 79.901 30.269C79.9585 30.2704 80.002 30.2727 80.0315 30.2756V30.8065C80.0138 30.8021 79.9732 30.7955 79.9098 30.7866C79.8479 30.7763 79.7822 30.7711 79.7129 30.7711C79.5477 30.7711 79.4003 30.8058 79.2705 30.8751C79.1422 30.9429 79.0404 31.0373 78.9652 31.1583C78.8915 31.2777 78.8546 31.4141 78.8546 31.5675V33.7178H78.3325ZM81.9273 33.7886C81.6206 33.7886 81.3514 33.7156 81.1199 33.5696C80.8898 33.4236 80.7099 33.2193 80.5801 32.9568C80.4518 32.6943 80.3876 32.3875 80.3876 32.0365C80.3876 31.6826 80.4518 31.3736 80.5801 31.1096C80.7099 30.8456 80.8898 30.6406 81.1199 30.4946C81.3514 30.3486 81.6206 30.2756 81.9273 30.2756C82.2341 30.2756 82.5025 30.3486 82.7326 30.4946C82.9641 30.6406 83.144 30.8456 83.2723 31.1096C83.4021 31.3736 83.467 31.6826 83.467 32.0365C83.467 32.3875 83.4021 32.6943 83.2723 32.9568C83.144 33.2193 82.9641 33.4236 82.7326 33.5696C82.5025 33.7156 82.2341 33.7886 81.9273 33.7886ZM81.9273 33.3196C82.1603 33.3196 82.3521 33.2599 82.5025 33.1404C82.6529 33.0209 82.7643 32.8639 82.8365 32.6692C82.9088 32.4745 82.9449 32.2636 82.9449 32.0365C82.9449 31.8094 82.9088 31.5978 82.8365 31.4016C82.7643 31.2055 82.6529 31.0469 82.5025 30.926C82.3521 30.8051 82.1603 30.7446 81.9273 30.7446C81.6943 30.7446 81.5026 30.8051 81.3522 30.926C81.2017 31.0469 81.0904 31.2055 81.0181 31.4016C80.9458 31.5978 80.9097 31.8094 80.9097 32.0365C80.9097 32.2636 80.9458 32.4745 81.0181 32.6692C81.0904 32.8639 81.2017 33.0209 81.3522 33.1404C81.5026 33.2599 81.6943 33.3196 81.9273 33.3196ZM85.547 33.7886C85.2639 33.7886 85.0139 33.717 84.7971 33.574C84.5803 33.4295 84.4107 33.2259 84.2883 32.9634C84.1659 32.6994 84.1047 32.3875 84.1047 32.0277C84.1047 31.6708 84.1659 31.3611 84.2883 31.0985C84.4107 30.836 84.581 30.6332 84.7993 30.4902C85.0176 30.3471 85.2698 30.2756 85.5559 30.2756C85.7771 30.2756 85.9519 30.3125 86.0802 30.3862C86.2099 30.4585 86.3088 30.5411 86.3766 30.634C86.4459 30.7254 86.4997 30.8006 86.5381 30.8596H86.5823V29.1872H87.1044V33.7178H86.6V33.1957H86.5381C86.4997 33.2576 86.4452 33.3358 86.3744 33.4302C86.3036 33.5231 86.2026 33.6064 86.0713 33.6802C85.9401 33.7524 85.7653 33.7886 85.547 33.7886ZM85.6178 33.3196C85.8272 33.3196 86.0042 33.265 86.1487 33.1559C86.2933 33.0453 86.4031 32.8926 86.4784 32.698C86.5536 32.5018 86.5912 32.2754 86.5912 32.0188C86.5912 31.7651 86.5543 31.5432 86.4806 31.3529C86.4068 31.1612 86.2977 31.0123 86.1532 30.9061C86.0086 30.7984 85.8302 30.7446 85.6178 30.7446C85.3966 30.7446 85.2122 30.8014 85.0648 30.9149C84.9188 31.027 84.8089 31.1797 84.7351 31.3729C84.6629 31.5646 84.6267 31.7799 84.6267 32.0188C84.6267 32.2607 84.6636 32.4804 84.7374 32.678C84.8126 32.8742 84.9232 33.0305 85.0692 33.147C85.2167 33.2621 85.3995 33.3196 85.6178 33.3196ZM90.2745 32.3285V30.3198H90.7965V33.7178H90.2745V33.1426H90.2391C90.1594 33.3152 90.0356 33.4619 89.8674 33.5828C89.6993 33.7023 89.4869 33.762 89.2303 33.762C89.0179 33.762 88.8292 33.7156 88.664 33.6226C88.4988 33.5283 88.369 33.3867 88.2747 33.1979C88.1803 33.0077 88.1331 32.768 88.1331 32.4789V30.3198H88.6551V32.4436C88.6551 32.6913 88.7245 32.8889 88.8631 33.0364C89.0032 33.1839 89.1816 33.2576 89.3984 33.2576C89.5282 33.2576 89.6602 33.2245 89.7944 33.1581C89.9301 33.0917 90.0437 32.99 90.1351 32.8528C90.228 32.7157 90.2745 32.5409 90.2745 32.3285ZM93.1332 33.7886C92.8146 33.7886 92.5403 33.7133 92.3102 33.5629C92.0802 33.4125 91.9032 33.2053 91.7793 32.9413C91.6554 32.6773 91.5935 32.3757 91.5935 32.0365C91.5935 31.6914 91.6569 31.3869 91.7837 31.1229C91.912 30.8574 92.0905 30.6502 92.3191 30.5012C92.5492 30.3508 92.8176 30.2756 93.1243 30.2756C93.3632 30.2756 93.5786 30.3198 93.7703 30.4083C93.962 30.4968 94.1191 30.6207 94.2415 30.78C94.3639 30.9393 94.4398 31.1251 94.4693 31.3375H93.9473C93.9074 31.1826 93.819 31.0454 93.6818 30.926C93.5461 30.8051 93.3632 30.7446 93.1332 30.7446C92.9297 30.7446 92.7512 30.7977 92.5978 30.9039C92.4459 31.0086 92.3272 31.1568 92.2417 31.3485C92.1576 31.5388 92.1156 31.7622 92.1156 32.0188C92.1156 32.2813 92.1569 32.5099 92.2394 32.7046C92.3235 32.8993 92.4415 33.0504 92.5934 33.1581C92.7468 33.2657 92.9267 33.3196 93.1332 33.3196C93.2689 33.3196 93.392 33.296 93.5026 33.2488C93.6132 33.2016 93.7069 33.1338 93.7836 33.0453C93.8602 32.9568 93.9148 32.8506 93.9473 32.7267H94.4693C94.4398 32.9273 94.3668 33.1079 94.2503 33.2687C94.1353 33.428 93.9827 33.5548 93.7924 33.6492C93.6036 33.7421 93.3839 33.7886 93.1332 33.7886ZM96.7103 30.3198V30.7623H94.9494V30.3198H96.7103ZM95.4626 29.5058H95.9847V32.7444C95.9847 32.8919 96.0061 33.0025 96.0488 33.0762C96.0931 33.1485 96.1491 33.1972 96.217 33.2222C96.2863 33.2458 96.3593 33.2576 96.436 33.2576C96.4935 33.2576 96.5407 33.2547 96.5776 33.2488C96.6144 33.2414 96.6439 33.2355 96.666 33.2311L96.7722 33.7001C96.7368 33.7133 96.6874 33.7266 96.624 33.7399C96.5606 33.7546 96.4802 33.762 96.3829 33.762C96.2354 33.762 96.0909 33.7303 95.9493 33.6669C95.8092 33.6035 95.6927 33.5069 95.5998 33.3771C95.5083 33.2473 95.4626 33.0836 95.4626 32.886V29.5058ZM100.628 33.7886C100.321 33.7886 100.052 33.7156 99.8206 33.5696C99.5906 33.4236 99.4106 33.2193 99.2809 32.9568C99.1525 32.6943 99.0884 32.3875 99.0884 32.0365C99.0884 31.6826 99.1525 31.3736 99.2809 31.1096C99.4106 30.8456 99.5906 30.6406 99.8206 30.4946C100.052 30.3486 100.321 30.2756 100.628 30.2756C100.935 30.2756 101.203 30.3486 101.433 30.4946C101.665 30.6406 101.845 30.8456 101.973 31.1096C102.103 31.3736 102.168 31.6826 102.168 32.0365C102.168 32.3875 102.103 32.6943 101.973 32.9568C101.845 33.2193 101.665 33.4236 101.433 33.5696C101.203 33.7156 100.935 33.7886 100.628 33.7886ZM100.628 33.3196C100.861 33.3196 101.053 33.2599 101.203 33.1404C101.354 33.0209 101.465 32.8639 101.537 32.6692C101.61 32.4745 101.646 32.2636 101.646 32.0365C101.646 31.8094 101.61 31.5978 101.537 31.4016C101.465 31.2055 101.354 31.0469 101.203 30.926C101.053 30.8051 100.861 30.7446 100.628 30.7446C100.395 30.7446 100.203 30.8051 100.053 30.926C99.9025 31.0469 99.7911 31.2055 99.7189 31.4016C99.6466 31.5978 99.6105 31.8094 99.6105 32.0365C99.6105 32.2636 99.6466 32.4745 99.7189 32.6692C99.7911 32.8639 99.9025 33.0209 100.053 33.1404C100.203 33.2599 100.395 33.3196 100.628 33.3196ZM104.478 30.3198V30.7623H102.646V30.3198H104.478ZM103.195 33.7178V29.8509C103.195 29.6562 103.24 29.494 103.332 29.3642C103.423 29.2344 103.542 29.1371 103.688 29.0722C103.834 29.0073 103.988 28.9748 104.15 28.9748C104.279 28.9748 104.383 28.9852 104.465 29.0058C104.546 29.0265 104.606 29.0456 104.646 29.0633L104.496 29.5146C104.469 29.5058 104.432 29.4947 104.385 29.4814C104.339 29.4682 104.279 29.4615 104.204 29.4615C104.031 29.4615 103.906 29.505 103.83 29.592C103.754 29.6791 103.717 29.8066 103.717 29.9747V33.7178H103.195ZM108.439 30.3198V30.7623H106.678V30.3198H108.439ZM107.192 29.5058H107.714V32.7444C107.714 32.8919 107.735 33.0025 107.778 33.0762C107.822 33.1485 107.878 33.1972 107.946 33.2222C108.015 33.2458 108.088 33.2576 108.165 33.2576C108.223 33.2576 108.27 33.2547 108.307 33.2488C108.343 33.2414 108.373 33.2355 108.395 33.2311L108.501 33.7001C108.466 33.7133 108.416 33.7266 108.353 33.7399C108.29 33.7546 108.209 33.762 108.112 33.762C107.964 33.762 107.82 33.7303 107.678 33.6669C107.538 33.6035 107.422 33.5069 107.329 33.3771C107.237 33.2473 107.192 33.0836 107.192 32.886V29.5058ZM109.82 31.6737V33.7178H109.298V29.1872H109.82V30.8508H109.864C109.944 30.6753 110.063 30.5359 110.222 30.4327C110.383 30.328 110.597 30.2756 110.864 30.2756C111.095 30.2756 111.298 30.3221 111.472 30.415C111.646 30.5064 111.781 30.6473 111.877 30.8375C111.974 31.0263 112.023 31.2667 112.023 31.5587V33.7178H111.501V31.5941C111.501 31.3242 111.431 31.1155 111.291 30.968C111.152 30.8191 110.96 30.7446 110.713 30.7446C110.542 30.7446 110.389 30.7807 110.253 30.853C110.119 30.9253 110.013 31.0307 109.935 31.1693C109.858 31.308 109.82 31.4761 109.82 31.6737ZM114.403 33.7886C114.075 33.7886 113.793 33.7163 113.556 33.5718C113.32 33.4258 113.137 33.2222 113.009 32.9612C112.882 32.6987 112.819 32.3934 112.819 32.0454C112.819 31.6973 112.882 31.3905 113.009 31.1251C113.137 30.8581 113.316 30.6502 113.545 30.5012C113.775 30.3508 114.043 30.2756 114.35 30.2756C114.527 30.2756 114.701 30.3051 114.874 30.3641C115.047 30.4231 115.204 30.5189 115.345 30.6517C115.487 30.7829 115.6 30.957 115.684 31.1738C115.768 31.3905 115.81 31.6575 115.81 31.9746V32.1958H113.191V31.7445H115.279C115.279 31.5528 115.241 31.3817 115.164 31.2313C115.089 31.0808 114.981 30.9621 114.841 30.8751C114.702 30.7881 114.539 30.7446 114.35 30.7446C114.142 30.7446 113.962 30.7962 113.81 30.8994C113.66 31.0012 113.544 31.1339 113.463 31.2976C113.382 31.4613 113.341 31.6368 113.341 31.8241V32.125C113.341 32.3816 113.385 32.5991 113.474 32.7776C113.564 32.9546 113.688 33.0895 113.848 33.1824C114.007 33.2739 114.192 33.3196 114.403 33.3196C114.54 33.3196 114.664 33.3004 114.774 33.2621C114.887 33.2222 114.983 33.1633 115.064 33.0851C115.145 33.0054 115.208 32.9066 115.252 32.7887L115.757 32.9302C115.704 33.1013 115.614 33.2517 115.489 33.3815C115.364 33.5098 115.209 33.6101 115.024 33.6824C114.84 33.7532 114.633 33.7886 114.403 33.7886ZM119.639 33.7886C119.356 33.7886 119.106 33.717 118.889 33.574C118.672 33.4295 118.503 33.2259 118.38 32.9634C118.258 32.6994 118.197 32.3875 118.197 32.0277C118.197 31.6708 118.258 31.3611 118.38 31.0985C118.503 30.836 118.673 30.6332 118.891 30.4902C119.11 30.3471 119.362 30.2756 119.648 30.2756C119.869 30.2756 120.044 30.3125 120.172 30.3862C120.302 30.4585 120.401 30.5411 120.469 30.634C120.538 30.7254 120.592 30.8006 120.63 30.8596H120.674V29.1872H121.196V33.7178H120.692V33.1957H120.63C120.592 33.2576 120.537 33.3358 120.466 33.4302C120.396 33.5231 120.295 33.6064 120.163 33.6802C120.032 33.7524 119.857 33.7886 119.639 33.7886ZM119.71 33.3196C119.919 33.3196 120.096 33.265 120.241 33.1559C120.385 33.0453 120.495 32.8926 120.57 32.698C120.646 32.5018 120.683 32.2754 120.683 32.0188C120.683 31.7651 120.646 31.5432 120.573 31.3529C120.499 31.1612 120.39 31.0123 120.245 30.9061C120.101 30.7984 119.922 30.7446 119.71 30.7446C119.489 30.7446 119.304 30.8014 119.157 30.9149C119.011 31.027 118.901 31.1797 118.827 31.3729C118.755 31.5646 118.719 31.7799 118.719 32.0188C118.719 32.2607 118.756 32.4804 118.829 32.678C118.905 32.8742 119.015 33.0305 119.161 33.147C119.309 33.2621 119.492 33.3196 119.71 33.3196ZM123.225 33.7974C123.01 33.7974 122.814 33.7569 122.639 33.6757C122.463 33.5932 122.324 33.4744 122.221 33.3196C122.117 33.1633 122.066 32.9745 122.066 32.7533C122.066 32.5586 122.104 32.4008 122.181 32.2798C122.258 32.1574 122.36 32.0616 122.488 31.9923C122.617 31.9229 122.758 31.8713 122.913 31.8374C123.069 31.802 123.227 31.774 123.384 31.7533C123.591 31.7268 123.758 31.7069 123.886 31.6936C124.016 31.6789 124.111 31.6545 124.17 31.6206C124.23 31.5867 124.26 31.5277 124.26 31.4436V31.4259C124.26 31.2077 124.201 31.0381 124.081 30.9171C123.963 30.7962 123.784 30.7357 123.544 30.7357C123.294 30.7357 123.099 30.7903 122.957 30.8994C122.816 31.0086 122.716 31.1251 122.659 31.249L122.163 31.072C122.252 30.8655 122.37 30.7048 122.517 30.5897C122.666 30.4732 122.828 30.3921 123.004 30.3464C123.181 30.2992 123.355 30.2756 123.526 30.2756C123.635 30.2756 123.76 30.2889 123.902 30.3154C124.045 30.3405 124.183 30.3929 124.316 30.4725C124.45 30.5521 124.561 30.6723 124.65 30.8331C124.738 30.9938 124.782 31.2091 124.782 31.479V33.7178H124.26V33.2576H124.234C124.198 33.3314 124.139 33.4103 124.057 33.4943C123.974 33.5784 123.864 33.6499 123.727 33.7089C123.59 33.7679 123.423 33.7974 123.225 33.7974ZM123.305 33.3284C123.511 33.3284 123.685 33.2879 123.827 33.2068C123.97 33.1256 124.077 33.0209 124.15 32.8926C124.223 32.7643 124.26 32.6294 124.26 32.4878V32.01C124.238 32.0365 124.19 32.0608 124.114 32.083C124.041 32.1036 123.955 32.122 123.858 32.1383C123.762 32.153 123.668 32.1663 123.577 32.1781C123.487 32.1884 123.414 32.1973 123.358 32.2046C123.222 32.2223 123.095 32.2511 122.977 32.2909C122.861 32.3293 122.766 32.3875 122.694 32.4657C122.623 32.5424 122.588 32.6471 122.588 32.7798C122.588 32.9612 122.655 33.0984 122.789 33.1913C122.925 33.2827 123.097 33.3284 123.305 33.3284ZM125.95 34.992C125.861 34.992 125.783 34.9846 125.713 34.9699C125.644 34.9566 125.596 34.9433 125.569 34.9301L125.702 34.4699C125.829 34.5024 125.941 34.5142 126.038 34.5053C126.136 34.4965 126.222 34.453 126.297 34.3748C126.374 34.2981 126.444 34.1735 126.507 34.0009L126.605 33.7355L125.348 30.3198H125.915L126.852 33.0276H126.888L127.826 30.3198H128.392L126.95 34.2133C126.885 34.3888 126.805 34.5341 126.709 34.6491C126.613 34.7656 126.501 34.8519 126.375 34.9079C126.249 34.964 126.108 34.992 125.95 34.992Z" fill="#97A0AF"/>
<path d="M77.8292 50.7178H74.8959V41.6566H77.9222C78.81 41.6566 79.5724 41.838 80.2096 42.2008C80.8467 42.5607 81.3348 43.0783 81.674 43.7538C82.0162 44.4263 82.1873 45.233 82.1873 46.1739C82.1873 47.1178 82.0147 47.9289 81.6696 48.6073C81.3275 49.2857 80.8319 49.8078 80.183 50.1736C79.5341 50.5364 78.7495 50.7178 77.8292 50.7178ZM76.263 49.5232H77.754C78.4442 49.5232 79.0179 49.3934 79.4751 49.1338C79.9323 48.8713 80.2744 48.4923 80.5016 47.9968C80.7287 47.4983 80.8422 46.8907 80.8422 46.1739C80.8422 45.4631 80.7287 44.8599 80.5016 44.3644C80.2774 43.8688 79.9426 43.4928 79.4972 43.2361C79.0518 42.9795 78.4988 42.8512 77.8381 42.8512H76.263V49.5232ZM85.7588 50.8682C85.3282 50.8682 84.9389 50.7886 84.5908 50.6293C84.2428 50.4671 83.967 50.2326 83.7634 49.9258C83.5629 49.6191 83.4626 49.243 83.4626 48.7976C83.4626 48.4141 83.5363 48.0985 83.6838 47.8508C83.8313 47.603 84.0304 47.4069 84.2811 47.2623C84.5318 47.1178 84.812 47.0087 85.1217 46.9349C85.4314 46.8612 85.747 46.8051 86.0685 46.7668C86.4756 46.7196 86.8059 46.6813 87.0596 46.6518C87.3133 46.6193 87.4976 46.5677 87.6127 46.4969C87.7277 46.4261 87.7852 46.3111 87.7852 46.1518V46.1208C87.7852 45.7344 87.6761 45.4351 87.4578 45.2227C87.2425 45.0103 86.921 44.9041 86.4933 44.9041C86.0479 44.9041 85.6969 45.0029 85.4403 45.2006C85.1866 45.3952 85.0111 45.612 84.9138 45.851L83.6705 45.5678C83.818 45.1549 84.0333 44.8215 84.3165 44.5679C84.6026 44.3113 84.9315 44.1254 85.3031 44.0104C85.6748 43.8924 86.0656 43.8334 86.4756 43.8334C86.7469 43.8334 87.0345 43.8659 87.3383 43.9308C87.6451 43.9927 87.9312 44.1077 88.1967 44.2759C88.4651 44.444 88.6848 44.6844 88.8559 44.997C89.027 45.3068 89.1125 45.7094 89.1125 46.2049V50.7178H87.8206V49.7887H87.7675C87.682 49.9597 87.5537 50.1279 87.3826 50.293C87.2115 50.4582 86.9918 50.5954 86.7234 50.7045C86.4549 50.8136 86.1334 50.8682 85.7588 50.8682ZM86.0464 49.8064C86.4122 49.8064 86.7248 49.7341 86.9844 49.5896C87.2469 49.445 87.446 49.2563 87.5817 49.0232C87.7203 48.7873 87.7896 48.5351 87.7896 48.2667V47.3906C87.7424 47.4378 87.651 47.4821 87.5153 47.5234C87.3826 47.5617 87.2307 47.5956 87.0596 47.6251C86.8885 47.6517 86.7219 47.6767 86.5597 47.7003C86.3974 47.721 86.2617 47.7387 86.1526 47.7534C85.896 47.7859 85.6615 47.8405 85.4491 47.9171C85.2397 47.9938 85.0716 48.1044 84.9448 48.249C84.8209 48.3905 84.7589 48.5793 84.7589 48.8153C84.7589 49.1427 84.8799 49.3905 85.1217 49.5586C85.3636 49.7238 85.6718 49.8064 86.0464 49.8064ZM90.8745 50.7178V43.9219H92.1974V50.7178H90.8745ZM91.5426 42.8733C91.3125 42.8733 91.1149 42.7967 90.9497 42.6433C90.7875 42.4869 90.7064 42.3011 90.7064 42.0858C90.7064 41.8675 90.7875 41.6817 90.9497 41.5283C91.1149 41.372 91.3125 41.2938 91.5426 41.2938C91.7727 41.2938 91.9688 41.372 92.1311 41.5283C92.2962 41.6817 92.3788 41.8675 92.3788 42.0858C92.3788 42.3011 92.2962 42.4869 92.1311 42.6433C91.9688 42.7967 91.7727 42.8733 91.5426 42.8733ZM95.3 41.6566V50.7178H93.9771V41.6566H95.3ZM97.9159 53.2662C97.7183 53.2662 97.5384 53.25 97.3762 53.2175C97.2139 53.1881 97.093 53.1556 97.0134 53.1202L97.3319 52.0362C97.5738 52.1011 97.7891 52.1292 97.9779 52.1203C98.1666 52.1115 98.3333 52.0407 98.4778 51.9079C98.6253 51.7752 98.7551 51.5584 98.8672 51.2575L99.0309 50.8063L96.5444 43.9219H97.9602L99.6813 49.1958H99.752L101.473 43.9219H102.893L100.093 51.6248C99.9629 51.9787 99.7978 52.2781 99.5972 52.5229C99.3966 52.7707 99.1577 52.9565 98.8804 53.0804C98.6032 53.2043 98.2817 53.2662 97.9159 53.2662ZM107.434 50.7178V43.9219H108.757V50.7178H107.434ZM108.102 42.8733C107.872 42.8733 107.674 42.7967 107.509 42.6433C107.347 42.4869 107.266 42.3011 107.266 42.0858C107.266 41.8675 107.347 41.6817 107.509 41.5283C107.674 41.372 107.872 41.2938 108.102 41.2938C108.332 41.2938 108.528 41.372 108.69 41.5283C108.856 41.6817 108.938 41.8675 108.938 42.0858C108.938 42.3011 108.856 42.4869 108.69 42.6433C108.528 42.7967 108.332 42.8733 108.102 42.8733ZM111.859 46.6827V50.7178H110.536V43.9219H111.806V45.028H111.89C112.047 44.6682 112.291 44.3791 112.625 44.1608C112.961 43.9426 113.384 43.8334 113.895 43.8334C114.358 43.8334 114.763 43.9308 115.111 44.1254C115.459 44.3172 115.729 44.6033 115.921 44.9838C116.113 45.3643 116.209 45.8347 116.209 46.3952V50.7178H114.886V46.5544C114.886 46.0618 114.757 45.6769 114.501 45.3997C114.244 45.1195 113.892 44.9794 113.443 44.9794C113.137 44.9794 112.864 45.0457 112.625 45.1784C112.389 45.3112 112.202 45.5059 112.063 45.7625C111.927 46.0161 111.859 46.3229 111.859 46.6827ZM121.217 43.9219V44.9838H117.377V43.9219H121.217ZM118.43 50.7178V43.1344C118.43 42.7096 118.522 42.3572 118.708 42.077C118.894 41.7938 119.14 41.5829 119.447 41.4443C119.754 41.3027 120.087 41.2319 120.447 41.2319C120.713 41.2319 120.94 41.254 121.128 41.2983C121.317 41.3396 121.457 41.3779 121.549 41.4133L121.239 42.484C121.177 42.4663 121.097 42.4457 121 42.4221C120.903 42.3955 120.785 42.3822 120.646 42.3822C120.325 42.3822 120.095 42.4619 119.956 42.6212C119.82 42.7804 119.752 43.0105 119.752 43.3114V50.7178H118.43ZM125.177 50.8549C124.54 50.8549 123.984 50.7089 123.509 50.4169C123.034 50.1249 122.665 49.7164 122.403 49.1914C122.14 48.6663 122.009 48.0528 122.009 47.3508C122.009 46.6459 122.14 46.0294 122.403 45.5014C122.665 44.9735 123.034 44.5635 123.509 44.2715C123.984 43.9794 124.54 43.8334 125.177 43.8334C125.814 43.8334 126.37 43.9794 126.845 44.2715C127.32 44.5635 127.688 44.9735 127.951 45.5014C128.213 46.0294 128.345 46.6459 128.345 47.3508C128.345 48.0528 128.213 48.6663 127.951 49.1914C127.688 49.7164 127.32 50.1249 126.845 50.4169C126.37 50.7089 125.814 50.8549 125.177 50.8549ZM125.181 49.7444C125.594 49.7444 125.936 49.6353 126.208 49.417C126.479 49.1987 126.68 48.9082 126.809 48.5454C126.942 48.1826 127.008 47.7829 127.008 47.3464C127.008 46.9128 126.942 46.5146 126.809 46.1518C126.68 45.7861 126.479 45.4926 126.208 45.2714C125.936 45.0501 125.594 44.9395 125.181 44.9395C124.765 44.9395 124.42 45.0501 124.146 45.2714C123.875 45.4926 123.672 45.7861 123.54 46.1518C123.41 46.5146 123.345 46.9128 123.345 47.3464C123.345 47.7829 123.41 48.1826 123.54 48.5454C123.672 48.9082 123.875 49.1987 124.146 49.417C124.42 49.6353 124.765 49.7444 125.181 49.7444ZM133.119 53.2662V43.9219H134.41V45.0236H134.521C134.598 44.882 134.708 44.7183 134.853 44.5325C134.997 44.3467 135.198 44.1844 135.455 44.0458C135.711 43.9042 136.05 43.8334 136.472 43.8334C137.021 43.8334 137.51 43.9721 137.941 44.2493C138.372 44.5266 138.709 44.9263 138.954 45.4483C139.202 45.9704 139.326 46.5987 139.326 47.3331C139.326 48.0676 139.204 48.6973 138.959 49.2223C138.714 49.7444 138.378 50.147 137.95 50.4302C137.522 50.7104 137.034 50.8505 136.485 50.8505C136.073 50.8505 135.735 50.7812 135.472 50.6426C135.213 50.5039 135.009 50.3417 134.862 50.1559C134.714 49.9701 134.601 49.8049 134.521 49.6603H134.441V53.2662H133.119ZM134.415 47.3198C134.415 47.7977 134.484 48.2165 134.623 48.5764C134.761 48.9362 134.962 49.2179 135.225 49.4214C135.487 49.622 135.809 49.7223 136.189 49.7223C136.584 49.7223 136.915 49.6176 137.18 49.4082C137.446 49.1958 137.646 48.9082 137.782 48.5454C137.92 48.1826 137.99 47.7741 137.99 47.3198C137.99 46.8715 137.922 46.4689 137.786 46.112C137.654 45.7551 137.453 45.4734 137.185 45.2669C136.919 45.0605 136.587 44.9572 136.189 44.9572C135.806 44.9572 135.481 45.056 135.216 45.2537C134.953 45.4513 134.754 45.7271 134.618 46.081C134.483 46.435 134.415 46.8479 134.415 47.3198ZM140.808 50.7178V43.9219H142.087V45.0015H142.158C142.281 44.6357 142.5 44.3481 142.812 44.1387C143.128 43.9263 143.485 43.8202 143.883 43.8202C143.966 43.8202 144.063 43.8231 144.175 43.829C144.29 43.8349 144.38 43.8423 144.445 43.8511V45.1165C144.392 45.1018 144.297 45.0855 144.162 45.0678C144.026 45.0472 143.89 45.0369 143.755 45.0369C143.442 45.0369 143.163 45.1032 142.919 45.236C142.677 45.3657 142.485 45.5471 142.343 45.7802C142.202 46.0102 142.131 46.2727 142.131 46.5677V50.7178H140.808ZM148.209 50.8549C147.572 50.8549 147.016 50.7089 146.541 50.4169C146.066 50.1249 145.697 49.7164 145.435 49.1914C145.172 48.6663 145.041 48.0528 145.041 47.3508C145.041 46.6459 145.172 46.0294 145.435 45.5014C145.697 44.9735 146.066 44.5635 146.541 44.2715C147.016 43.9794 147.572 43.8334 148.209 43.8334C148.846 43.8334 149.402 43.9794 149.877 44.2715C150.352 44.5635 150.721 44.9735 150.983 45.5014C151.246 46.0294 151.377 46.6459 151.377 47.3508C151.377 48.0528 151.246 48.6663 150.983 49.1914C150.721 49.7164 150.352 50.1249 149.877 50.4169C149.402 50.7089 148.846 50.8549 148.209 50.8549ZM148.213 49.7444C148.626 49.7444 148.968 49.6353 149.24 49.417C149.511 49.1987 149.712 48.9082 149.842 48.5454C149.974 48.1826 150.041 47.7829 150.041 47.3464C150.041 46.9128 149.974 46.5146 149.842 46.1518C149.712 45.7861 149.511 45.4926 149.24 45.2714C148.968 45.0501 148.626 44.9395 148.213 44.9395C147.798 44.9395 147.452 45.0501 147.178 45.2714C146.907 45.4926 146.705 45.7861 146.572 46.1518C146.442 46.5146 146.377 46.9128 146.377 47.3464C146.377 47.7829 146.442 48.1826 146.572 48.5454C146.705 48.9082 146.907 49.1987 147.178 49.417C147.452 49.6353 147.798 49.7444 148.213 49.7444ZM155.397 50.8505C154.849 50.8505 154.359 50.7104 153.929 50.4302C153.501 50.147 153.165 49.7444 152.92 49.2223C152.678 48.6973 152.557 48.0676 152.557 47.3331C152.557 46.5987 152.679 45.9704 152.924 45.4483C153.172 44.9263 153.511 44.5266 153.942 44.2493C154.373 43.9721 154.861 43.8334 155.406 43.8334C155.828 43.8334 156.167 43.9042 156.424 44.0458C156.684 44.1844 156.884 44.3467 157.026 44.5325C157.17 44.7183 157.282 44.882 157.362 45.0236H157.442V41.6566H158.764V50.7178H157.473V49.6603H157.362C157.282 49.8049 157.167 49.9701 157.017 50.1559C156.869 50.3417 156.666 50.5039 156.406 50.6426C156.147 50.7812 155.81 50.8505 155.397 50.8505ZM155.69 49.7223C156.07 49.7223 156.392 49.622 156.654 49.4214C156.919 49.2179 157.12 48.9362 157.256 48.5764C157.394 48.2165 157.464 47.7977 157.464 47.3198C157.464 46.8479 157.396 46.435 157.26 46.081C157.124 45.7271 156.925 45.4513 156.663 45.2537C156.4 45.056 156.076 44.9572 155.69 44.9572C155.291 44.9572 154.959 45.0605 154.694 45.2669C154.429 45.4734 154.228 45.7551 154.092 46.112C153.96 46.4689 153.893 46.8715 153.893 47.3198C153.893 47.7741 153.961 48.1826 154.097 48.5454C154.232 48.9082 154.433 49.1958 154.698 49.4082C154.967 49.6176 155.297 49.7223 155.69 49.7223ZM164.957 47.8994V43.9219H166.285V50.7178H164.984V49.5409H164.913C164.757 49.9037 164.506 50.206 164.161 50.4479C163.819 50.6868 163.393 50.8063 162.882 50.8063C162.446 50.8063 162.059 50.7104 161.723 50.5187C161.39 50.324 161.127 50.0364 160.936 49.6559C160.747 49.2754 160.653 48.805 160.653 48.2445V43.9219H161.975V48.0853C161.975 48.5484 162.104 48.9171 162.36 49.1914C162.617 49.4657 162.95 49.6028 163.36 49.6028C163.608 49.6028 163.854 49.5409 164.099 49.417C164.347 49.2931 164.552 49.1058 164.714 48.8551C164.879 48.6044 164.96 48.2858 164.957 47.8994ZM170.925 50.8549C170.267 50.8549 169.701 50.706 169.226 50.4081C168.754 50.1072 168.391 49.6928 168.137 49.1648C167.884 48.6368 167.757 48.0322 167.757 47.3508C167.757 46.6606 167.887 46.0515 168.146 45.5235C168.406 44.9926 168.772 44.5782 169.244 44.2803C169.716 43.9824 170.272 43.8334 170.912 43.8334C171.428 43.8334 171.888 43.9293 172.292 44.121C172.696 44.3098 173.022 44.5753 173.27 44.9174C173.52 45.2596 173.669 45.6592 173.717 46.1164H172.429C172.358 45.7979 172.196 45.5235 171.942 45.2935C171.692 45.0634 171.355 44.9484 170.934 44.9484C170.565 44.9484 170.242 45.0457 169.965 45.2404C169.69 45.4321 169.477 45.7064 169.323 46.0633C169.17 46.4173 169.093 46.8361 169.093 47.3198C169.093 47.8154 169.168 48.2431 169.319 48.6029C169.469 48.9628 169.682 49.2415 169.956 49.4391C170.233 49.6367 170.559 49.7356 170.934 49.7356C171.184 49.7356 171.412 49.6898 171.615 49.5984C171.822 49.504 171.994 49.3698 172.133 49.1958C172.274 49.0218 172.373 48.8123 172.429 48.5675H173.717C173.669 49.007 173.526 49.3993 173.287 49.7444C173.049 50.0895 172.729 50.3609 172.327 50.5585C171.929 50.7561 171.462 50.8549 170.925 50.8549ZM178.304 43.9219V44.9838H174.592V43.9219H178.304ZM175.587 42.2938H176.91V48.7224C176.91 48.979 176.948 49.1722 177.025 49.302C177.102 49.4288 177.2 49.5158 177.321 49.563C177.445 49.6073 177.579 49.6294 177.724 49.6294C177.83 49.6294 177.923 49.622 178.003 49.6073C178.082 49.5925 178.144 49.5807 178.189 49.5719L178.427 50.6647C178.351 50.6942 178.242 50.7237 178.1 50.7532C177.959 50.7856 177.782 50.8033 177.569 50.8063C177.221 50.8122 176.897 50.7502 176.596 50.6204C176.295 50.4907 176.052 50.2901 175.866 50.0187C175.68 49.7474 175.587 49.4067 175.587 48.9967V42.2938ZM188.157 45.5811L186.958 45.7934C186.908 45.6401 186.828 45.4941 186.719 45.3554C186.613 45.2168 186.468 45.1032 186.285 45.0147C186.102 44.9263 185.874 44.882 185.599 44.882C185.225 44.882 184.912 44.9661 184.661 45.1342C184.411 45.2994 184.285 45.5132 184.285 45.7757C184.285 46.0029 184.369 46.1857 184.538 46.3244C184.706 46.463 184.977 46.5766 185.352 46.665L186.431 46.9128C187.057 47.0573 187.523 47.28 187.829 47.5809C188.136 47.8817 188.289 48.2726 188.289 48.7533C188.289 49.1604 188.171 49.5232 187.935 49.8417C187.702 50.1574 187.377 50.4051 186.958 50.585C186.542 50.765 186.06 50.8549 185.511 50.8549C184.75 50.8549 184.129 50.6927 183.648 50.3682C183.167 50.0408 182.873 49.5763 182.763 48.9746L184.042 48.7799C184.122 49.1132 184.285 49.3654 184.533 49.5365C184.781 49.7046 185.104 49.7887 185.502 49.7887C185.936 49.7887 186.282 49.6987 186.542 49.5188C186.801 49.3359 186.931 49.1132 186.931 48.8507C186.931 48.6383 186.852 48.4599 186.692 48.3153C186.536 48.1708 186.296 48.0617 185.971 47.9879L184.821 47.7357C184.187 47.5912 183.718 47.3611 183.414 47.0455C183.113 46.7299 182.962 46.3303 182.962 45.8465C182.962 45.4454 183.075 45.0944 183.299 44.7935C183.523 44.4927 183.833 44.2582 184.228 44.0901C184.623 43.919 185.076 43.8334 185.586 43.8334C186.321 43.8334 186.899 43.9927 187.321 44.3113C187.742 44.6269 188.021 45.0501 188.157 45.5811ZM191.722 50.8682C191.291 50.8682 190.902 50.7886 190.554 50.6293C190.206 50.4671 189.93 50.2326 189.726 49.9258C189.526 49.6191 189.425 49.243 189.425 48.7976C189.425 48.4141 189.499 48.0985 189.647 47.8508C189.794 47.603 189.993 47.4069 190.244 47.2623C190.495 47.1178 190.775 47.0087 191.085 46.9349C191.394 46.8612 191.71 46.8051 192.031 46.7668C192.438 46.7196 192.769 46.6813 193.022 46.6518C193.276 46.6193 193.46 46.5677 193.575 46.4969C193.691 46.4261 193.748 46.3111 193.748 46.1518V46.1208C193.748 45.7344 193.639 45.4351 193.421 45.2227C193.205 45.0103 192.884 44.9041 192.456 44.9041C192.011 44.9041 191.66 45.0029 191.403 45.2006C191.149 45.3952 190.974 45.612 190.877 45.851L189.633 45.5678C189.781 45.1549 189.996 44.8215 190.279 44.5679C190.565 44.3113 190.894 44.1254 191.266 44.0104C191.638 43.8924 192.028 43.8334 192.438 43.8334C192.71 43.8334 192.997 43.8659 193.301 43.9308C193.608 43.9927 193.894 44.1077 194.159 44.2759C194.428 44.444 194.648 44.6844 194.819 44.997C194.99 45.3068 195.075 45.7094 195.075 46.2049V50.7178H193.783V49.7887H193.73C193.645 49.9597 193.516 50.1279 193.345 50.293C193.174 50.4582 192.955 50.5954 192.686 50.7045C192.418 50.8136 192.096 50.8682 191.722 50.8682ZM192.009 49.8064C192.375 49.8064 192.688 49.7341 192.947 49.5896C193.21 49.445 193.409 49.2563 193.545 49.0232C193.683 48.7873 193.752 48.5351 193.752 48.2667V47.3906C193.705 47.4378 193.614 47.4821 193.478 47.5234C193.345 47.5617 193.194 47.5956 193.022 47.6251C192.851 47.6517 192.685 47.6767 192.522 47.7003C192.36 47.721 192.225 47.7387 192.115 47.7534C191.859 47.7859 191.624 47.8405 191.412 47.9171C191.203 47.9938 191.034 48.1044 190.908 48.249C190.784 48.3905 190.722 48.5793 190.722 48.8153C190.722 49.1427 190.843 49.3905 191.085 49.5586C191.326 49.7238 191.635 49.8064 192.009 49.8064ZM198.16 41.6566V50.7178H196.837V41.6566H198.16ZM202.869 50.8549C202.199 50.8549 201.623 50.7119 201.139 50.4258C200.658 50.1367 200.287 49.7311 200.024 49.2091C199.764 48.684 199.635 48.069 199.635 47.3641C199.635 46.668 199.764 46.0545 200.024 45.5235C200.287 44.9926 200.652 44.5782 201.121 44.2803C201.593 43.9824 202.145 43.8334 202.776 43.8334C203.159 43.8334 203.531 43.8969 203.891 44.0237C204.251 44.1505 204.574 44.3496 204.86 44.621C205.146 44.8923 205.372 45.2448 205.537 45.6784C205.702 46.109 205.785 46.6326 205.785 47.2491V47.718H200.382V46.727H204.488C204.488 46.3789 204.417 46.0707 204.276 45.8023C204.134 45.5309 203.935 45.3171 203.679 45.1608C203.425 45.0044 203.127 44.9263 202.785 44.9263C202.413 44.9263 202.089 45.0177 201.811 45.2006C201.537 45.3805 201.325 45.6165 201.174 45.9085C201.027 46.1975 200.953 46.5117 200.953 46.8509V47.6251C200.953 48.0794 201.033 48.4658 201.192 48.7843C201.354 49.1029 201.58 49.3462 201.869 49.5143C202.158 49.6795 202.496 49.7621 202.882 49.7621C203.133 49.7621 203.361 49.7267 203.568 49.6559C203.774 49.5822 203.953 49.473 204.103 49.3285C204.254 49.184 204.369 49.0055 204.448 48.7932L205.7 49.0188C205.6 49.3875 205.42 49.7105 205.161 49.9878C204.904 50.2621 204.581 50.4759 204.192 50.6293C203.805 50.7797 203.364 50.8549 202.869 50.8549ZM212.345 45.5811L211.146 45.7934C211.096 45.6401 211.016 45.4941 210.907 45.3554C210.801 45.2168 210.656 45.1032 210.473 45.0147C210.29 44.9263 210.062 44.882 209.788 44.882C209.413 44.882 209.1 44.9661 208.85 45.1342C208.599 45.2994 208.473 45.5132 208.473 45.7757C208.473 46.0029 208.558 46.1857 208.726 46.3244C208.894 46.463 209.165 46.5766 209.54 46.665L210.619 46.9128C211.245 47.0573 211.711 47.28 212.017 47.5809C212.324 47.8817 212.478 48.2726 212.478 48.7533C212.478 49.1604 212.36 49.5232 212.124 49.8417C211.891 50.1574 211.565 50.4051 211.146 50.585C210.73 50.765 210.248 50.8549 209.699 50.8549C208.938 50.8549 208.317 50.6927 207.836 50.3682C207.356 50.0408 207.061 49.5763 206.951 48.9746L208.23 48.7799C208.31 49.1132 208.473 49.3654 208.721 49.5365C208.969 49.7046 209.292 49.7887 209.69 49.7887C210.124 49.7887 210.47 49.6987 210.73 49.5188C210.989 49.3359 211.119 49.1132 211.119 48.8507C211.119 48.6383 211.04 48.4599 210.88 48.3153C210.724 48.1708 210.484 48.0617 210.159 47.9879L209.009 47.7357C208.375 47.5912 207.906 47.3611 207.602 47.0455C207.301 46.7299 207.151 46.3303 207.151 45.8465C207.151 45.4454 207.263 45.0944 207.487 44.7935C207.711 44.4927 208.021 44.2582 208.416 44.0901C208.811 43.919 209.264 43.8334 209.774 43.8334C210.509 43.8334 211.087 43.9927 211.509 44.3113C211.93 44.6269 212.209 45.0501 212.345 45.5811ZM222.322 45.5811L221.123 45.7934C221.073 45.6401 220.993 45.4941 220.884 45.3554C220.778 45.2168 220.633 45.1032 220.45 45.0147C220.267 44.9263 220.039 44.882 219.764 44.882C219.39 44.882 219.077 44.9661 218.827 45.1342C218.576 45.2994 218.45 45.5132 218.45 45.7757C218.45 46.0029 218.535 46.1857 218.703 46.3244C218.871 46.463 219.142 46.5766 219.517 46.665L220.596 46.9128C221.222 47.0573 221.688 47.28 221.994 47.5809C222.301 47.8817 222.455 48.2726 222.455 48.7533C222.455 49.1604 222.337 49.5232 222.101 49.8417C221.868 50.1574 221.542 50.4051 221.123 50.585C220.707 50.765 220.225 50.8549 219.676 50.8549C218.915 50.8549 218.294 50.6927 217.813 50.3682C217.333 50.0408 217.038 49.5763 216.928 48.9746L218.207 48.7799C218.287 49.1132 218.45 49.3654 218.698 49.5365C218.946 49.7046 219.269 49.7887 219.667 49.7887C220.101 49.7887 220.447 49.6987 220.707 49.5188C220.966 49.3359 221.096 49.1132 221.096 48.8507C221.096 48.6383 221.017 48.4599 220.857 48.3153C220.701 48.1708 220.461 48.0617 220.136 47.9879L218.986 47.7357C218.352 47.5912 217.883 47.3611 217.579 47.0455C217.278 46.7299 217.128 46.3303 217.128 45.8465C217.128 45.4454 217.24 45.0944 217.464 44.7935C217.688 44.4927 217.998 44.2582 218.393 44.0901C218.788 43.919 219.241 43.8334 219.751 43.8334C220.486 43.8334 221.064 43.9927 221.486 44.3113C221.907 44.6269 222.186 45.0501 222.322 45.5811ZM224.745 53.2662C224.548 53.2662 224.368 53.25 224.205 53.2175C224.043 53.1881 223.922 53.1556 223.843 53.1202L224.161 52.0362C224.403 52.1011 224.618 52.1292 224.807 52.1203C224.996 52.1115 225.163 52.0407 225.307 51.9079C225.455 51.7752 225.584 51.5584 225.696 51.2575L225.86 50.8063L223.374 43.9219H224.789L226.511 49.1958H226.581L228.302 43.9219H229.723L226.922 51.6248C226.792 51.9787 226.627 52.2781 226.427 52.5229C226.226 52.7707 225.987 52.9565 225.71 53.0804C225.432 53.2043 225.111 53.2662 224.745 53.2662ZM236.058 45.5811L234.859 45.7934C234.809 45.6401 234.73 45.4941 234.62 45.3554C234.514 45.2168 234.37 45.1032 234.187 45.0147C234.004 44.9263 233.775 44.882 233.501 44.882C233.126 44.882 232.814 44.9661 232.563 45.1342C232.312 45.2994 232.187 45.5132 232.187 45.7757C232.187 46.0029 232.271 46.1857 232.439 46.3244C232.607 46.463 232.879 46.5766 233.253 46.665L234.333 46.9128C234.958 47.0573 235.424 47.28 235.731 47.5809C236.038 47.8817 236.191 48.2726 236.191 48.7533C236.191 49.1604 236.073 49.5232 235.837 49.8417C235.604 50.1574 235.278 50.4051 234.859 50.585C234.443 50.765 233.961 50.8549 233.413 50.8549C232.652 50.8549 232.031 50.6927 231.55 50.3682C231.069 50.0408 230.774 49.5763 230.665 48.9746L231.944 48.7799C232.023 49.1132 232.187 49.3654 232.435 49.5365C232.683 49.7046 233.006 49.7887 233.404 49.7887C233.837 49.7887 234.184 49.6987 234.443 49.5188C234.703 49.3359 234.833 49.1132 234.833 48.8507C234.833 48.6383 234.753 48.4599 234.594 48.3153C234.438 48.1708 234.197 48.0617 233.873 47.9879L232.722 47.7357C232.088 47.5912 231.619 47.3611 231.315 47.0455C231.015 46.7299 230.864 46.3303 230.864 45.8465C230.864 45.4454 230.976 45.0944 231.2 44.7935C231.425 44.4927 231.734 44.2582 232.13 44.0901C232.525 43.919 232.978 43.8334 233.488 43.8334C234.222 43.8334 234.8 43.9927 235.222 44.3113C235.644 44.6269 235.923 45.0501 236.058 45.5811ZM240.818 43.9219V44.9838H237.106V43.9219H240.818ZM238.101 42.2938H239.424V48.7224C239.424 48.979 239.463 49.1722 239.539 49.302C239.616 49.4288 239.715 49.5158 239.836 49.563C239.96 49.6073 240.094 49.6294 240.238 49.6294C240.344 49.6294 240.437 49.622 240.517 49.6073C240.597 49.5925 240.659 49.5807 240.703 49.5719L240.942 50.6647C240.865 50.6942 240.756 50.7237 240.614 50.7532C240.473 50.7856 240.296 50.8033 240.083 50.8063C239.735 50.8122 239.411 50.7502 239.11 50.6204C238.809 50.4907 238.566 50.2901 238.38 50.0187C238.194 49.7474 238.101 49.4067 238.101 48.9967V42.2938ZM245.137 50.8549C244.468 50.8549 243.891 50.7119 243.407 50.4258C242.926 50.1367 242.555 49.7311 242.292 49.2091C242.033 48.684 241.903 48.069 241.903 47.3641C241.903 46.668 242.033 46.0545 242.292 45.5235C242.555 44.9926 242.921 44.5782 243.39 44.2803C243.862 43.9824 244.413 43.8334 245.044 43.8334C245.428 43.8334 245.799 43.8969 246.159 44.0237C246.519 44.1505 246.842 44.3496 247.128 44.621C247.414 44.8923 247.64 45.2448 247.805 45.6784C247.97 46.109 248.053 46.6326 248.053 47.2491V47.718H242.651V46.727H246.757C246.757 46.3789 246.686 46.0707 246.544 45.8023C246.403 45.5309 246.203 45.3171 245.947 45.1608C245.693 45.0044 245.395 44.9263 245.053 44.9263C244.681 44.9263 244.357 45.0177 244.08 45.2006C243.805 45.3805 243.593 45.6165 243.443 45.9085C243.295 46.1975 243.221 46.5117 243.221 46.8509V47.6251C243.221 48.0794 243.301 48.4658 243.46 48.7843C243.623 49.1029 243.848 49.3462 244.137 49.5143C244.426 49.6795 244.764 49.7621 245.15 49.7621C245.401 49.7621 245.63 49.7267 245.836 49.6559C246.043 49.5822 246.221 49.473 246.372 49.3285C246.522 49.184 246.637 49.0055 246.717 48.7932L247.969 49.0188C247.869 49.3875 247.689 49.7105 247.429 49.9878C247.172 50.2621 246.849 50.4759 246.46 50.6293C246.074 50.7797 245.633 50.8549 245.137 50.8549ZM249.521 50.7178V43.9219H250.79V45.028H250.875C251.016 44.6534 251.248 44.3614 251.569 44.152C251.891 43.9396 252.276 43.8334 252.724 43.8334C253.178 43.8334 253.559 43.9396 253.865 44.152C254.175 44.3644 254.404 44.6564 254.551 45.028H254.622C254.784 44.6652 255.042 44.3762 255.396 44.1608C255.75 43.9426 256.172 43.8334 256.662 43.8334C257.278 43.8334 257.781 44.0266 258.17 44.413C258.563 44.7994 258.759 45.382 258.759 46.1607V50.7178H257.436V46.2845C257.436 45.8244 257.311 45.4911 257.06 45.2846C256.809 45.0782 256.51 44.9749 256.162 44.9749C255.731 44.9749 255.396 45.1077 255.157 45.3731C254.918 45.6356 254.799 45.9734 254.799 46.3863V50.7178H253.48V46.2005C253.48 45.8318 253.365 45.5353 253.135 45.3112C252.905 45.087 252.606 44.9749 252.237 44.9749C251.987 44.9749 251.755 45.0413 251.543 45.174C251.333 45.3038 251.164 45.4852 251.034 45.7182C250.907 45.9512 250.844 46.2211 250.844 46.5279V50.7178H249.521Z" fill="black"/>
<path d="M296.71 50.2346V56.2754H295.978V51.0015H295.943L294.468 51.9808V51.2375L295.978 50.2346H296.71ZM300.418 56.358C299.973 56.358 299.595 56.237 299.282 55.9952C298.969 55.7513 298.73 55.3984 298.565 54.9363C298.4 54.4722 298.317 53.9118 298.317 53.255C298.317 52.6022 298.4 52.0447 298.565 51.5826C298.732 51.1185 298.972 50.7646 299.285 50.5207C299.6 50.2749 299.977 50.152 300.418 50.152C300.858 50.152 301.235 50.2749 301.547 50.5207C301.862 50.7646 302.102 51.1185 302.267 51.5826C302.434 52.0447 302.518 52.6022 302.518 53.255C302.518 53.9118 302.435 54.4722 302.27 54.9363C302.105 55.3984 301.866 55.7513 301.553 55.9952C301.241 56.237 300.862 56.358 300.418 56.358ZM300.418 55.7091C300.858 55.7091 301.2 55.4967 301.444 55.072C301.688 54.6472 301.81 54.0416 301.81 53.255C301.81 52.732 301.754 52.2866 301.642 51.9188C301.532 51.5511 301.372 51.2709 301.164 51.0782C300.957 50.8855 300.709 50.7892 300.418 50.7892C299.981 50.7892 299.64 51.0045 299.394 51.4351C299.148 51.8638 299.025 52.4704 299.025 53.255C299.025 53.7781 299.08 54.2225 299.191 54.5882C299.301 54.954 299.459 55.2322 299.665 55.423C299.874 55.6137 300.125 55.7091 300.418 55.7091ZM305.609 56.358C305.164 56.358 304.786 56.237 304.473 55.9952C304.161 55.7513 303.922 55.3984 303.757 54.9363C303.591 54.4722 303.509 53.9118 303.509 53.255C303.509 52.6022 303.591 52.0447 303.757 51.5826C303.924 51.1185 304.164 50.7646 304.476 50.5207C304.791 50.2749 305.168 50.152 305.609 50.152C306.049 50.152 306.426 50.2749 306.739 50.5207C307.053 50.7646 307.293 51.1185 307.458 51.5826C307.625 52.0447 307.709 52.6022 307.709 53.255C307.709 53.9118 307.626 54.4722 307.461 54.9363C307.296 55.3984 307.057 55.7513 306.744 55.9952C306.432 56.237 306.053 56.358 305.609 56.358ZM305.609 55.7091C306.049 55.7091 306.391 55.4967 306.635 55.072C306.879 54.6472 307.001 54.0416 307.001 53.255C307.001 52.732 306.945 52.2866 306.833 51.9188C306.723 51.5511 306.564 51.2709 306.355 51.0782C306.149 50.8855 305.9 50.7892 305.609 50.7892C305.172 50.7892 304.831 51.0045 304.585 51.4351C304.34 51.8638 304.217 52.4704 304.217 53.255C304.217 53.7781 304.272 54.2225 304.382 54.5882C304.492 54.954 304.65 55.2322 304.857 55.423C305.065 55.6137 305.316 55.7091 305.609 55.7091ZM310.8 56.358C310.356 56.358 309.977 56.237 309.665 55.9952C309.352 55.7513 309.113 55.3984 308.948 54.9363C308.783 54.4722 308.7 53.9118 308.7 53.255C308.7 52.6022 308.783 52.0447 308.948 51.5826C309.115 51.1185 309.355 50.7646 309.667 50.5207C309.982 50.2749 310.36 50.152 310.8 50.152C311.241 50.152 311.617 50.2749 311.93 50.5207C312.244 50.7646 312.484 51.1185 312.65 51.5826C312.817 52.0447 312.9 52.6022 312.9 53.255C312.9 53.9118 312.818 54.4722 312.652 54.9363C312.487 55.3984 312.248 55.7513 311.936 55.9952C311.623 56.237 311.245 56.358 310.8 56.358ZM310.8 55.7091C311.241 55.7091 311.583 55.4967 311.827 55.072C312.07 54.6472 312.192 54.0416 312.192 53.255C312.192 52.732 312.136 52.2866 312.024 51.9188C311.914 51.5511 311.755 51.2709 311.546 51.0782C311.34 50.8855 311.091 50.7892 310.8 50.7892C310.364 50.7892 310.022 51.0045 309.777 51.4351C309.531 51.8638 309.408 52.4704 309.408 53.255C309.408 53.7781 309.463 54.2225 309.573 54.5882C309.683 54.954 309.842 55.2322 310.048 55.423C310.256 55.6137 310.507 55.7091 310.8 55.7091ZM315.991 56.358C315.547 56.358 315.168 56.237 314.856 55.9952C314.543 55.7513 314.304 55.3984 314.139 54.9363C313.974 54.4722 313.891 53.9118 313.891 53.255C313.891 52.6022 313.974 52.0447 314.139 51.5826C314.306 51.1185 314.546 50.7646 314.859 50.5207C315.173 50.2749 315.551 50.152 315.991 50.152C316.432 50.152 316.808 50.2749 317.121 50.5207C317.436 50.7646 317.676 51.1185 317.841 51.5826C318.008 52.0447 318.092 52.6022 318.092 53.255C318.092 53.9118 318.009 54.4722 317.844 54.9363C317.679 55.3984 317.44 55.7513 317.127 55.9952C316.814 56.237 316.436 56.358 315.991 56.358ZM315.991 55.7091C316.432 55.7091 316.774 55.4967 317.018 55.072C317.262 54.6472 317.384 54.0416 317.384 53.255C317.384 52.732 317.328 52.2866 317.215 51.9188C317.105 51.5511 316.946 51.2709 316.738 51.0782C316.531 50.8855 316.282 50.7892 315.991 50.7892C315.555 50.7892 315.214 51.0045 314.968 51.4351C314.722 51.8638 314.599 52.4704 314.599 53.255C314.599 53.7781 314.654 54.2225 314.764 54.5882C314.874 54.954 315.033 55.2322 315.239 55.423C315.448 55.6137 315.698 55.7091 315.991 55.7091ZM321.183 56.358C320.738 56.358 320.36 56.237 320.047 55.9952C319.734 55.7513 319.496 55.3984 319.33 54.9363C319.165 54.4722 319.083 53.9118 319.083 53.255C319.083 52.6022 319.165 52.0447 319.33 51.5826C319.497 51.1185 319.737 50.7646 320.05 50.5207C320.365 50.2749 320.742 50.152 321.183 50.152C321.623 50.152 322 50.2749 322.312 50.5207C322.627 50.7646 322.867 51.1185 323.032 51.5826C323.199 52.0447 323.283 52.6022 323.283 53.255C323.283 53.9118 323.2 54.4722 323.035 54.9363C322.87 55.3984 322.631 55.7513 322.318 55.9952C322.006 56.237 321.627 56.358 321.183 56.358ZM321.183 55.7091C321.623 55.7091 321.965 55.4967 322.209 55.072C322.453 54.6472 322.575 54.0416 322.575 53.255C322.575 52.732 322.519 52.2866 322.407 51.9188C322.297 51.5511 322.137 51.2709 321.929 51.0782C321.722 50.8855 321.474 50.7892 321.183 50.7892C320.746 50.7892 320.405 51.0045 320.159 51.4351C319.913 51.8638 319.79 52.4704 319.79 53.255C319.79 53.7781 319.846 54.2225 319.956 54.5882C320.066 54.954 320.224 55.2322 320.431 55.423C320.639 55.6137 320.89 55.7091 321.183 55.7091ZM329.961 52.7595L329.335 52.9365C329.296 52.8322 329.238 52.731 329.161 52.6327C329.087 52.5324 328.984 52.4498 328.855 52.3849C328.725 52.32 328.559 52.2875 328.356 52.2875C328.079 52.2875 327.848 52.3515 327.663 52.4793C327.48 52.6051 327.389 52.7654 327.389 52.9601C327.389 53.1331 327.452 53.2698 327.577 53.37C327.703 53.4703 327.9 53.5539 328.167 53.6208L328.84 53.7859C329.245 53.8843 329.547 54.0347 329.745 54.2372C329.944 54.4378 330.043 54.6964 330.043 55.013C330.043 55.2725 329.969 55.5046 329.819 55.7091C329.672 55.9136 329.465 56.0748 329.2 56.1928C328.934 56.3108 328.625 56.3698 328.273 56.3698C327.811 56.3698 327.429 56.2695 327.126 56.0689C326.823 55.8683 326.632 55.5754 326.551 55.1899L327.212 55.0248C327.275 55.2686 327.394 55.4515 327.569 55.5734C327.746 55.6953 327.977 55.7563 328.262 55.7563C328.586 55.7563 328.844 55.6874 329.034 55.5498C329.227 55.4102 329.324 55.243 329.324 55.0484C329.324 54.8911 329.268 54.7593 329.158 54.6531C329.048 54.545 328.879 54.4643 328.651 54.4113L327.896 54.2343C327.481 54.136 327.176 53.9836 326.982 53.7771C326.789 53.5687 326.693 53.3081 326.693 52.9954C326.693 52.7398 326.764 52.5137 326.908 52.317C327.053 52.1204 327.251 51.966 327.501 51.854C327.752 51.7419 328.038 51.6858 328.356 51.6858C328.804 51.6858 329.156 51.7842 329.412 51.9808C329.67 52.1774 329.852 52.437 329.961 52.7595ZM332.424 56.3816C332.137 56.3816 331.877 56.3275 331.643 56.2193C331.409 56.1092 331.223 55.9509 331.085 55.7445C330.948 55.536 330.879 55.2843 330.879 54.9894C330.879 54.7298 330.93 54.5194 331.032 54.3582C331.134 54.1949 331.271 54.0671 331.442 53.9747C331.613 53.8823 331.802 53.8135 332.008 53.7682C332.217 53.721 332.426 53.6837 332.637 53.6562C332.912 53.6208 333.135 53.5942 333.306 53.5765C333.479 53.5569 333.605 53.5244 333.684 53.4792C333.764 53.434 333.805 53.3553 333.805 53.2432V53.2196C333.805 52.9286 333.725 52.7025 333.566 52.5412C333.408 52.38 333.17 52.2993 332.849 52.2993C332.517 52.2993 332.256 52.3721 332.067 52.5176C331.879 52.6631 331.746 52.8185 331.669 52.9837L331.008 52.7477C331.126 52.4724 331.284 52.2581 331.48 52.1047C331.679 51.9493 331.895 51.8412 332.129 51.7802C332.365 51.7173 332.597 51.6858 332.825 51.6858C332.971 51.6858 333.138 51.7035 333.327 51.7389C333.518 51.7724 333.701 51.8422 333.878 51.9483C334.057 52.0545 334.206 52.2148 334.324 52.4291C334.442 52.6435 334.501 52.9306 334.501 53.2904V56.2754H333.805V55.6619H333.769C333.722 55.7602 333.643 55.8654 333.533 55.9775C333.423 56.0896 333.277 56.1849 333.094 56.2636C332.911 56.3422 332.688 56.3816 332.424 56.3816ZM332.53 55.7563C332.806 55.7563 333.038 55.7022 333.227 55.594C333.417 55.4859 333.561 55.3463 333.657 55.1752C333.756 55.0041 333.805 54.8242 333.805 54.6354V53.9983C333.775 54.0337 333.71 54.0661 333.61 54.0956C333.512 54.1232 333.398 54.1478 333.268 54.1694C333.14 54.189 333.015 54.2067 332.893 54.2225C332.773 54.2362 332.676 54.248 332.601 54.2579C332.42 54.2815 332.251 54.3198 332.094 54.3729C331.939 54.424 331.813 54.5017 331.716 54.6059C331.622 54.7082 331.575 54.8478 331.575 55.0248C331.575 55.2666 331.664 55.4495 331.843 55.5734C332.024 55.6953 332.253 55.7563 332.53 55.7563ZM336.467 50.2346V56.2754H335.771V50.2346H336.467ZM339.642 56.3698C339.205 56.3698 338.829 56.2734 338.512 56.0807C338.198 55.886 337.955 55.6147 337.784 55.2666C337.615 54.9166 337.53 54.5096 337.53 54.0455C337.53 53.5814 337.615 53.1724 337.784 52.8185C337.955 52.4626 338.193 52.1853 338.497 51.9867C338.804 51.7861 339.162 51.6858 339.571 51.6858C339.807 51.6858 340.04 51.7252 340.27 51.8038C340.5 51.8825 340.71 52.0103 340.898 52.1873C341.087 52.3623 341.238 52.5943 341.35 52.8834C341.462 53.1724 341.518 53.5283 341.518 53.9511V54.2461H338.026V53.6444H340.81C340.81 53.3887 340.759 53.1606 340.657 52.9601C340.556 52.7595 340.413 52.6012 340.226 52.4852C340.041 52.3692 339.823 52.3111 339.571 52.3111C339.294 52.3111 339.054 52.38 338.851 52.5176C338.651 52.6533 338.497 52.8303 338.388 53.0485C338.28 53.2668 338.226 53.5008 338.226 53.7505V54.1517C338.226 54.4938 338.285 54.7839 338.403 55.0218C338.523 55.2578 338.689 55.4377 338.902 55.5616C339.114 55.6835 339.361 55.7445 339.642 55.7445C339.825 55.7445 339.99 55.7189 340.137 55.6678C340.287 55.6147 340.416 55.536 340.524 55.4318C340.632 55.3256 340.716 55.1939 340.775 55.0366L341.447 55.2253C341.376 55.4534 341.257 55.654 341.09 55.8271C340.923 55.9981 340.717 56.1318 340.471 56.2282C340.225 56.3226 339.949 56.3698 339.642 56.3698ZM345.786 52.7595L345.161 52.9365C345.121 52.8322 345.063 52.731 344.987 52.6327C344.912 52.5324 344.81 52.4498 344.68 52.3849C344.55 52.32 344.384 52.2875 344.181 52.2875C343.904 52.2875 343.673 52.3515 343.488 52.4793C343.305 52.6051 343.214 52.7654 343.214 52.9601C343.214 53.1331 343.277 53.2698 343.403 53.37C343.529 53.4703 343.725 53.5539 343.993 53.6208L344.665 53.7859C345.07 53.8843 345.372 54.0347 345.571 54.2372C345.769 54.4378 345.869 54.6964 345.869 55.013C345.869 55.2725 345.794 55.5046 345.644 55.7091C345.497 55.9136 345.29 56.0748 345.025 56.1928C344.759 56.3108 344.451 56.3698 344.099 56.3698C343.637 56.3698 343.254 56.2695 342.951 56.0689C342.649 55.8683 342.457 55.5754 342.376 55.1899L343.037 55.0248C343.1 55.2686 343.219 55.4515 343.394 55.5734C343.571 55.6953 343.802 55.7563 344.087 55.7563C344.411 55.7563 344.669 55.6874 344.86 55.5498C345.052 55.4102 345.149 55.243 345.149 55.0484C345.149 54.8911 345.094 54.7593 344.984 54.6531C344.874 54.545 344.704 54.4643 344.476 54.4113L343.721 54.2343C343.306 54.136 343.002 53.9836 342.807 53.7771C342.614 53.5687 342.518 53.3081 342.518 52.9954C342.518 52.7398 342.59 52.5137 342.733 52.317C342.879 52.1204 343.076 51.966 343.326 51.854C343.578 51.7419 343.863 51.6858 344.181 51.6858C344.63 51.6858 344.982 51.7842 345.237 51.9808C345.495 52.1774 345.678 52.437 345.786 52.7595Z" fill="#C1C7D0"/>
</g>
<defs>
<filter id="filter0_dd_2172_13579" x="0.442618" y="0.225417" width="374.291" height="82.022" filterUnits="userSpaceOnUse" color-interpolation-filters="sRGB">
<feFlood flood-opacity="0" result="BackgroundImageFix"/>
<feColorMatrix in="SourceAlpha" type="matrix" values="0 0 0 0 0 0 0 0 0 0 0 0 0 0 0 0 0 0 127 0" result="hardAlpha"/>
<feOffset dy="0.519127"/>
<feGaussianBlur stdDeviation="0.519127"/>
<feColorMatrix type="matrix" values="0 0 0 0 0.0627451 0 0 0 0 0.0941176 0 0 0 0 0.156863 0 0 0 0.06 0"/>
<feBlend mode="normal" in2="BackgroundImageFix" result="effect1_dropShadow_2172_13579"/>
<feColorMatrix in="SourceAlpha" type="matrix" values="0 0 0 0 0 0 0 0 0 0 0 0 0 0 0 0 0 0 127 0" result="hardAlpha"/>
<feOffset dy="0.519127"/>
<feGaussianBlur stdDeviation="0.778691"/>
<feColorMatrix type="matrix" values="0 0 0 0 0.0627451 0 0 0 0 0.0941176 0 0 0 0 0.156863 0 0 0 0.1 0"/>
<feBlend mode="normal" in2="effect1_dropShadow_2172_13579" result="effect2_dropShadow_2172_13579"/>
<feBlend mode="normal" in="SourceGraphic" in2="effect2_dropShadow_2172_13579" result="shape"/>
</filter>
</defs>
</svg>
