<svg width="221" height="140" viewBox="0 0 221 140" fill="none" xmlns="http://www.w3.org/2000/svg">
<g filter="url(#filter0_dd_2172_13551)">
<rect x="2.3125" y="2.22754" width="215.937" height="134.6" rx="12.4819" fill="#1E1E1E"/>
<path d="M21.0215 27.6246V33.0713H20.3833L17.4153 28.7948H17.3621V33.0713H16.7025V27.6246H17.3408L20.3194 31.9118H20.3726V27.6246H21.0215ZM23.9689 33.1564C23.5753 33.1564 23.2358 33.0695 22.9503 32.8958C22.6667 32.7202 22.4477 32.4756 22.2934 32.1617C22.141 31.8461 22.0647 31.4791 22.0647 31.0607C22.0647 30.6423 22.141 30.2735 22.2934 29.9544C22.4477 29.6335 22.6622 29.3835 22.937 29.2044C23.2136 29.0235 23.5363 28.9331 23.9051 28.9331C24.1179 28.9331 24.328 28.9686 24.5354 29.0395C24.7428 29.1104 24.9317 29.2257 25.1019 29.3852C25.2721 29.543 25.4077 29.7522 25.5088 30.0129C25.6098 30.2735 25.6604 30.5944 25.6604 30.9756V31.2416H22.5115V30.699H25.0221C25.0221 30.4685 24.976 30.2629 24.8838 30.082C24.7934 29.9012 24.6639 29.7584 24.4955 29.6538C24.3288 29.5492 24.132 29.4969 23.9051 29.4969C23.6551 29.4969 23.4388 29.559 23.2562 29.6831C23.0753 29.8054 22.9362 29.965 22.8386 30.1618C22.7411 30.3586 22.6924 30.5696 22.6924 30.7948V31.1565C22.6924 31.465 22.7456 31.7265 22.8519 31.941C22.9601 32.1538 23.1099 32.316 23.3014 32.4277C23.4929 32.5376 23.7154 32.5926 23.9689 32.5926C24.1338 32.5926 24.2827 32.5695 24.4157 32.5234C24.5505 32.4756 24.6666 32.4046 24.7641 32.3107C24.8616 32.2149 24.937 32.0961 24.9902 31.9543L25.5965 32.1245C25.5327 32.3302 25.4254 32.511 25.2747 32.667C25.124 32.8213 24.9379 32.9419 24.7162 33.0287C24.4946 33.1138 24.2455 33.1564 23.9689 33.1564ZM26.9735 28.9863L27.9522 30.6565L28.9309 28.9863H29.6542L28.3351 31.0288L29.6542 33.0713H28.9309L27.9522 31.4862L26.9735 33.0713H26.2501L27.5479 31.0288L26.2501 28.9863H26.9735ZM32.3264 28.9863V29.5182H30.2094V28.9863H32.3264ZM30.8264 28.0076H31.4541V31.9011C31.4541 32.0784 31.4798 32.2114 31.5312 32.3C31.5844 32.3869 31.6517 32.4454 31.7333 32.4756C31.8166 32.5039 31.9044 32.5181 31.9966 32.5181C32.0657 32.5181 32.1225 32.5146 32.1668 32.5075C32.2111 32.4986 32.2466 32.4915 32.2732 32.4862L32.4008 33.05C32.3583 33.066 32.2989 33.0819 32.2227 33.0979C32.1464 33.1156 32.0498 33.1245 31.9328 33.1245C31.7555 33.1245 31.5817 33.0864 31.4115 33.0101C31.2431 32.9339 31.103 32.8178 30.9913 32.6617C30.8814 32.5057 30.8264 32.3089 30.8264 32.0713V28.0076ZM35.4619 33.0713V27.6246H37.3023C37.7296 27.6246 38.0789 27.7018 38.3501 27.856C38.6232 28.0085 38.8253 28.2151 38.9565 28.4757C39.0877 28.7363 39.1533 29.0271 39.1533 29.348C39.1533 29.6689 39.0877 29.9606 38.9565 30.223C38.8271 30.4854 38.6267 30.6946 38.3554 30.8506C38.0842 31.0049 37.7367 31.082 37.3129 31.082H35.9938V30.4969H37.2916C37.5842 30.4969 37.8191 30.4464 37.9964 30.3453C38.1737 30.2442 38.3023 30.1077 38.382 29.9357C38.4636 29.762 38.5044 29.5661 38.5044 29.348C38.5044 29.1299 38.4636 28.9349 38.382 28.7629C38.3023 28.5909 38.1728 28.4562 37.9938 28.3587C37.8147 28.2594 37.5771 28.2097 37.281 28.2097H36.1215V33.0713H35.4619ZM41.3327 33.167C41.0739 33.167 40.839 33.1183 40.628 33.0208C40.417 32.9215 40.2494 32.7787 40.1253 32.5926C40.0012 32.4046 39.9392 32.1777 39.9392 31.9118C39.9392 31.6777 39.9853 31.488 40.0775 31.3426C40.1697 31.1955 40.2929 31.0802 40.4471 30.9969C40.6014 30.9136 40.7716 30.8515 40.9578 30.8107C41.1457 30.7682 41.3345 30.7345 41.5242 30.7097C41.7724 30.6777 41.9737 30.6538 42.1279 30.6379C42.284 30.6201 42.3974 30.5909 42.4683 30.5501C42.541 30.5093 42.5774 30.4384 42.5774 30.3373V30.3161C42.5774 30.0537 42.5056 29.8498 42.362 29.7044C42.2201 29.559 42.0047 29.4863 41.7157 29.4863C41.4161 29.4863 41.1812 29.5519 41.0109 29.6831C40.8407 29.8143 40.7211 29.9544 40.6519 30.1033L40.0562 29.8905C40.1626 29.6423 40.3044 29.4491 40.4817 29.3108C40.6608 29.1707 40.8558 29.0732 41.0668 29.0182C41.2796 28.9615 41.4888 28.9331 41.6944 28.9331C41.8256 28.9331 41.9763 28.9491 42.1465 28.981C42.3185 29.0111 42.4843 29.0741 42.6439 29.1698C42.8052 29.2656 42.9391 29.4101 43.0455 29.6033C43.1518 29.7966 43.205 30.0554 43.205 30.3799V33.0713H42.5774V32.5181H42.5455C42.5029 32.6068 42.432 32.7016 42.3327 32.8027C42.2334 32.9037 42.1013 32.9897 41.9364 33.0607C41.7716 33.1316 41.5703 33.167 41.3327 33.167ZM41.4285 32.6032C41.6767 32.6032 41.8859 32.5545 42.0561 32.4569C42.2281 32.3594 42.3575 32.2335 42.4444 32.0793C42.5331 31.925 42.5774 31.7628 42.5774 31.5926V31.0182C42.5508 31.0501 42.4923 31.0793 42.4019 31.1059C42.3132 31.1307 42.2104 31.1529 42.0934 31.1724C41.9781 31.1901 41.8655 31.2061 41.7556 31.2203C41.6474 31.2327 41.5597 31.2433 41.4923 31.2522C41.3292 31.2735 41.1767 31.308 41.0349 31.3559C40.8948 31.402 40.7813 31.472 40.6945 31.566C40.6094 31.6582 40.5668 31.7841 40.5668 31.9437C40.5668 32.1617 40.6475 32.3266 40.8088 32.4383C40.9719 32.5483 41.1785 32.6032 41.4285 32.6032ZM44.6086 34.6032C44.5022 34.6032 44.4073 34.5943 44.324 34.5766C44.2407 34.5606 44.1831 34.5446 44.1511 34.5287L44.3107 33.9755C44.4632 34.0145 44.5979 34.0287 44.715 34.0181C44.832 34.0074 44.9357 33.9551 45.0261 33.8612C45.1183 33.769 45.2025 33.6191 45.2788 33.4117L45.3958 33.0926L43.8852 28.9863H44.566L45.6936 32.2415H45.7362L46.8638 28.9863H47.5447L45.8107 33.667C45.7327 33.878 45.636 34.0526 45.5208 34.1909C45.4055 34.331 45.2717 34.4347 45.1192 34.5021C44.9685 34.5695 44.7983 34.6032 44.6086 34.6032ZM49.8863 33.1564C49.5176 33.1564 49.194 33.0686 48.9156 32.8931C48.639 32.7176 48.4227 32.472 48.2667 32.1564C48.1125 31.8408 48.0353 31.472 48.0353 31.0501C48.0353 30.6246 48.1125 30.2531 48.2667 29.9357C48.4227 29.6184 48.639 29.3719 48.9156 29.1964C49.194 29.0209 49.5176 28.9331 49.8863 28.9331C50.2551 28.9331 50.5778 29.0209 50.8544 29.1964C51.1327 29.3719 51.3491 29.6184 51.5033 29.9357C51.6593 30.2531 51.7373 30.6246 51.7373 31.0501C51.7373 31.472 51.6593 31.8408 51.5033 32.1564C51.3491 32.472 51.1327 32.7176 50.8544 32.8931C50.5778 33.0686 50.2551 33.1564 49.8863 33.1564ZM49.8863 32.5926C50.1665 32.5926 50.397 32.5208 50.5778 32.3772C50.7586 32.2335 50.8925 32.0447 50.9794 31.8107C51.0663 31.5767 51.1097 31.3231 51.1097 31.0501C51.1097 30.777 51.0663 30.5226 50.9794 30.2868C50.8925 30.051 50.7586 29.8604 50.5778 29.715C50.397 29.5696 50.1665 29.4969 49.8863 29.4969C49.6062 29.4969 49.3757 29.5696 49.1949 29.715C49.014 29.8604 48.8802 30.051 48.7933 30.2868C48.7064 30.5226 48.663 30.777 48.663 31.0501C48.663 31.3231 48.7064 31.5767 48.7933 31.8107C48.8802 32.0447 49.014 32.2335 49.1949 32.3772C49.3757 32.5208 49.6062 32.5926 49.8863 32.5926ZM55.2698 31.4011V28.9863H55.8975V33.0713H55.2698V32.3798H55.2273C55.1315 32.5873 54.9826 32.7637 54.7805 32.9091C54.5783 33.0527 54.323 33.1245 54.0145 33.1245C53.7592 33.1245 53.5323 33.0686 53.3337 32.9569C53.1351 32.8435 52.9791 32.6733 52.8656 32.4463C52.7522 32.2176 52.6954 31.9295 52.6954 31.582V28.9863H53.3231V31.5394C53.3231 31.8373 53.4064 32.0749 53.5731 32.2522C53.7415 32.4295 53.956 32.5181 54.2167 32.5181C54.3727 32.5181 54.5314 32.4782 54.6927 32.3984C54.8558 32.3187 54.9923 32.1963 55.1023 32.0314C55.214 31.8665 55.2698 31.6564 55.2698 31.4011ZM58.8236 28.9863V29.5182H56.7066V28.9863H58.8236ZM57.3236 28.0076H57.9512V31.9011C57.9512 32.0784 57.977 32.2114 58.0284 32.3C58.0816 32.3869 58.1489 32.4454 58.2305 32.4756C58.3138 32.5039 58.4016 32.5181 58.4938 32.5181C58.5629 32.5181 58.6197 32.5146 58.664 32.5075C58.7083 32.4986 58.7438 32.4915 58.7704 32.4862L58.898 33.05C58.8555 33.066 58.7961 33.0819 58.7198 33.0979C58.6436 33.1156 58.547 33.1245 58.43 33.1245C58.2527 33.1245 58.0789 33.0864 57.9087 33.0101C57.7403 32.9339 57.6002 32.8178 57.4885 32.6617C57.3786 32.5057 57.3236 32.3089 57.3236 32.0713V28.0076Z" fill="#97A0AF"/>
<path d="M19.7175 51.206V39.8588H20.4444V51.206H19.7175ZM21.9914 43.3782C21.9441 42.9586 21.7491 42.6336 21.4063 42.4031C21.0635 42.1696 20.6321 42.0529 20.112 42.0529C19.7397 42.0529 19.4176 42.112 19.1457 42.2302C18.8739 42.3455 18.6626 42.505 18.5119 42.7089C18.3641 42.9099 18.2902 43.1389 18.2902 43.396C18.2902 43.6117 18.3405 43.7978 18.4409 43.9545C18.5444 44.1111 18.6788 44.2426 18.8443 44.3489C19.0127 44.4524 19.193 44.5395 19.3851 44.6105C19.5771 44.6784 19.7618 44.7346 19.9391 44.7789L20.8256 45.0094C21.1152 45.0803 21.4122 45.1763 21.7166 45.2975C22.0209 45.4187 22.3031 45.5782 22.5632 45.7762C22.8232 45.9742 23.033 46.2195 23.1926 46.512C23.3551 46.8045 23.4364 47.1547 23.4364 47.5625C23.4364 48.0767 23.3034 48.5332 23.0374 48.9321C22.7744 49.3311 22.3918 49.6458 21.8894 49.8763C21.39 50.1067 20.7857 50.222 20.0765 50.222C19.3969 50.222 18.8088 50.1141 18.3124 49.8984C17.816 49.6827 17.4274 49.3769 17.1467 48.9809C16.8659 48.582 16.7108 48.1092 16.6812 47.5625H18.0553C18.0819 47.8905 18.1883 48.1638 18.3745 48.3825C18.5636 48.5982 18.8044 48.7593 19.097 48.8657C19.3925 48.9691 19.716 49.0208 20.0677 49.0208C20.4548 49.0208 20.799 48.9602 21.1004 48.8391C21.4048 48.7149 21.6442 48.5436 21.8185 48.3249C21.9928 48.1033 22.08 47.8447 22.08 47.5492C22.08 47.2803 22.0032 47.0602 21.8495 46.8888C21.6988 46.7174 21.4935 46.5755 21.2334 46.4632C20.9763 46.351 20.6853 46.252 20.3602 46.1663L19.2875 45.8737C18.5606 45.6757 17.9844 45.3847 17.5589 45.0005C17.1363 44.6164 16.925 44.1081 16.925 43.4757C16.925 42.9527 17.0669 42.4962 17.3506 42.1061C17.6342 41.7161 18.0184 41.4132 18.503 41.1974C18.9876 40.9788 19.5343 40.8694 20.143 40.8694C20.7577 40.8694 21.2999 40.9773 21.7697 41.193C22.2425 41.4087 22.6149 41.7057 22.8867 42.0839C23.1586 42.4592 23.3004 42.8907 23.3122 43.3782H21.9914ZM24.9489 50.0713V49.0784L28.0207 45.8959C28.3487 45.5502 28.619 45.2473 28.8318 44.9872C29.0475 44.7242 29.2086 44.4745 29.3149 44.2381C29.4213 44.0017 29.4745 43.7506 29.4745 43.4846C29.4745 43.1832 29.4036 42.9232 29.2618 42.7045C29.1199 42.4829 28.9264 42.313 28.6811 42.1948C28.4358 42.0736 28.1595 42.013 27.8522 42.013C27.5272 42.013 27.2435 42.0795 27.0012 42.2125C26.7589 42.3455 26.5727 42.5331 26.4427 42.7754C26.3127 43.0177 26.2477 43.3014 26.2477 43.6265H24.9401C24.9401 43.0739 25.0671 42.5907 25.3213 42.177C25.5754 41.7633 25.9241 41.4427 26.3673 41.2152C26.8106 40.9847 27.3144 40.8694 27.8788 40.8694C28.4491 40.8694 28.9515 40.9832 29.3859 41.2107C29.8232 41.4353 30.1645 41.7426 30.4098 42.1327C30.655 42.5198 30.7777 42.9571 30.7777 43.4447C30.7777 43.7816 30.7141 44.1111 30.5871 44.4332C30.463 44.7553 30.2458 45.1143 29.9355 45.5103C29.6252 45.9033 29.1938 46.3805 28.6412 46.942L26.8372 48.8302V48.8967H30.9239V50.0713H24.9489ZM35.7642 50.222C35.0639 50.219 34.4655 50.0344 33.9691 49.6679C33.4726 49.3015 33.0929 48.7681 32.8299 48.0678C32.5669 47.3675 32.4354 46.5238 32.4354 45.5369C32.4354 44.5528 32.5669 43.7121 32.8299 43.0148C33.0959 42.3174 33.477 41.7855 33.9735 41.4191C34.4729 41.0527 35.0698 40.8694 35.7642 40.8694C36.4586 40.8694 37.0541 41.0541 37.5505 41.4235C38.0469 41.7899 38.4267 42.3218 38.6897 43.0192C38.9556 43.7136 39.0886 44.5528 39.0886 45.5369C39.0886 46.5268 38.9571 47.3719 38.6941 48.0722C38.4311 48.7696 38.0514 49.303 37.5549 49.6724C37.0585 50.0388 36.4616 50.222 35.7642 50.222ZM35.7642 49.0385C36.3789 49.0385 36.859 48.7386 37.2048 48.1387C37.5535 47.5389 37.7278 46.6716 37.7278 45.5369C37.7278 44.7833 37.648 44.1465 37.4885 43.6265C37.3318 43.1034 37.1058 42.7075 36.8103 42.4385C36.5177 42.1667 36.169 42.0308 35.7642 42.0308C35.1525 42.0308 34.6723 42.3322 34.3237 42.935C33.975 43.5378 33.7991 44.4051 33.7962 45.5369C33.7962 46.2933 33.8745 46.9331 34.0311 47.4561C34.1907 47.9762 34.4167 48.3707 34.7093 48.6396C35.0018 48.9055 35.3535 49.0385 35.7642 49.0385ZM43.8214 50.222C43.121 50.219 42.5226 50.0344 42.0262 49.6679C41.5298 49.3015 41.1501 48.7681 40.8871 48.0678C40.6241 47.3675 40.4926 46.5238 40.4926 45.5369C40.4926 44.5528 40.6241 43.7121 40.8871 43.0148C41.153 42.3174 41.5342 41.7855 42.0306 41.4191C42.53 41.0527 43.1269 40.8694 43.8214 40.8694C44.5158 40.8694 45.1112 41.0541 45.6077 41.4235C46.1041 41.7899 46.4838 42.3218 46.7468 43.0192C47.0128 43.7136 47.1457 44.5528 47.1457 45.5369C47.1457 46.5268 47.0142 47.3719 46.7512 48.0722C46.4882 48.7696 46.1085 49.303 45.6121 49.6724C45.1157 50.0388 44.5187 50.222 43.8214 50.222ZM43.8214 49.0385C44.436 49.0385 44.9162 48.7386 45.2619 48.1387C45.6106 47.5389 45.785 46.6716 45.785 45.5369C45.785 44.7833 45.7052 44.1465 45.5456 43.6265C45.389 43.1034 45.1629 42.7075 44.8674 42.4385C44.5749 42.1667 44.2262 42.0308 43.8214 42.0308C43.2097 42.0308 42.7295 42.3322 42.3808 42.935C42.0321 43.5378 41.8563 44.4051 41.8533 45.5369C41.8533 46.2933 41.9316 46.9331 42.0883 47.4561C42.2478 47.9762 42.4739 48.3707 42.7664 48.6396C43.059 48.9055 43.4106 49.0385 43.8214 49.0385ZM51.8785 50.222C51.1782 50.219 50.5798 50.0344 50.0834 49.6679C49.5869 49.3015 49.2072 48.7681 48.9442 48.0678C48.6812 47.3675 48.5497 46.5238 48.5497 45.5369C48.5497 44.5528 48.6812 43.7121 48.9442 43.0148C49.2102 42.3174 49.5914 41.7855 50.0878 41.4191C50.5872 41.0527 51.1841 40.8694 51.8785 40.8694C52.5729 40.8694 53.1684 41.0541 53.6648 41.4235C54.1612 41.7899 54.541 42.3218 54.804 43.0192C55.0699 43.7136 55.2029 44.5528 55.2029 45.5369C55.2029 46.5268 55.0714 47.3719 54.8084 48.0722C54.5454 48.7696 54.1657 49.303 53.6692 49.6724C53.1728 50.0388 52.5759 50.222 51.8785 50.222ZM51.8785 49.0385C52.4932 49.0385 52.9733 48.7386 53.3191 48.1387C53.6678 47.5389 53.8421 46.6716 53.8421 45.5369C53.8421 44.7833 53.7623 44.1465 53.6028 43.6265C53.4461 43.1034 53.2201 42.7075 52.9246 42.4385C52.632 42.1667 52.2834 42.0308 51.8785 42.0308C51.2668 42.0308 50.7866 42.3322 50.438 42.935C50.0893 43.5378 49.9134 44.4051 49.9105 45.5369C49.9105 46.2933 49.9888 46.9331 50.1454 47.4561C50.305 47.9762 50.531 48.3707 50.8236 48.6396C51.1161 48.9055 51.4678 49.0385 51.8785 49.0385Z" fill="#58D96B"/>
<rect width="188.476" height="37.4456" transform="translate(16.043 77.5391)" fill="#205363"/>
<path d="M64.0451 100.262V91.0972H67.3117C68.0217 91.0972 68.6109 91.2195 69.0793 91.4642C69.5506 91.7088 69.9026 92.0474 70.1353 92.48C70.368 92.9095 70.4844 93.4062 70.4844 93.9701C70.4844 94.5309 70.3665 95.0247 70.1309 95.4513C69.8982 95.8749 69.5461 96.2045 69.0748 96.4402C68.6064 96.6759 68.0172 96.7937 67.3072 96.7937H64.8326V95.6034H67.1819C67.6294 95.6034 67.9934 95.5393 68.2738 95.411C68.5572 95.2827 68.7645 95.0962 68.8958 94.8516C69.0271 94.607 69.0927 94.3131 69.0927 93.9701C69.0927 93.624 69.0256 93.3242 68.8913 93.0706C68.7601 92.8171 68.5527 92.6231 68.2693 92.4889C67.9889 92.3517 67.6205 92.2831 67.164 92.2831H65.4278V100.262H64.0451ZM68.5691 96.127L70.8334 100.262H69.2583L67.0387 96.127H68.5691ZM74.9357 100.4C74.2585 100.4 73.6753 100.256 73.1861 99.9664C72.6998 99.674 72.3239 99.2638 72.0584 98.7358C71.7959 98.2048 71.6646 97.5828 71.6646 96.8698C71.6646 96.1657 71.7959 95.5452 72.0584 95.0082C72.3239 94.4713 72.6938 94.0521 73.1682 93.7508C73.6455 93.4495 74.2033 93.2989 74.8417 93.2989C75.2296 93.2989 75.6055 93.363 75.9694 93.4913C76.3334 93.6195 76.66 93.8209 76.9494 94.0954C77.2388 94.3698 77.467 94.7263 77.6341 95.1649C77.8011 95.6004 77.8846 96.1299 77.8846 96.7534V97.2278H72.4209V96.2254H76.5735C76.5735 95.8734 76.5019 95.5616 76.3587 95.2902C76.2155 95.0157 76.0142 94.7994 75.7546 94.6413C75.4981 94.4832 75.1968 94.4041 74.8507 94.4041C74.4748 94.4041 74.1467 94.4966 73.8662 94.6816C73.5888 94.8636 73.374 95.1022 73.2219 95.3976C73.0727 95.6899 72.9981 96.0076 72.9981 96.3507V97.1338C72.9981 97.5932 73.0787 97.984 73.2398 98.3062C73.4038 98.6284 73.632 98.8745 73.9244 99.0446C74.2168 99.2116 74.5583 99.2952 74.9491 99.2952C75.2027 99.2952 75.4339 99.2594 75.6427 99.1878C75.8516 99.1132 76.0321 99.0028 76.1842 98.8566C76.3364 98.7104 76.4527 98.53 76.5332 98.3152L77.7996 98.5434C77.6982 98.9163 77.5162 99.2429 77.2537 99.5234C76.9942 99.8008 76.6675 100.017 76.2737 100.172C75.8829 100.324 75.4369 100.4 74.9357 100.4ZM84.0096 102.839V99.1922H83.9291C83.8485 99.3384 83.7322 99.5055 83.58 99.6934C83.4309 99.8814 83.225 100.045 82.9625 100.186C82.7 100.326 82.3599 100.396 81.9422 100.396C81.3873 100.396 80.8921 100.254 80.4566 99.9709C80.024 99.6845 79.6839 99.2773 79.4363 98.7492C79.1917 98.2182 79.0694 97.5813 79.0694 96.8385C79.0694 96.0956 79.1932 95.4602 79.4408 94.9322C79.6914 94.4041 80.0344 93.9999 80.47 93.7195C80.9055 93.4391 81.3993 93.2989 81.9512 93.2989C82.3778 93.2989 82.7208 93.3704 82.9804 93.5136C83.2429 93.6539 83.4458 93.8179 83.589 94.0059C83.7351 94.1938 83.8485 94.3594 83.9291 94.5026H84.0409V93.3883H85.3476V102.839H84.0096ZM82.2376 99.2549C82.6224 99.2549 82.9476 99.1534 83.2131 98.9506C83.4816 98.7447 83.6844 98.4598 83.8217 98.0959C83.9619 97.7319 84.032 97.3083 84.032 96.825C84.032 96.3477 83.9634 95.9301 83.8261 95.5721C83.6889 95.2141 83.4875 94.9352 83.222 94.7353C82.9565 94.5354 82.6284 94.4355 82.2376 94.4355C81.8348 94.4355 81.4992 94.5399 81.2307 94.7487C80.9622 94.9575 80.7594 95.2424 80.6221 95.6034C80.4879 95.9644 80.4208 96.3716 80.4208 96.825C80.4208 97.2845 80.4894 97.6976 80.6266 98.0646C80.7638 98.4315 80.9667 98.7224 81.2352 98.9372C81.5067 99.149 81.8408 99.2549 82.2376 99.2549ZM91.5005 97.4112V93.3883H92.843V100.262H91.5274V99.0714H91.4558C91.2976 99.4383 91.0441 99.7441 90.695 99.9888C90.349 100.23 89.9179 100.351 89.4018 100.351C88.9603 100.351 88.5695 100.254 88.2294 100.06C87.8923 99.8635 87.6268 99.5726 87.4329 99.1878C87.2419 98.8029 87.1465 98.3271 87.1465 97.7603V93.3883H88.4845V97.5992C88.4845 98.0675 88.6142 98.4405 88.8738 98.7179C89.1333 98.9953 89.4704 99.1341 89.8851 99.1341C90.1357 99.1341 90.3848 99.0714 90.6324 98.9461C90.883 98.8208 91.0903 98.6314 91.2544 98.3778C91.4214 98.1242 91.5035 97.802 91.5005 97.4112ZM97.6031 100.4C96.9259 100.4 96.3427 100.256 95.8534 99.9664C95.3671 99.674 94.9913 99.2638 94.7258 98.7358C94.4632 98.2048 94.332 97.5828 94.332 96.8698C94.332 96.1657 94.4632 95.5452 94.7258 95.0082C94.9913 94.4713 95.3612 94.0521 95.8355 93.7508C96.3128 93.4495 96.8707 93.2989 97.5091 93.2989C97.8969 93.2989 98.2728 93.363 98.6368 93.4913C99.0007 93.6195 99.3274 93.8209 99.6168 94.0954C99.9061 94.3698 100.134 94.7263 100.301 95.1649C100.468 95.6004 100.552 96.1299 100.552 96.7534V97.2278H95.0882V96.2254H99.2409C99.2409 95.8734 99.1693 95.5616 99.0261 95.2902C98.8829 95.0157 98.6815 94.7994 98.422 94.6413C98.1654 94.4832 97.8641 94.4041 97.5181 94.4041C97.1422 94.4041 96.814 94.4966 96.5336 94.6816C96.2562 94.8636 96.0414 95.1022 95.8892 95.3976C95.7401 95.6899 95.6655 96.0076 95.6655 96.3507V97.1338C95.6655 97.5932 95.746 97.984 95.9071 98.3062C96.0712 98.6284 96.2994 98.8745 96.5918 99.0446C96.8841 99.2116 97.2257 99.2952 97.6165 99.2952C97.8701 99.2952 98.1013 99.2594 98.3101 99.1878C98.5189 99.1132 98.6994 99.0028 98.8516 98.8566C99.0037 98.7104 99.1201 98.53 99.2006 98.3152L100.467 98.5434C100.366 98.9163 100.184 99.2429 99.9211 99.5234C99.6615 99.8008 99.3349 100.017 98.9411 100.172C98.5503 100.324 98.1043 100.4 97.6031 100.4ZM107.187 95.0664L105.974 95.2812C105.924 95.1261 105.843 94.9784 105.733 94.8382C105.625 94.698 105.479 94.5831 105.294 94.4936C105.109 94.4041 104.878 94.3594 104.601 94.3594C104.222 94.3594 103.906 94.4444 103.652 94.6145C103.398 94.7815 103.272 94.9978 103.272 95.2633C103.272 95.493 103.357 95.678 103.527 95.8182C103.697 95.9584 103.971 96.0733 104.35 96.1628L105.442 96.4133C106.074 96.5595 106.546 96.7848 106.856 97.089C107.166 97.3933 107.321 97.7886 107.321 98.2749C107.321 98.6866 107.202 99.0535 106.963 99.3757C106.728 99.6949 106.398 99.9455 105.974 100.127C105.554 100.309 105.066 100.4 104.511 100.4C103.741 100.4 103.113 100.236 102.627 99.9082C102.141 99.5771 101.843 99.1072 101.732 98.4986L103.025 98.3017C103.106 98.6388 103.272 98.8939 103.522 99.0669C103.773 99.237 104.099 99.322 104.502 99.322C104.941 99.322 105.291 99.231 105.554 99.049C105.816 98.8641 105.948 98.6388 105.948 98.3733C105.948 98.1585 105.867 97.9781 105.706 97.8319C105.548 97.6857 105.305 97.5753 104.977 97.5007L103.813 97.2457C103.172 97.0995 102.697 96.8668 102.39 96.5476C102.086 96.2284 101.934 95.8242 101.934 95.3349C101.934 94.9292 102.047 94.5742 102.274 94.2699C102.5 93.9656 102.814 93.7284 103.213 93.5584C103.613 93.3854 104.071 93.2989 104.587 93.2989C105.33 93.2989 105.915 93.4599 106.341 93.7821C106.768 94.1013 107.05 94.5294 107.187 95.0664ZM112.001 93.3883V94.4623H108.247V93.3883H112.001ZM109.253 91.7416H110.591V98.2436C110.591 98.5031 110.63 98.6985 110.708 98.8298C110.785 98.958 110.885 99.0461 111.008 99.0938C111.133 99.1385 111.269 99.1609 111.415 99.1609C111.522 99.1609 111.616 99.1534 111.697 99.1385C111.777 99.1236 111.84 99.1117 111.885 99.1027L112.126 100.208C112.049 100.238 111.938 100.268 111.795 100.298C111.652 100.33 111.473 100.348 111.258 100.351C110.906 100.357 110.578 100.295 110.274 100.163C109.969 100.032 109.723 99.8291 109.535 99.5547C109.347 99.2802 109.253 98.9357 109.253 98.521V91.7416ZM116.923 100.262V91.0972H120.19C120.903 91.0972 121.494 91.227 121.962 91.4865C122.43 91.7461 122.781 92.1011 123.014 92.5515C123.246 92.999 123.363 93.5032 123.363 94.064C123.363 94.6279 123.245 95.135 123.009 95.5855C122.776 96.033 122.424 96.388 121.953 96.6505C121.485 96.9101 120.895 97.0398 120.185 97.0398H117.939V95.8674H120.06C120.511 95.8674 120.876 95.7899 121.156 95.6347C121.437 95.4766 121.643 95.2618 121.774 94.9903C121.905 94.7189 121.971 94.4101 121.971 94.064C121.971 93.718 121.905 93.4107 121.774 93.1422C121.643 92.8737 121.435 92.6634 121.152 92.5113C120.872 92.3591 120.502 92.2831 120.042 92.2831H118.306V100.262H116.923ZM126.815 100.414C126.379 100.414 125.986 100.333 125.634 100.172C125.282 100.008 125.003 99.771 124.797 99.4607C124.594 99.1505 124.492 98.7701 124.492 98.3196C124.492 97.9318 124.567 97.6126 124.716 97.362C124.865 97.1114 125.067 96.913 125.32 96.7669C125.574 96.6207 125.857 96.5103 126.171 96.4357C126.484 96.3611 126.803 96.3045 127.128 96.2657C127.54 96.2179 127.874 96.1792 128.131 96.1493C128.387 96.1165 128.574 96.0643 128.69 95.9927C128.806 95.9211 128.864 95.8048 128.864 95.6437V95.6123C128.864 95.2215 128.754 94.9187 128.533 94.704C128.315 94.4892 127.99 94.3818 127.558 94.3818C127.107 94.3818 126.752 94.4817 126.493 94.6816C126.236 94.8785 126.059 95.0977 125.96 95.3394L124.703 95.053C124.852 94.6353 125.07 94.2982 125.356 94.0417C125.645 93.7821 125.978 93.5942 126.354 93.4778C126.73 93.3585 127.125 93.2989 127.54 93.2989C127.814 93.2989 128.105 93.3317 128.412 93.3973C128.723 93.4599 129.012 93.5763 129.281 93.7463C129.552 93.9164 129.774 94.1595 129.947 94.4757C130.12 94.789 130.207 95.1962 130.207 95.6974V100.262H128.9V99.322H128.846C128.76 99.495 128.63 99.6651 128.457 99.8321C128.284 99.9992 128.062 100.138 127.79 100.248C127.519 100.359 127.194 100.414 126.815 100.414ZM127.106 99.3399C127.476 99.3399 127.792 99.2668 128.054 99.1206C128.32 98.9745 128.521 98.7835 128.659 98.5479C128.799 98.3092 128.869 98.0541 128.869 97.7827V96.8966C128.821 96.9444 128.729 96.9891 128.591 97.0309C128.457 97.0697 128.304 97.104 128.131 97.1338C127.957 97.1606 127.789 97.186 127.625 97.2099C127.461 97.2308 127.324 97.2487 127.213 97.2636C126.954 97.2964 126.716 97.3516 126.502 97.4291C126.29 97.5067 126.12 97.6186 125.992 97.7648C125.866 97.9079 125.804 98.0989 125.804 98.3375C125.804 98.6687 125.926 98.9193 126.171 99.0893C126.415 99.2564 126.727 99.3399 127.106 99.3399ZM132.589 102.839C132.389 102.839 132.207 102.823 132.043 102.79C131.879 102.76 131.756 102.727 131.676 102.692L131.998 101.595C132.243 101.661 132.46 101.689 132.651 101.68C132.842 101.671 133.011 101.6 133.157 101.465C133.306 101.331 133.437 101.112 133.551 100.808L133.716 100.351L131.201 93.3883H132.633L134.374 98.7224H134.446L136.186 93.3883H137.623L134.79 101.179C134.659 101.537 134.492 101.84 134.289 102.087C134.086 102.338 133.845 102.526 133.564 102.651C133.284 102.777 132.959 102.839 132.589 102.839ZM141.542 100.4C140.897 100.4 140.335 100.253 139.855 99.9574C139.374 99.6621 139.001 99.2489 138.736 98.7179C138.47 98.1869 138.338 97.5664 138.338 96.8564C138.338 96.1434 138.47 95.5199 138.736 94.9859C139.001 94.4519 139.374 94.0372 139.855 93.7419C140.335 93.4465 140.897 93.2989 141.542 93.2989C142.186 93.2989 142.748 93.4465 143.229 93.7419C143.709 94.0372 144.082 94.4519 144.347 94.9859C144.613 95.5199 144.746 96.1434 144.746 96.8564C144.746 97.5664 144.613 98.1869 144.347 98.7179C144.082 99.2489 143.709 99.6621 143.229 99.9574C142.748 100.253 142.186 100.4 141.542 100.4ZM141.546 99.2773C141.964 99.2773 142.31 99.1669 142.584 98.9461C142.859 98.7254 143.062 98.4315 143.193 98.0646C143.327 97.6976 143.394 97.2934 143.394 96.8519C143.394 96.4133 143.327 96.0106 143.193 95.6437C143.062 95.2738 142.859 94.9769 142.584 94.7532C142.31 94.5294 141.964 94.4176 141.546 94.4176C141.125 94.4176 140.776 94.5294 140.499 94.7532C140.225 94.9769 140.02 95.2738 139.886 95.6437C139.755 96.0106 139.689 96.4133 139.689 96.8519C139.689 97.2934 139.755 97.6976 139.886 98.0646C140.02 98.4315 140.225 98.7254 140.499 98.9461C140.776 99.1669 141.125 99.2773 141.546 99.2773ZM150.593 97.4112V93.3883H151.936V100.262H150.62V99.0714H150.548C150.39 99.4383 150.137 99.7441 149.788 99.9888C149.442 100.23 149.011 100.351 148.494 100.351C148.053 100.351 147.662 100.254 147.322 100.06C146.985 99.8635 146.719 99.5726 146.526 99.1878C146.335 98.8029 146.239 98.3271 146.239 97.7603V93.3883H147.577V97.5992C147.577 98.0675 147.707 98.4405 147.966 98.7179C148.226 98.9953 148.563 99.1341 148.978 99.1341C149.228 99.1341 149.477 99.0714 149.725 98.9461C149.976 98.8208 150.183 98.6314 150.347 98.3778C150.514 98.1242 150.596 97.802 150.593 97.4112ZM156.942 93.3883V94.4623H153.187V93.3883H156.942ZM154.194 91.7416H155.532V98.2436C155.532 98.5031 155.571 98.6985 155.649 98.8298C155.726 98.958 155.826 99.0461 155.948 99.0938C156.074 99.1385 156.209 99.1609 156.356 99.1609C156.463 99.1609 156.557 99.1534 156.638 99.1385C156.718 99.1236 156.781 99.1117 156.826 99.1027L157.067 100.208C156.99 100.238 156.879 100.268 156.736 100.298C156.593 100.33 156.414 100.348 156.199 100.351C155.847 100.357 155.519 100.295 155.215 100.163C154.91 100.032 154.664 99.8291 154.476 99.5547C154.288 99.2802 154.194 98.9357 154.194 98.521V91.7416Z" fill="white"/>
</g>
<defs>
<filter id="filter0_dd_2172_13551" x="0.440218" y="0.979351" width="219.682" height="138.344" filterUnits="userSpaceOnUse" color-interpolation-filters="sRGB">
<feFlood flood-opacity="0" result="BackgroundImageFix"/>
<feColorMatrix in="SourceAlpha" type="matrix" values="0 0 0 0 0 0 0 0 0 0 0 0 0 0 0 0 0 0 127 0" result="hardAlpha"/>
<feOffset dy="0.624094"/>
<feGaussianBlur stdDeviation="0.624094"/>
<feColorMatrix type="matrix" values="0 0 0 0 0.0627451 0 0 0 0 0.0941176 0 0 0 0 0.156863 0 0 0 0.06 0"/>
<feBlend mode="normal" in2="BackgroundImageFix" result="effect1_dropShadow_2172_13551"/>
<feColorMatrix in="SourceAlpha" type="matrix" values="0 0 0 0 0 0 0 0 0 0 0 0 0 0 0 0 0 0 127 0" result="hardAlpha"/>
<feOffset dy="0.624094"/>
<feGaussianBlur stdDeviation="0.936141"/>
<feColorMatrix type="matrix" values="0 0 0 0 0.0627451 0 0 0 0 0.0941176 0 0 0 0 0.156863 0 0 0 0.1 0"/>
<feBlend mode="normal" in2="effect1_dropShadow_2172_13551" result="effect2_dropShadow_2172_13551"/>
<feBlend mode="normal" in="SourceGraphic" in2="effect2_dropShadow_2172_13551" result="shape"/>
</filter>
</defs>
</svg>
