<svg width="358" height="71" viewBox="0 0 358 71" fill="none" xmlns="http://www.w3.org/2000/svg">
<g filter="url(#filter0_dd_2172_13574)">
<rect x="1.67773" y="2" width="354.3" height="66.225" rx="10.882" fill="white"/>
<path d="M22.5964 24.4949V23.4562C22.5964 23.1496 22.6541 22.8268 22.7695 22.4878C22.8849 22.1487 23.0454 21.8241 23.251 21.514C23.4566 21.2038 23.6982 20.9387 23.9759 20.7187L24.7766 21.2921C24.5566 21.6131 24.3691 21.9486 24.214 22.2984C24.0589 22.6483 23.9813 23.0288 23.9813 23.4399V24.4949H22.5964ZM25.3555 24.4949V23.4562C25.3555 23.1496 25.4132 22.8268 25.5286 22.4878C25.644 22.1487 25.8045 21.8241 26.0101 21.514C26.2157 21.2038 26.4573 20.9387 26.7351 20.7187L27.5358 21.2921C27.3157 21.6131 27.1282 21.9486 26.9731 22.2984C26.818 22.6483 26.7405 23.0288 26.7405 23.4399V24.4949H25.3555ZM35.0991 23.9431C35.0413 23.4309 34.8033 23.0342 34.3849 22.7529C33.9665 22.4679 33.44 22.3255 32.8052 22.3255C32.3507 22.3255 31.9576 22.3976 31.6258 22.5419C31.294 22.6825 31.0361 22.8773 30.8521 23.1262C30.6718 23.3714 30.5816 23.6509 30.5816 23.9647C30.5816 24.228 30.6429 24.4552 30.7656 24.6464C30.8918 24.8376 31.0559 24.998 31.2579 25.1279C31.4635 25.2541 31.6835 25.3605 31.9179 25.4471C32.1524 25.53 32.3778 25.5986 32.5942 25.6527L33.6762 25.934C34.0297 26.0206 34.3921 26.1378 34.7636 26.2856C35.1351 26.4335 35.4796 26.6283 35.797 26.8699C36.1143 27.1116 36.3704 27.4109 36.5652 27.768C36.7636 28.1251 36.8627 28.5525 36.8627 29.0502C36.8627 29.6778 36.7004 30.235 36.3758 30.7219C36.0548 31.2088 35.5878 31.5929 34.9746 31.8743C34.3651 32.1556 33.6275 32.2962 32.7619 32.2962C31.9324 32.2962 31.2146 32.1646 30.6087 31.9013C30.0028 31.638 29.5285 31.2647 29.1858 30.7814C28.8432 30.2945 28.6538 29.7174 28.6178 29.0502H30.2949C30.3274 29.4505 30.4572 29.7842 30.6844 30.0511C30.9153 30.3144 31.2092 30.5109 31.5663 30.6408C31.9269 30.767 32.3219 30.8301 32.7511 30.8301C33.2236 30.8301 33.6437 30.7562 34.0116 30.6083C34.3831 30.4568 34.6753 30.2476 34.8881 29.9807C35.1009 29.7102 35.2073 29.3946 35.2073 29.034C35.2073 28.7058 35.1135 28.4371 34.9259 28.2279C34.742 28.0187 34.4913 27.8456 34.1739 27.7085C33.8601 27.5714 33.5049 27.4506 33.1081 27.346L31.7989 26.989C30.9116 26.7473 30.2083 26.392 29.689 25.9232C29.1732 25.4543 28.9153 24.8339 28.9153 24.0621C28.9153 23.4237 29.0885 22.8665 29.4347 22.3904C29.7809 21.9143 30.2498 21.5446 30.8413 21.2813C31.4328 21.0144 32.1001 20.881 32.843 20.881C33.5932 20.881 34.2551 21.0126 34.8285 21.2759C35.4056 21.5392 35.8601 21.9017 36.1919 22.3633C36.5237 22.8214 36.6968 23.348 36.7113 23.9431H35.0991ZM42.6096 23.8024V25.1008H38.0705V23.8024H42.6096ZM39.2878 21.8115H40.9054V29.6724C40.9054 29.9861 40.9523 30.2224 41.0461 30.3811C41.1399 30.5362 41.2607 30.6426 41.4086 30.7003C41.56 30.7544 41.7241 30.7814 41.9009 30.7814C42.0307 30.7814 42.1443 30.7724 42.2417 30.7544C42.3391 30.7363 42.4148 30.7219 42.4689 30.7111L42.7611 32.0474C42.6673 32.0835 42.5339 32.1195 42.3607 32.1556C42.1876 32.1953 41.9712 32.2169 41.7115 32.2205C41.2859 32.2277 40.8892 32.152 40.5213 31.9933C40.1534 31.8346 39.8559 31.5893 39.6286 31.2575C39.4014 30.9257 39.2878 30.5091 39.2878 30.0078V21.8115ZM46.8173 32.2962C46.2907 32.2962 45.8146 32.1989 45.389 32.0041C44.9634 31.8057 44.6262 31.519 44.3773 31.1439C44.1321 30.7688 44.0095 30.3089 44.0095 29.7643C44.0095 29.2955 44.0996 28.9095 44.28 28.6066C44.4603 28.3036 44.7037 28.0638 45.0103 27.887C45.3169 27.7103 45.6595 27.5769 46.0382 27.4867C46.4169 27.3965 46.8029 27.328 47.196 27.2811C47.6937 27.2234 48.0977 27.1765 48.4078 27.1404C48.718 27.1008 48.9434 27.0376 49.0841 26.9511C49.2248 26.8645 49.2951 26.7239 49.2951 26.5291V26.4912C49.2951 26.0188 49.1616 25.6527 48.8948 25.393C48.6315 25.1333 48.2383 25.0035 47.7154 25.0035C47.1707 25.0035 46.7415 25.1243 46.4278 25.3659C46.1176 25.604 45.903 25.8691 45.784 26.1612L44.2637 25.815C44.4441 25.31 44.7074 24.9025 45.0536 24.5923C45.4034 24.2785 45.8056 24.0513 46.26 23.9106C46.7145 23.7664 47.1924 23.6942 47.6937 23.6942C48.0255 23.6942 48.3772 23.7339 48.7487 23.8132C49.1238 23.889 49.4736 24.0296 49.7982 24.2352C50.1264 24.4408 50.3951 24.7348 50.6043 25.1171C50.8135 25.4958 50.9181 25.9881 50.9181 26.594V32.1123H49.3384V30.9762H49.2735C49.1689 31.1854 49.012 31.391 48.8028 31.5929C48.5936 31.7949 48.3249 31.9626 47.9967 32.0961C47.6685 32.2295 47.2753 32.2962 46.8173 32.2962ZM47.1689 30.9978C47.6162 30.9978 47.9985 30.9095 48.3159 30.7327C48.6369 30.556 48.8803 30.3252 49.0462 30.0402C49.2158 29.7517 49.3005 29.4433 49.3005 29.1151V28.0439C49.2428 28.1016 49.131 28.1557 48.9651 28.2062C48.8028 28.2531 48.617 28.2946 48.4078 28.3307C48.1987 28.3631 47.9949 28.3938 47.7965 28.4226C47.5981 28.4479 47.4322 28.4695 47.2988 28.4876C46.985 28.5272 46.6983 28.5939 46.4386 28.6877C46.1825 28.7815 45.9769 28.9168 45.8218 29.0935C45.6703 29.2666 45.5946 29.4974 45.5946 29.786C45.5946 30.1863 45.7425 30.4893 46.0382 30.6949C46.334 30.8968 46.7109 30.9978 47.1689 30.9978ZM54.5605 29.2937L54.5496 27.319H54.831L58.1419 23.8024H60.0787L56.3025 27.8059H56.0482L54.5605 29.2937ZM53.0727 32.1123V21.0325H54.6903V32.1123H53.0727ZM58.3205 32.1123L55.3449 28.1629L56.4594 27.0322L60.306 32.1123H58.3205ZM64.7923 32.28C63.9735 32.28 63.2684 32.1051 62.6769 31.7552C62.089 31.4018 61.6346 30.9059 61.3136 30.2675C60.9962 29.6255 60.8375 28.8735 60.8375 28.0115C60.8375 27.1603 60.9962 26.4101 61.3136 25.7609C61.6346 25.1117 62.0818 24.6049 62.6553 24.2406C63.2324 23.8764 63.9068 23.6942 64.6787 23.6942C65.1475 23.6942 65.602 23.7718 66.042 23.9269C66.482 24.0819 66.877 24.3254 67.2268 24.6572C67.5767 24.989 67.8526 25.42 68.0546 25.9502C68.2565 26.4768 68.3575 27.117 68.3575 27.8708V28.4443H61.7518V27.2324H66.7724C66.7724 26.8068 66.6858 26.4299 66.5127 26.1017C66.3396 25.7699 66.0961 25.5084 65.7823 25.3172C65.4721 25.1261 65.1079 25.0305 64.6895 25.0305C64.235 25.0305 63.8383 25.1423 63.4993 25.3659C63.1638 25.5859 62.9042 25.8745 62.7202 26.2315C62.5399 26.585 62.4497 26.9691 62.4497 27.3839V28.3307C62.4497 28.8861 62.5471 29.3586 62.7419 29.7481C62.9402 30.1376 63.2161 30.4352 63.5696 30.6408C63.9231 30.8427 64.336 30.9437 64.8085 30.9437C65.1151 30.9437 65.3946 30.9004 65.6471 30.8139C65.8995 30.7237 66.1177 30.5903 66.3017 30.4135C66.4856 30.2368 66.6263 30.0186 66.7237 29.7589L68.2547 30.0348C68.1321 30.4857 67.9121 30.8806 67.5947 31.2196C67.2809 31.5551 66.886 31.8166 66.4099 32.0041C65.9374 32.188 65.3982 32.28 64.7923 32.28ZM73.6526 32.28C72.8483 32.28 72.1558 32.0979 71.5752 31.7336C70.9981 31.3657 70.5545 30.859 70.2443 30.2134C69.9341 29.5678 69.779 28.8284 69.779 27.9952C69.779 27.1513 69.9377 26.4065 70.2551 25.7609C70.5725 25.1117 71.0197 24.6049 71.5968 24.2406C72.1739 23.8764 72.8537 23.6942 73.6364 23.6942C74.2676 23.6942 74.8302 23.8114 75.3243 24.0459C75.8185 24.2767 76.217 24.6013 76.52 25.0197C76.8265 25.4381 77.0087 25.9268 77.0664 26.4858H75.4921C75.4055 26.0963 75.2071 25.7609 74.8969 25.4795C74.5904 25.1982 74.1792 25.0576 73.6634 25.0576C73.2126 25.0576 72.8177 25.1766 72.4786 25.4146C72.1432 25.6491 71.8817 25.9845 71.6942 26.4209C71.5066 26.8537 71.4129 27.3659 71.4129 27.9574C71.4129 28.5633 71.5048 29.0863 71.6888 29.5263C71.8727 29.9663 72.1324 30.3071 72.4678 30.5488C72.8069 30.7904 73.2054 30.9113 73.6634 30.9113C73.97 30.9113 74.2477 30.8554 74.4966 30.7436C74.7491 30.6281 74.9601 30.464 75.1296 30.2512C75.3027 30.0384 75.4235 29.7824 75.4921 29.483H77.0664C77.0087 30.0204 76.8338 30.5001 76.5416 30.9221C76.2495 31.3441 75.8581 31.6759 75.3676 31.9175C74.8807 32.1592 74.3091 32.28 73.6526 32.28ZM84.0603 28.6661V23.8024H85.6833V32.1123H84.0927V30.6732H84.0062C83.815 31.1169 83.5084 31.4865 83.0865 31.7823C82.6681 32.0744 82.1469 32.2205 81.5229 32.2205C80.9891 32.2205 80.5167 32.1033 80.1055 31.8689C79.6979 31.6308 79.3769 31.2792 79.1425 30.8139C78.9117 30.3486 78.7963 29.7733 78.7963 29.0881V23.8024H80.4139V28.8933C80.4139 29.4596 80.5708 29.9104 80.8846 30.2458C81.1983 30.5813 81.6059 30.749 82.1072 30.749C82.4102 30.749 82.7114 30.6732 83.0107 30.5217C83.3137 30.3703 83.5643 30.1412 83.7627 29.8347C83.9647 29.5281 84.0639 29.1386 84.0603 28.6661ZM91.7358 23.8024V25.1008H87.1968V23.8024H91.7358ZM88.414 21.8115H90.0316V29.6724C90.0316 29.9861 90.0785 30.2224 90.1723 30.3811C90.2661 30.5362 90.3869 30.6426 90.5348 30.7003C90.6863 30.7544 90.8504 30.7814 91.0271 30.7814C91.1569 30.7814 91.2705 30.7724 91.3679 30.7544C91.4653 30.7363 91.5411 30.7219 91.5952 30.7111L91.8873 32.0474C91.7935 32.0835 91.6601 32.1195 91.487 32.1556C91.3138 32.1953 91.0974 32.2169 90.8377 32.2205C90.4122 32.2277 90.0154 32.152 89.6475 31.9933C89.2796 31.8346 88.9821 31.5893 88.7549 31.2575C88.5276 30.9257 88.414 30.5091 88.414 30.0078V21.8115ZM97.5571 32.1123V23.8024H99.1747V32.1123H97.5571ZM98.374 22.5202C98.0927 22.5202 97.851 22.4265 97.649 22.2389C97.4507 22.0478 97.3515 21.8205 97.3515 21.5572C97.3515 21.2903 97.4507 21.0631 97.649 20.8756C97.851 20.6844 98.0927 20.5888 98.374 20.5888C98.6553 20.5888 98.8952 20.6844 99.0935 20.8756C99.2955 21.0631 99.3965 21.2903 99.3965 21.5572C99.3965 21.8205 99.2955 22.0478 99.0935 22.2389C98.8952 22.4265 98.6553 22.5202 98.374 22.5202ZM107.578 25.8312L106.112 26.0909C106.05 25.9033 105.953 25.7248 105.82 25.5553C105.69 25.3858 105.513 25.2469 105.289 25.1387C105.066 25.0305 104.786 24.9764 104.451 24.9764C103.993 24.9764 103.61 25.0792 103.304 25.2848C102.997 25.4868 102.844 25.7482 102.844 26.0692C102.844 26.347 102.947 26.5706 103.152 26.7401C103.358 26.9096 103.69 27.0485 104.148 27.1567L105.468 27.4596C106.233 27.6364 106.802 27.9087 107.178 28.2766C107.553 28.6444 107.74 29.1223 107.74 29.7102C107.74 30.208 107.596 30.6516 107.307 31.0411C107.022 31.427 106.624 31.73 106.112 31.95C105.603 32.17 105.014 32.28 104.343 32.28C103.412 32.28 102.653 32.0816 102.065 31.6849C101.477 31.2846 101.116 30.7165 100.983 29.9807L102.547 29.7427C102.644 30.1502 102.844 30.4586 103.147 30.6678C103.45 30.8734 103.845 30.9762 104.332 30.9762C104.862 30.9762 105.286 30.8662 105.603 30.6462C105.921 30.4226 106.079 30.1502 106.079 29.8293C106.079 29.5696 105.982 29.3514 105.787 29.1746C105.596 28.9979 105.302 28.8645 104.905 28.7743L103.499 28.4659C102.723 28.2892 102.15 28.0079 101.778 27.6219C101.41 27.236 101.226 26.7473 101.226 26.1558C101.226 25.6653 101.364 25.2361 101.638 24.8682C101.912 24.5003 102.29 24.2136 102.774 24.008C103.257 23.7988 103.811 23.6942 104.435 23.6942C105.333 23.6942 106.04 23.889 106.555 24.2785C107.071 24.6644 107.412 25.182 107.578 25.8312ZM115.969 32.2962C115.442 32.2962 114.966 32.1989 114.541 32.0041C114.115 31.8057 113.778 31.519 113.529 31.1439C113.284 30.7688 113.161 30.3089 113.161 29.7643C113.161 29.2955 113.251 28.9095 113.432 28.6066C113.612 28.3036 113.855 28.0638 114.162 27.887C114.469 27.7103 114.811 27.5769 115.19 27.4867C115.569 27.3965 115.954 27.328 116.348 27.2811C116.845 27.2234 117.249 27.1765 117.559 27.1404C117.87 27.1008 118.095 27.0376 118.236 26.9511C118.376 26.8645 118.447 26.7239 118.447 26.5291V26.4912C118.447 26.0188 118.313 25.6527 118.046 25.393C117.783 25.1333 117.39 25.0035 116.867 25.0035C116.322 25.0035 115.893 25.1243 115.579 25.3659C115.269 25.604 115.055 25.8691 114.936 26.1612L113.415 25.815C113.596 25.31 113.859 24.9025 114.205 24.5923C114.555 24.2785 114.957 24.0513 115.412 23.9106C115.866 23.7664 116.344 23.6942 116.845 23.6942C117.177 23.6942 117.529 23.7339 117.9 23.8132C118.275 23.889 118.625 24.0296 118.95 24.2352C119.278 24.4408 119.547 24.7348 119.756 25.1171C119.965 25.4958 120.07 25.9881 120.07 26.594V32.1123H118.49V30.9762H118.425C118.321 31.1854 118.164 31.391 117.954 31.5929C117.745 31.7949 117.477 31.9626 117.148 32.0961C116.82 32.2295 116.427 32.2962 115.969 32.2962ZM116.321 30.9978C116.768 30.9978 117.15 30.9095 117.468 30.7327C117.789 30.556 118.032 30.3252 118.198 30.0402C118.367 29.7517 118.452 29.4433 118.452 29.1151V28.0439C118.394 28.1016 118.283 28.1557 118.117 28.2062C117.954 28.2531 117.769 28.2946 117.559 28.3307C117.35 28.3631 117.147 28.3938 116.948 28.4226C116.75 28.4479 116.584 28.4695 116.45 28.4876C116.137 28.5272 115.85 28.5939 115.59 28.6877C115.334 28.7815 115.129 28.9168 114.973 29.0935C114.822 29.2666 114.746 29.4974 114.746 29.786C114.746 30.1863 114.894 30.4893 115.19 30.6949C115.486 30.8968 115.863 30.9978 116.321 30.9978ZM122.224 32.1123V23.8024H123.777V25.1549H123.88C124.053 24.6969 124.336 24.3398 124.729 24.0837C125.122 23.8241 125.593 23.6942 126.141 23.6942C126.697 23.6942 127.162 23.8241 127.537 24.0837C127.916 24.3434 128.195 24.7005 128.376 25.1549H128.462C128.661 24.7113 128.976 24.3579 129.409 24.0946C129.842 23.8277 130.357 23.6942 130.956 23.6942C131.71 23.6942 132.325 23.9305 132.801 24.4029C133.281 24.8754 133.521 25.5877 133.521 26.5399V32.1123H131.903V26.6914C131.903 26.1288 131.75 25.7212 131.443 25.4687C131.137 25.2163 130.77 25.09 130.345 25.09C129.818 25.09 129.409 25.2523 129.117 25.5769C128.825 25.8979 128.679 26.3109 128.679 26.8158V32.1123H127.066V26.5886C127.066 26.1378 126.926 25.7753 126.644 25.5012C126.363 25.2271 125.997 25.09 125.546 25.09C125.24 25.09 124.956 25.1712 124.697 25.3335C124.441 25.4922 124.233 25.714 124.075 25.9989C123.919 26.2838 123.842 26.6139 123.842 26.989V32.1123H122.224ZM138.107 32.2962C137.58 32.2962 137.104 32.1989 136.679 32.0041C136.253 31.8057 135.916 31.519 135.667 31.1439C135.422 30.7688 135.299 30.3089 135.299 29.7643C135.299 29.2955 135.389 28.9095 135.57 28.6066C135.75 28.3036 135.993 28.0638 136.3 27.887C136.607 27.7103 136.949 27.5769 137.328 27.4867C137.707 27.3965 138.093 27.328 138.486 27.2811C138.983 27.2234 139.387 27.1765 139.698 27.1404C140.008 27.1008 140.233 27.0376 140.374 26.9511C140.514 26.8645 140.585 26.7239 140.585 26.5291V26.4912C140.585 26.0188 140.451 25.6527 140.184 25.393C139.921 25.1333 139.528 25.0035 139.005 25.0035C138.46 25.0035 138.031 25.1243 137.717 25.3659C137.407 25.604 137.193 25.8691 137.074 26.1612L135.553 25.815C135.734 25.31 135.997 24.9025 136.343 24.5923C136.693 24.2785 137.095 24.0513 137.55 23.9106C138.004 23.7664 138.482 23.6942 138.983 23.6942C139.315 23.6942 139.667 23.7339 140.038 23.8132C140.413 23.889 140.763 24.0296 141.088 24.2352C141.416 24.4408 141.685 24.7348 141.894 25.1171C142.103 25.4958 142.208 25.9881 142.208 26.594V32.1123H140.628V30.9762H140.563C140.459 31.1854 140.302 31.391 140.092 31.5929C139.883 31.7949 139.615 31.9626 139.286 32.0961C138.958 32.2295 138.565 32.2962 138.107 32.2962ZM138.459 30.9978C138.906 30.9978 139.288 30.9095 139.606 30.7327C139.927 30.556 140.17 30.3252 140.336 30.0402C140.505 29.7517 140.59 29.4433 140.59 29.1151V28.0439C140.532 28.1016 140.421 28.1557 140.255 28.2062C140.092 28.2531 139.907 28.2946 139.698 28.3307C139.488 28.3631 139.285 28.3938 139.086 28.4226C138.888 28.4479 138.722 28.4695 138.588 28.4876C138.275 28.5272 137.988 28.5939 137.728 28.6877C137.472 28.7815 137.267 28.9168 137.112 29.0935C136.96 29.2666 136.884 29.4974 136.884 29.786C136.884 30.1863 137.032 30.4893 137.328 30.6949C137.624 30.8968 138.001 30.9978 138.459 30.9978ZM144.189 32.1123V31.0032L148.69 25.2848V25.209H144.335V23.8024H150.708V24.9818L146.38 30.6299V30.7057H150.86V32.1123H144.189ZM152.768 32.1123V23.8024H154.386V32.1123H152.768ZM153.585 22.5202C153.304 22.5202 153.062 22.4265 152.86 22.2389C152.662 22.0478 152.563 21.8205 152.563 21.5572C152.563 21.2903 152.662 21.0631 152.86 20.8756C153.062 20.6844 153.304 20.5888 153.585 20.5888C153.867 20.5888 154.106 20.6844 154.305 20.8756C154.507 21.0631 154.608 21.2903 154.608 21.5572C154.608 21.8205 154.507 22.0478 154.305 22.2389C154.106 22.4265 153.867 22.5202 153.585 22.5202ZM158.18 27.1783V32.1123H156.562V23.8024H158.115V25.1549H158.218C158.409 24.7149 158.708 24.3615 159.116 24.0946C159.527 23.8277 160.044 23.6942 160.668 23.6942C161.235 23.6942 161.731 23.8132 162.156 24.0513C162.582 24.2857 162.912 24.6356 163.146 25.1008C163.381 25.5661 163.498 26.1414 163.498 26.8267V32.1123H161.88V27.0214C161.88 26.4191 161.723 25.9484 161.41 25.6094C161.096 25.2668 160.665 25.0954 160.117 25.0954C159.741 25.0954 159.408 25.1766 159.116 25.3389C158.827 25.5012 158.598 25.7392 158.429 26.053C158.263 26.3632 158.18 26.7383 158.18 27.1783ZM169.151 35.4016C168.491 35.4016 167.923 35.3151 167.447 35.1419C166.975 34.9688 166.589 34.7398 166.289 34.4549C165.99 34.1699 165.766 33.858 165.619 33.5189L167.009 32.9455C167.106 33.1042 167.236 33.2719 167.398 33.4486C167.564 33.6289 167.788 33.7822 168.069 33.9085C168.354 34.0347 168.72 34.0978 169.168 34.0978C169.781 34.0978 170.287 33.9481 170.688 33.6488C171.088 33.353 171.288 32.8805 171.288 32.2313V30.5975H171.186C171.088 30.7742 170.947 30.9708 170.764 31.1872C170.583 31.4036 170.334 31.5911 170.017 31.7498C169.7 31.9085 169.287 31.9879 168.778 31.9879C168.122 31.9879 167.53 31.8346 167.004 31.528C166.481 31.2178 166.066 30.7616 165.759 30.1593C165.456 29.5533 165.305 28.8085 165.305 27.9249C165.305 27.0413 165.454 26.2838 165.754 25.6527C166.057 25.0215 166.472 24.5382 166.998 24.2028C167.525 23.8637 168.122 23.6942 168.789 23.6942C169.305 23.6942 169.721 23.7808 170.039 23.9539C170.356 24.1234 170.603 24.3218 170.78 24.549C170.96 24.7762 171.099 24.9764 171.196 25.1495H171.315V23.8024H172.901V32.2962C172.901 33.0104 172.735 33.5965 172.403 34.0545C172.071 34.5126 171.622 34.8516 171.056 35.0716C170.493 35.2916 169.858 35.4016 169.151 35.4016ZM169.135 30.6462C169.6 30.6462 169.994 30.538 170.315 30.3216C170.639 30.1016 170.884 29.7878 171.05 29.3802C171.22 28.969 171.305 28.4767 171.305 27.9033C171.305 27.3442 171.222 26.8519 171.056 26.4263C170.89 26.0007 170.646 25.6689 170.325 25.4309C170.004 25.1892 169.608 25.0684 169.135 25.0684C168.648 25.0684 168.242 25.1946 167.918 25.4471C167.593 25.696 167.348 26.035 167.182 26.4642C167.02 26.8934 166.939 27.3731 166.939 27.9033C166.939 28.4479 167.022 28.9258 167.187 29.3369C167.353 29.7481 167.599 30.0691 167.923 30.2999C168.251 30.5308 168.655 30.6462 169.135 30.6462ZM176.136 32.2151C175.84 32.2151 175.586 32.1105 175.373 31.9013C175.16 31.6885 175.054 31.4324 175.054 31.1331C175.054 30.8373 175.16 30.5849 175.373 30.3757C175.586 30.1629 175.84 30.0565 176.136 30.0565C176.432 30.0565 176.686 30.1629 176.899 30.3757C177.111 30.5849 177.218 30.8373 177.218 31.1331C177.218 31.3314 177.167 31.5136 177.066 31.6795C176.969 31.8418 176.839 31.9716 176.677 32.069C176.514 32.1664 176.334 32.2151 176.136 32.2151ZM185.039 21.0325V32.1123H183.368V21.0325H185.039ZM195.255 23.8024V25.1008H190.716V23.8024H195.255ZM191.933 21.8115H193.551V29.6724C193.551 29.9861 193.598 30.2224 193.691 30.3811C193.785 30.5362 193.906 30.6426 194.054 30.7003C194.205 30.7544 194.37 30.7814 194.546 30.7814C194.676 30.7814 194.79 30.7724 194.887 30.7544C194.984 30.7363 195.06 30.7219 195.114 30.7111L195.406 32.0474C195.313 32.0835 195.179 32.1195 195.006 32.1556C194.833 32.1953 194.617 32.2169 194.357 32.2205C193.931 32.2277 193.535 32.152 193.167 31.9933C192.799 31.8346 192.501 31.5893 192.274 31.2575C192.047 30.9257 191.933 30.5091 191.933 30.0078V21.8115ZM200.455 32.28C199.676 32.28 198.997 32.1015 198.416 31.7444C197.835 31.3874 197.384 30.8878 197.063 30.2458C196.742 29.6038 196.582 28.8536 196.582 27.9952C196.582 27.1332 196.742 26.3794 197.063 25.7338C197.384 25.0882 197.835 24.5869 198.416 24.2298C198.997 23.8728 199.676 23.6942 200.455 23.6942C201.234 23.6942 201.914 23.8728 202.495 24.2298C203.076 24.5869 203.527 25.0882 203.848 25.7338C204.169 26.3794 204.329 27.1332 204.329 27.9952C204.329 28.8536 204.169 29.6038 203.848 30.2458C203.527 30.8878 203.076 31.3874 202.495 31.7444C201.914 32.1015 201.234 32.28 200.455 32.28ZM200.461 30.9221C200.966 30.9221 201.384 30.7886 201.716 30.5217C202.048 30.2548 202.293 29.8996 202.452 29.456C202.614 29.0123 202.695 28.5236 202.695 27.9898C202.695 27.4596 202.614 26.9727 202.452 26.5291C202.293 26.0819 202.048 25.723 201.716 25.4525C201.384 25.182 200.966 25.0467 200.461 25.0467C199.952 25.0467 199.53 25.182 199.195 25.4525C198.863 25.723 198.616 26.0819 198.454 26.5291C198.295 26.9727 198.216 27.4596 198.216 27.9898C198.216 28.5236 198.295 29.0123 198.454 29.456C198.616 29.8996 198.863 30.2548 199.195 30.5217C199.53 30.7886 199.952 30.9221 200.461 30.9221ZM210.014 23.8024V25.1008H205.475V23.8024H210.014ZM206.692 21.8115H208.31V29.6724C208.31 29.9861 208.356 30.2224 208.45 30.3811C208.544 30.5362 208.665 30.6426 208.813 30.7003C208.964 30.7544 209.128 30.7814 209.305 30.7814C209.435 30.7814 209.548 30.7724 209.646 30.7544C209.743 30.7363 209.819 30.7219 209.873 30.7111L210.165 32.0474C210.071 32.0835 209.938 32.1195 209.765 32.1556C209.592 32.1953 209.375 32.2169 209.116 32.2205C208.69 32.2277 208.293 32.152 207.925 31.9933C207.558 31.8346 207.26 31.5893 207.033 31.2575C206.806 30.9257 206.692 30.5091 206.692 30.0078V21.8115ZM214.221 32.2962C213.695 32.2962 213.219 32.1989 212.793 32.0041C212.368 31.8057 212.03 31.519 211.781 31.1439C211.536 30.7688 211.414 30.3089 211.414 29.7643C211.414 29.2955 211.504 28.9095 211.684 28.6066C211.864 28.3036 212.108 28.0638 212.414 27.887C212.721 27.7103 213.064 27.5769 213.442 27.4867C213.821 27.3965 214.207 27.328 214.6 27.2811C215.098 27.2234 215.502 27.1765 215.812 27.1404C216.122 27.1008 216.348 27.0376 216.488 26.9511C216.629 26.8645 216.699 26.7239 216.699 26.5291V26.4912C216.699 26.0188 216.566 25.6527 216.299 25.393C216.036 25.1333 215.642 25.0035 215.119 25.0035C214.575 25.0035 214.146 25.1243 213.832 25.3659C213.522 25.604 213.307 25.8691 213.188 26.1612L211.668 25.815C211.848 25.31 212.111 24.9025 212.458 24.5923C212.808 24.2785 213.21 24.0513 213.664 23.9106C214.119 23.7664 214.596 23.6942 215.098 23.6942C215.43 23.6942 215.781 23.7339 216.153 23.8132C216.528 23.889 216.878 24.0296 217.202 24.2352C217.531 24.4408 217.799 24.7348 218.008 25.1171C218.218 25.4958 218.322 25.9881 218.322 26.594V32.1123H216.742V30.9762H216.678C216.573 31.1854 216.416 31.391 216.207 31.5929C215.998 31.7949 215.729 31.9626 215.401 32.0961C215.073 32.2295 214.679 32.2962 214.221 32.2962ZM214.573 30.9978C215.02 30.9978 215.403 30.9095 215.72 30.7327C216.041 30.556 216.284 30.3252 216.45 30.0402C216.62 29.7517 216.705 29.4433 216.705 29.1151V28.0439C216.647 28.1016 216.535 28.1557 216.369 28.2062C216.207 28.2531 216.021 28.2946 215.812 28.3307C215.603 28.3631 215.399 28.3938 215.201 28.4226C215.002 28.4479 214.836 28.4695 214.703 28.4876C214.389 28.5272 214.102 28.5939 213.843 28.6877C213.587 28.7815 213.381 28.9168 213.226 29.0935C213.074 29.2666 212.999 29.4974 212.999 29.786C212.999 30.1863 213.147 30.4893 213.442 30.6949C213.738 30.8968 214.115 30.9978 214.573 30.9978ZM222.094 21.0325V32.1123H220.477V21.0325H222.094ZM225.888 21.0325V32.1123H224.271V21.0325H225.888ZM229.087 35.2285C228.845 35.2285 228.625 35.2087 228.427 35.169C228.229 35.1329 228.081 35.0933 227.983 35.05L228.373 33.7245C228.669 33.8039 228.932 33.8381 229.163 33.8273C229.393 33.8165 229.597 33.7299 229.774 33.5676C229.954 33.4053 230.113 33.1402 230.25 32.7723L230.45 32.2205L227.41 23.8024H229.141L231.246 30.2512H231.332L233.437 23.8024H235.173L231.749 33.2214C231.59 33.6542 231.388 34.0203 231.143 34.3196C230.897 34.6226 230.605 34.8498 230.266 35.0013C229.927 35.1528 229.534 35.2285 229.087 35.2285ZM240.725 32.1123V23.8024H242.289V25.1225H242.375C242.527 24.6752 242.794 24.3236 243.176 24.0675C243.562 23.8078 243.998 23.678 244.485 23.678C244.586 23.678 244.705 23.6816 244.842 23.6888C244.983 23.696 245.093 23.705 245.172 23.7159V25.2631C245.108 25.2451 244.992 25.2253 244.826 25.2036C244.66 25.1784 244.494 25.1658 244.328 25.1658C243.946 25.1658 243.605 25.2469 243.306 25.4092C243.01 25.5679 242.776 25.7897 242.603 26.0747C242.43 26.356 242.343 26.677 242.343 27.0376V32.1123H240.725ZM249.856 32.28C249.037 32.28 248.332 32.1051 247.741 31.7552C247.153 31.4018 246.699 30.9059 246.378 30.2675C246.06 29.6255 245.901 28.8735 245.901 28.0115C245.901 27.1603 246.06 26.4101 246.378 25.7609C246.699 25.1117 247.146 24.6049 247.719 24.2406C248.296 23.8764 248.971 23.6942 249.743 23.6942C250.211 23.6942 250.666 23.7718 251.106 23.9269C251.546 24.0819 251.941 24.3254 252.291 24.6572C252.641 24.989 252.917 25.42 253.118 25.9502C253.32 26.4768 253.421 27.117 253.421 27.8708V28.4443H246.816V27.2324H251.836C251.836 26.8068 251.75 26.4299 251.577 26.1017C251.403 25.7699 251.16 25.5084 250.846 25.3172C250.536 25.1261 250.172 25.0305 249.753 25.0305C249.299 25.0305 248.902 25.1423 248.563 25.3659C248.228 25.5859 247.968 25.8745 247.784 26.2315C247.604 26.585 247.514 26.9691 247.514 27.3839V28.3307C247.514 28.8861 247.611 29.3586 247.806 29.7481C248.004 30.1376 248.28 30.4352 248.634 30.6408C248.987 30.8427 249.4 30.9437 249.872 30.9437C250.179 30.9437 250.459 30.9004 250.711 30.8139C250.963 30.7237 251.182 30.5903 251.366 30.4135C251.55 30.2368 251.69 30.0186 251.788 29.7589L253.319 30.0348C253.196 30.4857 252.976 30.8806 252.659 31.2196C252.345 31.5551 251.95 31.8166 251.474 32.0041C251.001 32.188 250.462 32.28 249.856 32.28ZM258.717 32.28C257.912 32.28 257.22 32.0979 256.639 31.7336C256.062 31.3657 255.618 30.859 255.308 30.2134C254.998 29.5678 254.843 28.8284 254.843 27.9952C254.843 27.1513 255.002 26.4065 255.319 25.7609C255.636 25.1117 256.084 24.6049 256.661 24.2406C257.238 23.8764 257.918 23.6942 258.7 23.6942C259.332 23.6942 259.894 23.8114 260.388 24.0459C260.882 24.2767 261.281 24.6013 261.584 25.0197C261.89 25.4381 262.073 25.9268 262.13 26.4858H260.556C260.469 26.0963 260.271 25.7609 259.961 25.4795C259.654 25.1982 259.243 25.0576 258.727 25.0576C258.277 25.0576 257.882 25.1766 257.543 25.4146C257.207 25.6491 256.946 25.9845 256.758 26.4209C256.571 26.8537 256.477 27.3659 256.477 27.9574C256.477 28.5633 256.569 29.0863 256.753 29.5263C256.937 29.9663 257.196 30.3071 257.532 30.5488C257.871 30.7904 258.269 30.9113 258.727 30.9113C259.034 30.9113 259.312 30.8554 259.561 30.7436C259.813 30.6281 260.024 30.464 260.194 30.2512C260.367 30.0384 260.487 29.7824 260.556 29.483H262.13C262.073 30.0204 261.898 30.5001 261.606 30.9221C261.313 31.3441 260.922 31.6759 260.432 31.9175C259.945 32.1592 259.373 32.28 258.717 32.28ZM267.361 32.28C266.581 32.28 265.902 32.1015 265.321 31.7444C264.74 31.3874 264.289 30.8878 263.968 30.2458C263.647 29.6038 263.487 28.8536 263.487 27.9952C263.487 27.1332 263.647 26.3794 263.968 25.7338C264.289 25.0882 264.74 24.5869 265.321 24.2298C265.902 23.8728 266.581 23.6942 267.361 23.6942C268.14 23.6942 268.819 23.8728 269.4 24.2298C269.981 24.5869 270.432 25.0882 270.753 25.7338C271.074 26.3794 271.234 27.1332 271.234 27.9952C271.234 28.8536 271.074 29.6038 270.753 30.2458C270.432 30.8878 269.981 31.3874 269.4 31.7444C268.819 32.1015 268.14 32.28 267.361 32.28ZM267.366 30.9221C267.871 30.9221 268.289 30.7886 268.621 30.5217C268.953 30.2548 269.198 29.8996 269.357 29.456C269.519 29.0123 269.6 28.5236 269.6 27.9898C269.6 27.4596 269.519 26.9727 269.357 26.5291C269.198 26.0819 268.953 25.723 268.621 25.4525C268.289 25.182 267.871 25.0467 267.366 25.0467C266.857 25.0467 266.435 25.182 266.1 25.4525C265.768 25.723 265.521 26.0819 265.359 26.5291C265.2 26.9727 265.121 27.4596 265.121 27.9898C265.121 28.5236 265.2 29.0123 265.359 29.456C265.521 29.8996 265.768 30.2548 266.1 30.5217C266.435 30.7886 266.857 30.9221 267.366 30.9221ZM273.04 32.1123V23.8024H274.592V25.1549H274.695C274.868 24.6969 275.151 24.3398 275.545 24.0837C275.938 23.8241 276.408 23.6942 276.957 23.6942C277.512 23.6942 277.977 23.8241 278.352 24.0837C278.731 24.3434 279.011 24.7005 279.191 25.1549H279.278C279.476 24.7113 279.792 24.3579 280.224 24.0946C280.657 23.8277 281.173 23.6942 281.772 23.6942C282.525 23.6942 283.14 23.9305 283.616 24.4029C284.096 24.8754 284.336 25.5877 284.336 26.5399V32.1123H282.718V26.6914C282.718 26.1288 282.565 25.7212 282.259 25.4687C281.952 25.2163 281.586 25.09 281.16 25.09C280.634 25.09 280.224 25.2523 279.932 25.5769C279.64 25.8979 279.494 26.3109 279.494 26.8158V32.1123H277.882V26.5886C277.882 26.1378 277.741 25.7753 277.46 25.5012C277.178 25.2271 276.812 25.09 276.362 25.09C276.055 25.09 275.772 25.1712 275.512 25.3335C275.256 25.4922 275.049 25.714 274.89 25.9989C274.735 26.2838 274.657 26.6139 274.657 26.989V32.1123H273.04ZM286.504 32.1123V23.8024H288.057V25.1549H288.16C288.333 24.6969 288.616 24.3398 289.009 24.0837C289.402 23.8241 289.873 23.6942 290.421 23.6942C290.976 23.6942 291.442 23.8241 291.817 24.0837C292.195 24.3434 292.475 24.7005 292.655 25.1549H292.742C292.94 24.7113 293.256 24.3579 293.689 24.0946C294.121 23.8277 294.637 23.6942 295.236 23.6942C295.99 23.6942 296.605 23.9305 297.081 24.4029C297.56 24.8754 297.8 25.5877 297.8 26.5399V32.1123H296.183V26.6914C296.183 26.1288 296.029 25.7212 295.723 25.4687C295.416 25.2163 295.05 25.09 294.625 25.09C294.098 25.09 293.689 25.2523 293.397 25.5769C293.104 25.8979 292.958 26.3109 292.958 26.8158V32.1123H291.346V26.5886C291.346 26.1378 291.205 25.7753 290.924 25.5012C290.643 25.2271 290.277 25.09 289.826 25.09C289.519 25.09 289.236 25.1712 288.976 25.3335C288.72 25.4922 288.513 25.714 288.354 25.9989C288.199 26.2838 288.122 26.6139 288.122 26.989V32.1123H286.504ZM303.55 32.28C302.731 32.28 302.026 32.1051 301.435 31.7552C300.847 31.4018 300.392 30.9059 300.071 30.2675C299.754 29.6255 299.595 28.8735 299.595 28.0115C299.595 27.1603 299.754 26.4101 300.071 25.7609C300.392 25.1117 300.839 24.6049 301.413 24.2406C301.99 23.8764 302.664 23.6942 303.436 23.6942C303.905 23.6942 304.36 23.7718 304.8 23.9269C305.24 24.0819 305.635 24.3254 305.984 24.6572C306.334 24.989 306.61 25.42 306.812 25.9502C307.014 26.4768 307.115 27.117 307.115 27.8708V28.4443H300.509V27.2324H305.53C305.53 26.8068 305.443 26.4299 305.27 26.1017C305.097 25.7699 304.854 25.5084 304.54 25.3172C304.23 25.1261 303.865 25.0305 303.447 25.0305C302.993 25.0305 302.596 25.1423 302.257 25.3659C301.921 25.5859 301.662 25.8745 301.478 26.2315C301.298 26.585 301.207 26.9691 301.207 27.3839V28.3307C301.207 28.8861 301.305 29.3586 301.499 29.7481C301.698 30.1376 301.974 30.4352 302.327 30.6408C302.681 30.8427 303.094 30.9437 303.566 30.9437C303.873 30.9437 304.152 30.9004 304.405 30.8139C304.657 30.7237 304.875 30.5903 305.059 30.4135C305.243 30.2368 305.384 30.0186 305.481 29.7589L307.012 30.0348C306.89 30.4857 306.67 30.8806 306.352 31.2196C306.039 31.5551 305.644 31.8166 305.168 32.0041C304.695 32.188 304.156 32.28 303.55 32.28ZM310.528 27.1783V32.1123H308.91V23.8024H310.463V25.1549H310.565C310.757 24.7149 311.056 24.3615 311.463 24.0946C311.875 23.8277 312.392 23.6942 313.016 23.6942C313.582 23.6942 314.078 23.8132 314.504 24.0513C314.93 24.2857 315.26 24.6356 315.494 25.1008C315.728 25.5661 315.846 26.1414 315.846 26.8267V32.1123H314.228V27.0214C314.228 26.4191 314.071 25.9484 313.757 25.6094C313.444 25.2668 313.013 25.0954 312.464 25.0954C312.089 25.0954 311.756 25.1766 311.463 25.3389C311.175 25.5012 310.946 25.7392 310.776 26.053C310.611 26.3632 310.528 26.7383 310.528 27.1783ZM321.126 32.2746C320.455 32.2746 319.856 32.1033 319.33 31.7606C318.807 31.4144 318.396 30.9221 318.096 30.2837C317.8 29.6417 317.653 28.8717 317.653 27.9736C317.653 27.0755 317.802 26.3073 318.102 25.6689C318.405 25.0305 318.819 24.5418 319.346 24.2028C319.873 23.8637 320.469 23.6942 321.137 23.6942C321.652 23.6942 322.067 23.7808 322.381 23.9539C322.698 24.1234 322.944 24.3218 323.117 24.549C323.294 24.7762 323.431 24.9764 323.528 25.1495H323.625V21.0325H325.243V32.1123H323.663V30.8193H323.528C323.431 30.996 323.29 31.198 323.106 31.4252C322.926 31.6524 322.677 31.8508 322.359 32.0203C322.042 32.1898 321.631 32.2746 321.126 32.2746ZM321.483 30.895C321.948 30.895 322.341 30.7724 322.662 30.5272C322.987 30.2783 323.232 29.9338 323.398 29.4938C323.568 29.0538 323.652 28.5417 323.652 27.9574C323.652 27.3803 323.569 26.8753 323.404 26.4425C323.238 26.0097 322.994 25.6725 322.673 25.4309C322.352 25.1892 321.955 25.0684 321.483 25.0684C320.996 25.0684 320.59 25.1946 320.266 25.4471C319.941 25.6996 319.696 26.044 319.53 26.4804C319.368 26.9168 319.286 27.4091 319.286 27.9574C319.286 28.5128 319.369 29.0123 319.535 29.456C319.701 29.8996 319.946 30.2512 320.271 30.5109C320.599 30.767 321.003 30.895 321.483 30.895ZM328.942 21.0325V22.0712C328.942 22.3778 328.884 22.7006 328.769 23.0396C328.657 23.375 328.498 23.6978 328.293 24.008C328.087 24.3182 327.846 24.5851 327.568 24.8087L326.767 24.2352C326.98 23.9251 327.164 23.595 327.319 23.2452C327.478 22.8953 327.557 22.5094 327.557 22.0874V21.0325H328.942ZM331.696 21.0325V22.0712C331.696 22.3778 331.638 22.7006 331.523 23.0396C331.411 23.375 331.252 23.6978 331.047 24.008C330.841 24.3182 330.599 24.5851 330.322 24.8087L329.521 24.2352C329.734 23.9251 329.918 23.595 330.073 23.2452C330.232 22.8953 330.311 22.5094 330.311 22.0874V21.0325H331.696ZM332.947 32.2151C332.651 32.2151 332.397 32.1105 332.184 31.9013C331.971 31.6885 331.865 31.4324 331.865 31.1331C331.865 30.8373 331.971 30.5849 332.184 30.3757C332.397 30.1629 332.651 30.0565 332.947 30.0565C333.243 30.0565 333.497 30.1629 333.71 30.3757C333.923 30.5849 334.029 30.8373 334.029 31.1331C334.029 31.3314 333.978 31.5136 333.877 31.6795C333.78 31.8418 333.65 31.9716 333.488 32.069C333.326 32.1664 333.145 32.2151 332.947 32.2151Z" fill="black"/>
<path d="M259.496 45.5773C259.49 45.2352 259.545 44.96 259.663 44.7519C259.78 44.5437 259.933 44.3922 260.12 44.2974C260.31 44.2026 260.51 44.1552 260.72 44.1552C260.93 44.1552 261.122 44.2016 261.295 44.2943C261.47 44.385 261.67 44.5283 261.895 44.724C262.047 44.856 262.169 44.9487 262.26 45.0023C262.352 45.0559 262.453 45.0827 262.563 45.0827C262.74 45.0827 262.88 45.0188 262.983 44.891C263.086 44.7611 263.135 44.5736 263.131 44.3283H263.799C263.805 44.6705 263.75 44.9456 263.632 45.1538C263.517 45.3619 263.364 45.5134 263.175 45.6082C262.985 45.703 262.785 45.7504 262.575 45.7504C262.365 45.7504 262.173 45.7051 262 45.6144C261.827 45.5216 261.627 45.3774 261.4 45.1816C261.25 45.0497 261.128 44.9569 261.035 44.9034C260.943 44.8498 260.842 44.823 260.732 44.823C260.565 44.823 260.427 44.8817 260.318 44.9992C260.211 45.1146 260.159 45.3073 260.164 45.5773H259.496ZM267.707 41.781H268.474V46.3069C268.474 46.7108 268.4 47.054 268.252 47.3363C268.103 47.6187 267.894 47.833 267.624 47.9794C267.354 48.1257 267.036 48.1989 266.669 48.1989C266.323 48.1989 266.014 48.136 265.744 48.0103C265.474 47.8825 265.262 47.7011 265.108 47.4662C264.953 47.2312 264.876 46.952 264.876 46.6284H265.63C265.63 46.8077 265.674 46.9643 265.763 47.0983C265.854 47.2302 265.977 47.3333 266.134 47.4074C266.291 47.4816 266.469 47.5187 266.669 47.5187C266.889 47.5187 267.077 47.4724 267.231 47.3796C267.386 47.2869 267.503 47.1509 267.584 46.9716C267.666 46.7902 267.707 46.5686 267.707 46.3069V41.781ZM271.309 48.2236C271.008 48.2236 270.735 48.1669 270.49 48.0536C270.245 47.9382 270.05 47.7722 269.906 47.5558C269.761 47.3374 269.689 47.0736 269.689 46.7644C269.689 46.4924 269.743 46.2718 269.85 46.1028C269.957 45.9318 270.1 45.7978 270.28 45.701C270.459 45.6041 270.657 45.532 270.873 45.4846C271.092 45.4351 271.311 45.3959 271.532 45.3671C271.82 45.33 272.054 45.3022 272.233 45.2836C272.415 45.263 272.547 45.229 272.629 45.1816C272.714 45.1342 272.756 45.0517 272.756 44.9343V44.9095C272.756 44.6045 272.672 44.3675 272.505 44.1985C272.341 44.0295 272.09 43.945 271.754 43.945C271.406 43.945 271.133 44.0213 270.935 44.1738C270.737 44.3263 270.598 44.4891 270.518 44.6622L269.825 44.4149C269.949 44.1264 270.114 43.9017 270.32 43.741C270.528 43.5781 270.755 43.4648 271 43.4009C271.247 43.3349 271.49 43.302 271.729 43.302C271.882 43.302 272.057 43.3205 272.255 43.3576C272.455 43.3927 272.648 43.4658 272.833 43.5771C273.021 43.6884 273.176 43.8564 273.3 44.081C273.424 44.3057 273.485 44.6066 273.485 44.9837V48.1123H272.756V47.4693H272.719C272.669 47.5723 272.587 47.6826 272.471 47.8001C272.356 47.9175 272.202 48.0175 272.011 48.0999C271.819 48.1824 271.585 48.2236 271.309 48.2236ZM271.42 47.5682C271.709 47.5682 271.952 47.5115 272.15 47.3982C272.35 47.2848 272.5 47.1385 272.601 46.9592C272.704 46.7799 272.756 46.5913 272.756 46.3934V45.7257C272.725 45.7628 272.657 45.7968 272.552 45.8277C272.449 45.8566 272.329 45.8823 272.193 45.905C272.059 45.9256 271.928 45.9442 271.801 45.9606C271.675 45.9751 271.573 45.9874 271.495 45.9977C271.305 46.0225 271.128 46.0627 270.963 46.1183C270.8 46.1719 270.668 46.2533 270.567 46.3625C270.468 46.4697 270.419 46.616 270.419 46.8015C270.419 47.055 270.512 47.2467 270.7 47.3765C270.89 47.5043 271.13 47.5682 271.42 47.5682ZM274.817 48.1123V43.3638H275.522V44.1058H275.584C275.683 43.8523 275.842 43.6554 276.063 43.5153C276.283 43.3731 276.548 43.302 276.857 43.302C277.171 43.302 277.431 43.3731 277.64 43.5153C277.85 43.6554 278.014 43.8523 278.131 44.1058H278.181C278.302 43.8605 278.485 43.6657 278.728 43.5215C278.971 43.3751 279.263 43.302 279.603 43.302C280.027 43.302 280.375 43.4349 280.645 43.7008C280.915 43.9646 281.05 44.3757 281.05 44.9343V48.1123H280.32V44.9343C280.32 44.5839 280.224 44.3335 280.032 44.183C279.841 44.0326 279.615 43.9574 279.355 43.9574C279.022 43.9574 278.763 44.0584 278.579 44.2603C278.396 44.4602 278.304 44.7137 278.304 45.0208V48.1123H277.562V44.8601C277.562 44.5901 277.475 44.3727 277.3 44.2078C277.124 44.0408 276.899 43.9574 276.623 43.9574C276.433 43.9574 276.256 44.0079 276.091 44.1088C275.928 44.2098 275.796 44.35 275.695 44.5293C275.596 44.7065 275.547 44.9116 275.547 45.1445V48.1123H274.817ZM284.374 48.2112C283.917 48.2112 283.522 48.1102 283.19 47.9083C282.861 47.7042 282.606 47.4198 282.427 47.055C282.25 46.6882 282.161 46.2615 282.161 45.7752C282.161 45.2888 282.25 44.8601 282.427 44.4891C282.606 44.1161 282.855 43.8255 283.175 43.6173C283.496 43.4071 283.872 43.302 284.3 43.302C284.548 43.302 284.792 43.3432 285.033 43.4256C285.274 43.5081 285.494 43.642 285.691 43.8275C285.889 44.0109 286.047 44.2541 286.164 44.5571C286.282 44.8601 286.341 45.2331 286.341 45.6762V45.9854H282.68V45.3547H285.599C285.599 45.0868 285.545 44.8477 285.438 44.6375C285.333 44.4273 285.182 44.2614 284.987 44.1398C284.793 44.0182 284.564 43.9574 284.3 43.9574C284.01 43.9574 283.758 44.0295 283.546 44.1738C283.336 44.316 283.174 44.5015 283.061 44.7302C282.947 44.959 282.89 45.2043 282.89 45.466V45.8864C282.89 46.2451 282.952 46.549 283.076 46.7984C283.202 47.0457 283.376 47.2343 283.598 47.3642C283.821 47.4919 284.08 47.5558 284.374 47.5558C284.566 47.5558 284.739 47.529 284.894 47.4755C285.05 47.4198 285.185 47.3374 285.299 47.2281C285.412 47.1168 285.5 46.9788 285.562 46.8139L286.266 47.0117C286.192 47.2508 286.067 47.461 285.892 47.6424C285.717 47.8217 285.501 47.9619 285.243 48.0628C284.985 48.1618 284.696 48.2112 284.374 48.2112ZM290.814 44.4273L290.159 44.6128C290.117 44.5035 290.057 44.3974 289.976 44.2943C289.898 44.1892 289.791 44.1027 289.655 44.0347C289.519 43.9666 289.344 43.9326 289.132 43.9326C288.842 43.9326 288.599 43.9996 288.406 44.1336C288.214 44.2655 288.118 44.4335 288.118 44.6375C288.118 44.8189 288.184 44.9621 288.316 45.0672C288.448 45.1723 288.654 45.2599 288.934 45.33L289.639 45.5031C290.064 45.6061 290.38 45.7638 290.588 45.9761C290.796 46.1863 290.901 46.4573 290.901 46.7892C290.901 47.0612 290.822 47.3044 290.666 47.5187C290.511 47.7331 290.295 47.9021 290.016 48.0257C289.738 48.1494 289.415 48.2112 289.046 48.2112C288.561 48.2112 288.16 48.1061 287.843 47.8959C287.526 47.6857 287.325 47.3786 287.24 46.9746L287.933 46.8015C287.999 47.0571 288.123 47.2488 288.307 47.3765C288.492 47.5043 288.734 47.5682 289.033 47.5682C289.373 47.5682 289.643 47.4961 289.843 47.3518C290.045 47.2055 290.146 47.0303 290.146 46.8263C290.146 46.6614 290.088 46.5233 289.973 46.412C289.858 46.2986 289.68 46.2141 289.441 46.1585L288.65 45.973C288.215 45.87 287.896 45.7102 287.692 45.4938C287.49 45.2754 287.389 45.0023 287.389 44.6746C287.389 44.4067 287.464 44.1696 287.614 43.9635C287.767 43.7574 287.974 43.5957 288.236 43.4782C288.499 43.3607 288.798 43.302 289.132 43.302C289.602 43.302 289.971 43.405 290.239 43.6111C290.509 43.8172 290.701 44.0893 290.814 44.4273ZM294.806 48.1123H294.002L296.327 41.781H297.118L299.443 48.1123H298.639L296.747 42.7826H296.698L294.806 48.1123ZM295.103 45.6391H298.342V46.3192H295.103V45.6391ZM300.33 48.1123V43.3638H301.035V44.081H301.085C301.171 43.8461 301.328 43.6554 301.554 43.5091C301.781 43.3628 302.037 43.2896 302.321 43.2896C302.375 43.2896 302.442 43.2906 302.522 43.2927C302.603 43.2948 302.663 43.2978 302.705 43.302V44.0439C302.68 44.0377 302.623 44.0285 302.534 44.0161C302.448 44.0017 302.356 43.9945 302.259 43.9945C302.029 43.9945 301.822 44.0429 301.641 44.1398C301.462 44.2346 301.32 44.3665 301.214 44.5355C301.111 44.7024 301.06 44.893 301.06 45.1074V48.1123H300.33ZM305.354 48.2112C304.909 48.2112 304.525 48.1061 304.204 47.8959C303.882 47.6857 303.635 47.3961 303.462 47.0272C303.289 46.6583 303.202 46.2368 303.202 45.7628C303.202 45.2805 303.291 44.8549 303.468 44.486C303.647 44.115 303.897 43.8255 304.216 43.6173C304.538 43.4071 304.913 43.302 305.342 43.302C305.675 43.302 305.976 43.3638 306.244 43.4875C306.512 43.6111 306.732 43.7842 306.903 44.0068C307.074 44.2294 307.18 44.4891 307.221 44.7859H306.492C306.436 44.5695 306.312 44.3778 306.121 44.2109C305.931 44.0419 305.675 43.9574 305.354 43.9574C305.07 43.9574 304.82 44.0316 304.606 44.1799C304.394 44.3263 304.228 44.5334 304.108 44.8013C303.991 45.0672 303.932 45.3794 303.932 45.7381C303.932 46.1049 303.99 46.4244 304.105 46.6964C304.222 46.9685 304.387 47.1797 304.6 47.3302C304.814 47.4806 305.065 47.5558 305.354 47.5558C305.544 47.5558 305.716 47.5229 305.87 47.4569C306.025 47.391 306.156 47.2962 306.263 47.1725C306.37 47.0488 306.446 46.9004 306.492 46.7273H307.221C307.18 47.0076 307.078 47.2601 306.915 47.4847C306.754 47.7073 306.541 47.8846 306.275 48.0165C306.011 48.1463 305.704 48.2112 305.354 48.2112ZM309.017 45.2558V48.1123H308.288V41.781H309.017V44.1058H309.079C309.19 43.8605 309.357 43.6657 309.58 43.5215C309.805 43.3751 310.103 43.302 310.476 43.302C310.8 43.302 311.083 43.3669 311.327 43.4967C311.57 43.6245 311.758 43.8213 311.892 44.0872C312.028 44.351 312.096 44.687 312.096 45.095V48.1123H311.367V45.1445C311.367 44.7673 311.269 44.4757 311.073 44.2696C310.879 44.0614 310.61 43.9574 310.266 43.9574C310.027 43.9574 309.813 44.0079 309.623 44.1088C309.436 44.2098 309.287 44.3572 309.178 44.5509C309.071 44.7447 309.017 44.9796 309.017 45.2558ZM313.431 48.1123V43.3638H314.161V48.1123H313.431ZM313.802 42.5724C313.66 42.5724 313.537 42.5239 313.434 42.4271C313.333 42.3302 313.283 42.2138 313.283 42.0777C313.283 41.9417 313.333 41.8253 313.434 41.7284C313.537 41.6315 313.66 41.5831 313.802 41.5831C313.944 41.5831 314.066 41.6315 314.167 41.7284C314.27 41.8253 314.322 41.9417 314.322 42.0777C314.322 42.2138 314.27 42.3302 314.167 42.4271C314.066 42.5239 313.944 42.5724 313.802 42.5724ZM315.596 48.1123V41.781H316.326V44.1181H316.387C316.441 44.0357 316.515 43.9306 316.61 43.8028C316.707 43.6729 316.845 43.5575 317.024 43.4565C317.206 43.3535 317.451 43.302 317.76 43.302C318.16 43.302 318.512 43.4019 318.817 43.6018C319.122 43.8018 319.36 44.0851 319.531 44.452C319.702 44.8189 319.788 45.2517 319.788 45.7504C319.788 46.2533 319.702 46.6892 319.531 47.0581C319.36 47.425 319.123 47.7094 318.82 47.9114C318.517 48.1113 318.168 48.2112 317.772 48.2112C317.467 48.2112 317.223 48.1607 317.04 48.0597C316.856 47.9567 316.715 47.8403 316.616 47.7104C316.517 47.5785 316.441 47.4693 316.387 47.3827H316.301V48.1123H315.596ZM316.313 45.7381C316.313 46.0967 316.366 46.413 316.471 46.6871C316.576 46.9592 316.73 47.1725 316.931 47.3271C317.133 47.4796 317.381 47.5558 317.673 47.5558C317.978 47.5558 318.233 47.4755 318.437 47.3147C318.643 47.1519 318.798 46.9334 318.901 46.6593C319.006 46.3831 319.058 46.0761 319.058 45.7381C319.058 45.4042 319.007 45.1033 318.904 44.8353C318.803 44.5654 318.649 44.352 318.443 44.1954C318.239 44.0367 317.983 43.9574 317.673 43.9574C317.377 43.9574 317.127 44.0326 316.925 44.183C316.723 44.3314 316.571 44.5396 316.468 44.8075C316.365 45.0734 316.313 45.3836 316.313 45.7381ZM322.833 48.2112C322.404 48.2112 322.028 48.1092 321.705 47.9052C321.383 47.7011 321.132 47.4157 320.95 47.0488C320.771 46.682 320.681 46.2533 320.681 45.7628C320.681 45.2681 320.771 44.8364 320.95 44.4675C321.132 44.0985 321.383 43.8121 321.705 43.608C322.028 43.404 322.404 43.302 322.833 43.302C323.262 43.302 323.637 43.404 323.958 43.608C324.282 43.8121 324.533 44.0985 324.713 44.4675C324.894 44.8364 324.985 45.2681 324.985 45.7628C324.985 46.2533 324.894 46.682 324.713 47.0488C324.533 47.4157 324.282 47.7011 323.958 47.9052C323.637 48.1092 323.262 48.2112 322.833 48.2112ZM322.833 47.5558C323.159 47.5558 323.427 47.4724 323.637 47.3054C323.847 47.1385 324.003 46.919 324.104 46.6469C324.205 46.3749 324.255 46.0802 324.255 45.7628C324.255 45.4454 324.205 45.1496 324.104 44.8755C324.003 44.6014 323.847 44.3799 323.637 44.2109C323.427 44.0419 323.159 43.9574 322.833 43.9574C322.507 43.9574 322.24 44.0419 322.029 44.2109C321.819 44.3799 321.664 44.6014 321.563 44.8755C321.462 45.1496 321.411 45.4454 321.411 45.7628C321.411 46.0802 321.462 46.3749 321.563 46.6469C321.664 46.919 321.819 47.1385 322.029 47.3054C322.24 47.4724 322.507 47.5558 322.833 47.5558ZM326.828 45.2558V48.1123H326.098V43.3638H326.803V44.1058H326.865C326.976 43.8646 327.145 43.6709 327.372 43.5246C327.599 43.3762 327.892 43.302 328.25 43.302C328.572 43.302 328.853 43.3679 329.094 43.4998C329.335 43.6297 329.523 43.8275 329.657 44.0934C329.791 44.3572 329.858 44.6911 329.858 45.095V48.1123H329.128V45.1445C329.128 44.7715 329.031 44.4809 328.838 44.2727C328.644 44.0625 328.378 43.9574 328.04 43.9574C327.807 43.9574 327.599 44.0079 327.415 44.1088C327.234 44.2098 327.091 44.3572 326.986 44.5509C326.881 44.7447 326.828 44.9796 326.828 45.2558ZM333.108 49.9919C332.755 49.9919 332.452 49.9466 332.199 49.8559C331.945 49.7673 331.734 49.6498 331.565 49.5035C331.398 49.3592 331.265 49.2046 331.166 49.0397L331.747 48.6317C331.813 48.7182 331.897 48.8172 331.998 48.9285C332.099 49.0418 332.237 49.1397 332.412 49.2221C332.589 49.3066 332.821 49.3489 333.108 49.3489C333.491 49.3489 333.807 49.2562 334.057 49.0707C334.306 48.8852 334.431 48.5946 334.431 48.1989V47.2343H334.369C334.315 47.3209 334.239 47.4281 334.14 47.5558C334.043 47.6816 333.903 47.7939 333.72 47.8928C333.538 47.9897 333.293 48.0381 332.984 48.0381C332.601 48.0381 332.256 47.9474 331.951 47.7661C331.648 47.5847 331.408 47.3209 331.231 46.9746C331.056 46.6284 330.968 46.208 330.968 45.7133C330.968 45.2269 331.054 44.8034 331.225 44.4427C331.396 44.08 331.634 43.7997 331.939 43.6018C332.244 43.4019 332.597 43.302 332.996 43.302C333.305 43.302 333.551 43.3535 333.732 43.4565C333.916 43.5575 334.056 43.6729 334.153 43.8028C334.251 43.9306 334.328 44.0357 334.381 44.1181H334.456V43.3638H335.16V48.2483C335.16 48.6564 335.068 48.9882 334.882 49.2438C334.699 49.5014 334.451 49.69 334.14 49.8095C333.831 49.9311 333.487 49.9919 333.108 49.9919ZM333.083 47.3827C333.376 47.3827 333.623 47.3157 333.825 47.1818C334.027 47.0478 334.18 46.8551 334.285 46.6037C334.391 46.3522 334.443 46.0513 334.443 45.701C334.443 45.3588 334.392 45.0569 334.289 44.7952C334.186 44.5334 334.033 44.3283 333.831 44.1799C333.629 44.0316 333.38 43.9574 333.083 43.9574C332.774 43.9574 332.516 44.0357 332.31 44.1923C332.106 44.349 331.952 44.5592 331.849 44.823C331.748 45.0868 331.698 45.3794 331.698 45.701C331.698 46.0307 331.749 46.3223 331.852 46.5758C331.958 46.8273 332.112 47.0251 332.316 47.1694C332.522 47.3116 332.778 47.3827 333.083 47.3827Z" fill="#C1C7D0"/>
</g>
<defs>
<filter id="filter0_dd_2172_13574" x="0.045436" y="0.911801" width="357.565" height="69.4892" filterUnits="userSpaceOnUse" color-interpolation-filters="sRGB">
<feFlood flood-opacity="0" result="BackgroundImageFix"/>
<feColorMatrix in="SourceAlpha" type="matrix" values="0 0 0 0 0 0 0 0 0 0 0 0 0 0 0 0 0 0 127 0" result="hardAlpha"/>
<feOffset dy="0.544099"/>
<feGaussianBlur stdDeviation="0.544099"/>
<feColorMatrix type="matrix" values="0 0 0 0 0.0627451 0 0 0 0 0.0941176 0 0 0 0 0.156863 0 0 0 0.06 0"/>
<feBlend mode="normal" in2="BackgroundImageFix" result="effect1_dropShadow_2172_13574"/>
<feColorMatrix in="SourceAlpha" type="matrix" values="0 0 0 0 0 0 0 0 0 0 0 0 0 0 0 0 0 0 127 0" result="hardAlpha"/>
<feOffset dy="0.544099"/>
<feGaussianBlur stdDeviation="0.816149"/>
<feColorMatrix type="matrix" values="0 0 0 0 0.0627451 0 0 0 0 0.0941176 0 0 0 0 0.156863 0 0 0 0.1 0"/>
<feBlend mode="normal" in2="effect1_dropShadow_2172_13574" result="effect2_dropShadow_2172_13574"/>
<feBlend mode="normal" in="SourceGraphic" in2="effect2_dropShadow_2172_13574" result="shape"/>
</filter>
</defs>
</svg>
