<svg width="188" height="110" viewBox="0 0 188 110" fill="none" xmlns="http://www.w3.org/2000/svg">
<g filter="url(#filter0_dd_2172_13562)">
<rect x="2.125" y="1.27051" width="183.666" height="106.131" rx="10.6165" fill="white"/>
<g clip-path="url(#clip0_2172_13562)">
<path d="M32.3799 26.2895V24.2724C32.3799 23.2992 31.5837 22.5029 30.6105 22.5029H18.2245C17.2425 22.5029 16.4551 23.2992 16.4551 24.2724V36.6583C16.4551 37.6315 17.2425 38.4277 18.2245 38.4277H30.6105C31.5837 38.4277 32.3799 37.6315 32.3799 36.6583V34.6412C32.9019 34.3315 33.2646 33.7742 33.2646 33.1195V27.8112C33.2646 27.1565 32.9019 26.5991 32.3799 26.2895ZM31.4952 27.8112V33.1195H25.3022V27.8112H31.4952ZM18.2245 36.6583V24.2724H30.6105V26.0418H25.3022C24.329 26.0418 23.5328 26.838 23.5328 27.8112V33.1195C23.5328 34.0927 24.329 34.8889 25.3022 34.8889H30.6105V36.6583H18.2245Z" fill="#58D96B"/>
<path d="M27.956 31.7928C28.6889 31.7928 29.283 31.1987 29.283 30.4657C29.283 29.7328 28.6889 29.1387 27.956 29.1387C27.2231 29.1387 26.6289 29.7328 26.6289 30.4657C26.6289 31.1987 27.2231 31.7928 27.956 31.7928Z" fill="#58D96B"/>
</g>
<path d="M39.6973 28.5208V27.8573H44.33V28.5208H42.3876V34.0342H41.6396V28.5208H39.6973ZM46.598 34.1307C46.1798 34.1307 45.8129 34.0312 45.4972 33.8321C45.1835 33.633 44.9382 33.3546 44.7613 32.9967C44.5863 32.6387 44.4989 32.2205 44.4989 31.742C44.4989 31.2594 44.5863 30.8382 44.7613 30.4782C44.9382 30.1183 45.1835 29.8388 45.4972 29.6398C45.8129 29.4407 46.1798 29.3412 46.598 29.3412C47.0163 29.3412 47.3822 29.4407 47.6959 29.6398C48.0116 29.8388 48.2569 30.1183 48.4318 30.4782C48.6088 30.8382 48.6972 31.2594 48.6972 31.742C48.6972 32.2205 48.6088 32.6387 48.4318 32.9967C48.2569 33.3546 48.0116 33.633 47.6959 33.8321C47.3822 34.0312 47.0163 34.1307 46.598 34.1307ZM46.598 33.4913C46.9157 33.4913 47.1771 33.4099 47.3822 33.247C47.5873 33.0841 47.7391 32.87 47.8377 32.6046C47.9362 32.3392 47.9854 32.0516 47.9854 31.742C47.9854 31.4323 47.9362 31.1438 47.8377 30.8764C47.7391 30.6089 47.5873 30.3928 47.3822 30.2279C47.1771 30.063 46.9157 29.9806 46.598 29.9806C46.2804 29.9806 46.019 30.063 45.8139 30.2279C45.6088 30.3928 45.457 30.6089 45.3584 30.8764C45.2599 31.1438 45.2107 31.4323 45.2107 31.742C45.2107 32.0516 45.2599 32.3392 45.3584 32.6046C45.457 32.87 45.6088 33.0841 45.8139 33.247C46.019 33.4099 46.2804 33.4913 46.598 33.4913ZM51.7985 29.4015V30.0047H49.3977V29.4015H51.7985ZM50.0974 28.2916H50.8092V32.7071C50.8092 32.9082 50.8384 33.059 50.8967 33.1595C50.957 33.258 51.0334 33.3244 51.1259 33.3586C51.2204 33.3908 51.3199 33.4068 51.4245 33.4068C51.5029 33.4068 51.5673 33.4028 51.6175 33.3948C51.6678 33.3847 51.708 33.3767 51.7382 33.3706L51.8829 34.0101C51.8347 34.0281 51.7673 34.0462 51.6809 34.0643C51.5944 34.0844 51.4848 34.0945 51.3521 34.0945C51.151 34.0945 50.954 34.0513 50.761 33.9648C50.57 33.8783 50.4111 33.7466 50.2844 33.5697C50.1598 33.3928 50.0974 33.1696 50.0974 32.9001V28.2916ZM54.2325 34.1428C53.9389 34.1428 53.6725 34.0875 53.4332 33.9769C53.1939 33.8643 53.0039 33.7024 52.8632 33.4913C52.7224 33.2782 52.652 33.0208 52.652 32.7192C52.652 32.4538 52.7043 32.2386 52.8089 32.0737C52.9134 31.9068 53.0532 31.7762 53.2281 31.6816C53.403 31.5871 53.5961 31.5168 53.8072 31.4705C54.0203 31.4223 54.2345 31.3841 54.4496 31.3559C54.7311 31.3197 54.9593 31.2926 55.1343 31.2745C55.3112 31.2544 55.4399 31.2212 55.5203 31.175C55.6028 31.1287 55.644 31.0483 55.644 30.9337V30.9095C55.644 30.612 55.5625 30.3807 55.3997 30.2158C55.2388 30.051 54.9945 29.9685 54.6668 29.9685C54.327 29.9685 54.0605 30.0429 53.8675 30.1917C53.6745 30.3405 53.5388 30.4994 53.4603 30.6683L52.7847 30.427C52.9054 30.1455 53.0662 29.9263 53.2673 29.7695C53.4704 29.6106 53.6916 29.5 53.9309 29.4377C54.1721 29.3734 54.4094 29.3412 54.6426 29.3412C54.7914 29.3412 54.9623 29.3593 55.1554 29.3955C55.3504 29.4297 55.5384 29.501 55.7194 29.6096C55.9024 29.7182 56.0542 29.8821 56.1748 30.1012C56.2954 30.3204 56.3558 30.614 56.3558 30.9819V34.0342H55.644V33.4068H55.6078C55.5595 33.5074 55.4791 33.6149 55.3665 33.7296C55.2539 33.8442 55.1041 33.9417 54.9171 34.0221C54.7301 34.1025 54.5019 34.1428 54.2325 34.1428ZM54.341 33.5034C54.6225 33.5034 54.8598 33.4481 55.0528 33.3375C55.2479 33.2269 55.3946 33.0841 55.4932 32.9092C55.5937 32.7343 55.644 32.5503 55.644 32.3572V31.7058C55.6138 31.742 55.5475 31.7751 55.4449 31.8053C55.3444 31.8335 55.2278 31.8586 55.0951 31.8807C54.9644 31.9008 54.8367 31.9189 54.712 31.935C54.5894 31.9491 54.4898 31.9611 54.4134 31.9712C54.2284 31.9953 54.0555 32.0345 53.8947 32.0888C53.7358 32.1411 53.6071 32.2205 53.5086 32.3271C53.4121 32.4316 53.3638 32.5744 53.3638 32.7554C53.3638 33.0027 53.4553 33.1897 53.6383 33.3164C53.8233 33.441 54.0575 33.5034 54.341 33.5034ZM58.3667 27.8573V34.0342H57.6549V27.8573H58.3667ZM62.1557 34.0342V27.8573H65.8835V28.5208H62.9036V30.6079H65.6905V31.2715H62.9036V33.3706H65.9318V34.0342H62.1557ZM68.4984 34.1428C68.2049 34.1428 67.9385 34.0875 67.6992 33.9769C67.4599 33.8643 67.2699 33.7024 67.1291 33.4913C66.9884 33.2782 66.918 33.0208 66.918 32.7192C66.918 32.4538 66.9703 32.2386 67.0749 32.0737C67.1794 31.9068 67.3192 31.7762 67.4941 31.6816C67.669 31.5871 67.8621 31.5168 68.0732 31.4705C68.2863 31.4223 68.5005 31.3841 68.7156 31.3559C68.9971 31.3197 69.2253 31.2926 69.4002 31.2745C69.5772 31.2544 69.7059 31.2212 69.7863 31.175C69.8687 31.1287 69.91 31.0483 69.91 30.9337V30.9095C69.91 30.612 69.8285 30.3807 69.6657 30.2158C69.5048 30.051 69.2605 29.9685 68.9328 29.9685C68.5929 29.9685 68.3265 30.0429 68.1335 30.1917C67.9405 30.3405 67.8047 30.4994 67.7263 30.6683L67.0507 30.427C67.1714 30.1455 67.3322 29.9263 67.5333 29.7695C67.7364 29.6106 67.9576 29.5 68.1968 29.4377C68.4381 29.3734 68.6754 29.3412 68.9086 29.3412C69.0574 29.3412 69.2283 29.3593 69.4214 29.3955C69.6164 29.4297 69.8044 29.501 69.9854 29.6096C70.1683 29.7182 70.3201 29.8821 70.4408 30.1012C70.5614 30.3204 70.6218 30.614 70.6218 30.9819V34.0342H69.91V33.4068H69.8738C69.8255 33.5074 69.7451 33.6149 69.6325 33.7296C69.5199 33.8442 69.3701 33.9417 69.1831 34.0221C68.9961 34.1025 68.7679 34.1428 68.4984 34.1428ZM68.607 33.5034C68.8885 33.5034 69.1258 33.4481 69.3188 33.3375C69.5139 33.2269 69.6606 33.0841 69.7592 32.9092C69.8597 32.7343 69.91 32.5503 69.91 32.3572V31.7058C69.8798 31.742 69.8134 31.7751 69.7109 31.8053C69.6104 31.8335 69.4937 31.8586 69.361 31.8807C69.2303 31.9008 69.1027 31.9189 68.978 31.935C68.8553 31.9491 68.7558 31.9611 68.6794 31.9712C68.4944 31.9953 68.3215 32.0345 68.1606 32.0888C68.0018 32.1411 67.8731 32.2205 67.7746 32.3271C67.6781 32.4316 67.6298 32.5744 67.6298 32.7554C67.6298 33.0027 67.7213 33.1897 67.9043 33.3164C68.0893 33.441 68.3235 33.5034 68.607 33.5034ZM71.9209 34.0342V29.4015H72.6086V30.1012H72.6568C72.7413 29.872 72.8941 29.686 73.1153 29.5433C73.3365 29.4005 73.5858 29.3291 73.8633 29.3291C73.9155 29.3291 73.9809 29.3301 74.0593 29.3321C74.1377 29.3341 74.197 29.3372 74.2373 29.3412V30.065C74.2131 30.059 74.1578 30.05 74.0714 30.0379C73.9869 30.0238 73.8974 30.0168 73.8029 30.0168C73.5777 30.0168 73.3767 30.064 73.1997 30.1585C73.0248 30.251 72.8861 30.3797 72.7835 30.5446C72.683 30.7075 72.6327 30.8935 72.6327 31.1026V34.0342H71.9209ZM75.7928 31.2473V34.0342H75.081V29.4015H75.7687V30.1254H75.829C75.9376 29.8901 76.1024 29.7011 76.3236 29.5583C76.5448 29.4136 76.8303 29.3412 77.1802 29.3412C77.4939 29.3412 77.7683 29.4055 78.0036 29.5342C78.2388 29.6609 78.4218 29.8539 78.5525 30.1133C78.6832 30.3707 78.7485 30.6964 78.7485 31.0905V34.0342H78.0367V31.1388C78.0367 30.7748 77.9422 30.4913 77.7532 30.2882C77.5642 30.0831 77.3048 29.9806 76.9751 29.9806C76.7479 29.9806 76.5448 30.0299 76.3658 30.1284C76.1889 30.2269 76.0492 30.3707 75.9466 30.5597C75.8441 30.7487 75.7928 30.9779 75.7928 31.2473ZM80.0492 34.0342V29.4015H80.761V34.0342H80.0492ZM80.4111 28.6294C80.2724 28.6294 80.1528 28.5821 80.0522 28.4876C79.9537 28.3931 79.9044 28.2795 79.9044 28.1468C79.9044 28.0141 79.9537 27.9005 80.0522 27.806C80.1528 27.7115 80.2724 27.6643 80.4111 27.6643C80.5499 27.6643 80.6685 27.7115 80.767 27.806C80.8676 27.9005 80.9178 28.0141 80.9178 28.1468C80.9178 28.2795 80.8676 28.3931 80.767 28.4876C80.6685 28.5821 80.5499 28.6294 80.4111 28.6294ZM82.7765 31.2473V34.0342H82.0647V29.4015H82.7524V30.1254H82.8127C82.9213 29.8901 83.0861 29.7011 83.3073 29.5583C83.5285 29.4136 83.814 29.3412 84.1639 29.3412C84.4775 29.3412 84.752 29.4055 84.9873 29.5342C85.2225 29.6609 85.4055 29.8539 85.5362 30.1133C85.6669 30.3707 85.7322 30.6964 85.7322 31.0905V34.0342H85.0204V31.1388C85.0204 30.7748 84.9259 30.4913 84.7369 30.2882C84.5479 30.0831 84.2885 29.9806 83.9588 29.9806C83.7316 29.9806 83.5285 30.0299 83.3495 30.1284C83.1726 30.2269 83.0329 30.3707 82.9303 30.5597C82.8278 30.7487 82.7765 30.9779 82.7765 31.2473ZM88.9029 35.8679C88.559 35.8679 88.2635 35.8237 88.0161 35.7352C87.7688 35.6488 87.5627 35.5342 87.3979 35.3914C87.235 35.2507 87.1053 35.0999 87.0088 34.939L87.5758 34.5409C87.6401 34.6253 87.7216 34.7218 87.8201 34.8304C87.9186 34.941 88.0533 35.0365 88.2243 35.1169C88.3972 35.1994 88.6234 35.2406 88.9029 35.2406C89.2769 35.2406 89.5855 35.1501 89.8288 34.9692C90.0721 34.7882 90.1937 34.5047 90.1937 34.1186V33.1776H90.1334C90.0811 33.2621 90.0067 33.3666 89.9102 33.4913C89.8157 33.6139 89.679 33.7235 89.5 33.82C89.3231 33.9145 89.0838 33.9618 88.7822 33.9618C88.4082 33.9618 88.0724 33.8733 87.7749 33.6964C87.4793 33.5194 87.245 33.2621 87.0721 32.9243C86.9012 32.5865 86.8158 32.1763 86.8158 31.6937C86.8158 31.2192 86.8992 30.806 87.0661 30.4541C87.233 30.1002 87.4652 29.8268 87.7628 29.6337C88.0604 29.4387 88.4042 29.3412 88.7943 29.3412C89.0959 29.3412 89.3352 29.3915 89.5121 29.492C89.6911 29.5905 89.8278 29.7031 89.9223 29.8298C90.0188 29.9545 90.0932 30.057 90.1455 30.1374H90.2179V29.4015H90.9055V34.1669C90.9055 34.565 90.8151 34.8887 90.6341 35.1381C90.4551 35.3894 90.2139 35.5734 89.9102 35.69C89.6086 35.8086 89.2728 35.8679 88.9029 35.8679ZM88.8787 33.3224C89.1643 33.3224 89.4055 33.257 89.6026 33.1263C89.7996 32.9956 89.9494 32.8076 90.052 32.5623C90.1545 32.317 90.2058 32.0235 90.2058 31.6816C90.2058 31.3479 90.1555 31.0533 90.055 30.7979C89.9545 30.5426 89.8057 30.3425 89.6086 30.1977C89.4116 30.053 89.1683 29.9806 88.8787 29.9806C88.5771 29.9806 88.3258 30.057 88.1247 30.2098C87.9257 30.3626 87.7759 30.5677 87.6753 30.8251C87.5768 31.0825 87.5275 31.368 87.5275 31.6816C87.5275 32.0034 87.5778 32.2879 87.6783 32.5352C87.7809 32.7805 87.9317 32.9735 88.1308 33.1143C88.3318 33.253 88.5812 33.3224 88.8787 33.3224ZM95.49 30.439L94.8505 30.62C94.8103 30.5134 94.751 30.4099 94.6726 30.3093C94.5962 30.2068 94.4916 30.1223 94.3589 30.056C94.2262 29.9896 94.0563 29.9565 93.8492 29.9565C93.5657 29.9565 93.3294 30.0218 93.1404 30.1525C92.9534 30.2812 92.8599 30.4451 92.8599 30.6441C92.8599 30.8211 92.9243 30.9608 93.053 31.0634C93.1817 31.1659 93.3827 31.2514 93.6562 31.3197L94.3438 31.4886C94.7581 31.5892 95.0667 31.743 95.2698 31.9501C95.4729 32.1552 95.5744 32.4196 95.5744 32.7433C95.5744 33.0087 95.498 33.246 95.3452 33.4551C95.1944 33.6642 94.9833 33.8291 94.7118 33.9497C94.4404 34.0704 94.1247 34.1307 93.7648 34.1307C93.2922 34.1307 92.9012 34.0281 92.5915 33.8231C92.2819 33.618 92.0858 33.3184 92.0034 32.9243L92.679 32.7554C92.7433 33.0047 92.865 33.1917 93.0439 33.3164C93.2249 33.441 93.4611 33.5034 93.7527 33.5034C94.0845 33.5034 94.3479 33.433 94.5429 33.2922C94.74 33.1495 94.8385 32.9786 94.8385 32.7795C94.8385 32.6186 94.7822 32.4839 94.6696 32.3753C94.557 32.2648 94.3841 32.1823 94.1508 32.128L93.3787 31.9471C92.9544 31.8465 92.6428 31.6907 92.4437 31.4796C92.2467 31.2664 92.1482 31 92.1482 30.6803C92.1482 30.4189 92.2215 30.1877 92.3683 29.9866C92.5171 29.7856 92.7192 29.6277 92.9746 29.5131C93.2319 29.3985 93.5235 29.3412 93.8492 29.3412C94.3077 29.3412 94.6676 29.4417 94.929 29.6428C95.1924 29.8439 95.3794 30.1093 95.49 30.439Z" fill="black"/>
<path d="M18.1783 70.1735V56.6615H19.0439V70.1735H18.1783ZM20.886 60.8523C20.8297 60.3527 20.5974 59.9656 20.1892 59.6911C19.7811 59.4132 19.2673 59.2742 18.648 59.2742C18.2047 59.2742 17.8211 59.3445 17.4974 59.4853C17.1737 59.6225 16.9221 59.8125 16.7426 60.0553C16.5667 60.2946 16.4787 60.5673 16.4787 60.8734C16.4787 61.1303 16.5386 61.352 16.6582 61.5385C16.7813 61.725 16.9415 61.8815 17.1385 62.0082C17.3391 62.1314 17.5537 62.2352 17.7824 62.3196C18.0111 62.4006 18.2311 62.4674 18.4422 62.5202L19.4978 62.7947C19.8427 62.8791 20.1963 62.9935 20.5587 63.1377C20.9211 63.282 21.2572 63.472 21.5668 63.7078C21.8765 63.9435 22.1263 64.2356 22.3163 64.5839C22.5099 64.9323 22.6066 65.3493 22.6066 65.8349C22.6066 66.4471 22.4483 66.9908 22.1316 67.4658C21.8184 67.9408 21.3628 68.3156 20.7646 68.59C20.1699 68.8645 19.4503 69.0017 18.6058 69.0017C17.7965 69.0017 17.0963 68.8733 16.5051 68.6164C15.914 68.3596 15.4513 67.9954 15.117 67.5239C14.7827 67.0488 14.598 66.4858 14.5628 65.8349H16.199C16.2307 66.2254 16.3573 66.5509 16.579 66.8113C16.8042 67.0682 17.091 67.2599 17.4394 67.3866C17.7912 67.5098 18.1765 67.5714 18.5953 67.5714C19.0562 67.5714 19.4661 67.4992 19.8251 67.355C20.1875 67.2072 20.4725 67.0031 20.6801 66.7427C20.8877 66.4788 20.9915 66.1709 20.9915 65.819C20.9915 65.4988 20.9 65.2367 20.7171 65.0326C20.5376 64.8285 20.2931 64.6596 19.9834 64.5259C19.6773 64.3922 19.3307 64.2743 18.9436 64.1722L17.6663 63.8239C16.8007 63.5881 16.1145 63.2415 15.6078 62.7841C15.1047 62.3267 14.8531 61.7214 14.8531 60.9684C14.8531 60.3456 15.022 59.802 15.3598 59.3375C15.6976 58.873 16.155 58.5124 16.7321 58.2555C17.3092 57.9951 17.9601 57.8649 18.685 57.8649C19.4169 57.8649 20.0626 57.9933 20.6221 58.2502C21.1851 58.5071 21.6284 58.8607 21.9521 59.3111C22.2759 59.758 22.4448 60.2717 22.4588 60.8523H20.886ZM28.5089 58.0127V68.8223H26.8727V59.6489H26.8093L24.223 61.3379V59.7756L26.9202 58.0127H28.5089ZM35.001 68.9701C34.3394 68.9701 33.7448 68.8434 33.2169 68.59C32.6927 68.3332 32.2739 67.9813 31.9608 67.5344C31.6476 67.0875 31.4805 66.5773 31.4593 66.0038H33.0428C33.0815 66.4682 33.2873 66.85 33.6603 67.1491C34.0333 67.4482 34.4802 67.5977 35.001 67.5977C35.4162 67.5977 35.7839 67.5027 36.1041 67.3127C36.4278 67.1192 36.6812 66.8535 36.8641 66.5157C37.0506 66.1779 37.1439 65.7926 37.1439 65.3598C37.1439 64.92 37.0489 64.5276 36.8588 64.1828C36.6688 63.838 36.4067 63.567 36.0724 63.37C35.7416 63.1729 35.3616 63.0726 34.9323 63.0691C34.6051 63.0691 34.2761 63.1254 33.9453 63.238C33.6146 63.3506 33.3471 63.4984 33.1431 63.6814L31.6494 63.4597L32.2563 58.0127H38.1995V59.4114H33.6128L33.2697 62.4358H33.3331C33.5442 62.2317 33.8239 62.061 34.1723 61.9238C34.5242 61.7865 34.9007 61.7179 35.3018 61.7179C35.9598 61.7179 36.5457 61.8745 37.0594 62.1877C37.5767 62.5008 37.9831 62.9284 38.2787 63.4703C38.5778 64.0086 38.7255 64.6279 38.722 65.3282C38.7255 66.0284 38.5672 66.653 38.247 67.2019C37.9303 67.7508 37.4905 68.1836 36.9275 68.5003C36.368 68.8135 35.7258 68.9701 35.001 68.9701ZM44.4131 69.0017C43.5792 68.9982 42.8667 68.7783 42.2755 68.342C41.6844 67.9056 41.2322 67.2705 40.919 66.4366C40.6059 65.6026 40.4493 64.598 40.4493 63.4228C40.4493 62.251 40.6059 61.2499 40.919 60.4195C41.2357 59.5891 41.6896 58.9557 42.2808 58.5194C42.8755 58.0831 43.5862 57.8649 44.4131 57.8649C45.24 57.8649 45.9491 58.0848 46.5402 58.5247C47.1314 58.961 47.5835 59.5944 47.8967 60.4248C48.2134 61.2517 48.3717 62.251 48.3717 63.4228C48.3717 64.6015 48.2151 65.6079 47.902 66.4418C47.5888 67.2723 47.1366 67.9074 46.5455 68.3472C45.9544 68.7836 45.2436 69.0017 44.4131 69.0017ZM44.4131 67.5925C45.145 67.5925 45.7168 67.2353 46.1285 66.521C46.5437 65.8067 46.7513 64.774 46.7513 63.4228C46.7513 62.5255 46.6563 61.7672 46.4663 61.1479C46.2798 60.5251 46.0107 60.0536 45.6588 59.7334C45.3104 59.4096 44.8952 59.2478 44.4131 59.2478C43.6848 59.2478 43.113 59.6067 42.6978 60.3245C42.2825 61.0423 42.0732 62.0751 42.0697 63.4228C42.0697 64.3236 42.1629 65.0854 42.3494 65.7082C42.5394 66.3275 42.8086 66.7972 43.157 67.1174C43.5053 67.4341 43.924 67.5925 44.4131 67.5925ZM54.0074 69.0017C53.1735 68.9982 52.4609 68.7783 51.8698 68.342C51.2786 67.9056 50.8265 67.2705 50.5133 66.4366C50.2002 65.6026 50.0436 64.598 50.0436 63.4228C50.0436 62.251 50.2002 61.2499 50.5133 60.4195C50.83 59.5891 51.2839 58.9557 51.8751 58.5194C52.4697 58.0831 53.1805 57.8649 54.0074 57.8649C54.8343 57.8649 55.5434 58.0848 56.1345 58.5247C56.7257 58.961 57.1778 59.5944 57.491 60.4248C57.8077 61.2517 57.966 62.251 57.966 63.4228C57.966 64.6015 57.8094 65.6079 57.4963 66.4418C57.1831 67.2723 56.7309 67.9074 56.1398 68.3472C55.5486 68.7836 54.8379 69.0017 54.0074 69.0017ZM54.0074 67.5925C54.7393 67.5925 55.3111 67.2353 55.7228 66.521C56.138 65.8067 56.3456 64.774 56.3456 63.4228C56.3456 62.5255 56.2506 61.7672 56.0606 61.1479C55.8741 60.5251 55.6049 60.0536 55.2531 59.7334C54.9047 59.4096 54.4895 59.2478 54.0074 59.2478C53.2791 59.2478 52.7073 59.6067 52.292 60.3245C51.8768 61.0423 51.6675 62.0751 51.6639 63.4228C51.6639 64.3236 51.7572 65.0854 51.9437 65.7082C52.1337 66.3275 52.4029 66.7972 52.7512 67.1174C53.0996 67.4341 53.5183 67.5925 54.0074 67.5925ZM63.6017 69.0017C62.7678 68.9982 62.0552 68.7783 61.4641 68.342C60.8729 67.9056 60.4208 67.2705 60.1076 66.4366C59.7944 65.6026 59.6379 64.598 59.6379 63.4228C59.6379 62.251 59.7944 61.2499 60.1076 60.4195C60.4243 59.5891 60.8782 58.9557 61.4694 58.5194C62.064 58.0831 62.7748 57.8649 63.6017 57.8649C64.4286 57.8649 65.1376 58.0848 65.7288 58.5247C66.3199 58.961 66.7721 59.5944 67.0853 60.4248C67.402 61.2517 67.5603 62.251 67.5603 63.4228C67.5603 64.6015 67.4037 65.6079 67.0906 66.4418C66.7774 67.2723 66.3252 67.9074 65.7341 68.3472C65.1429 68.7836 64.4321 69.0017 63.6017 69.0017ZM63.6017 67.5925C64.3336 67.5925 64.9054 67.2353 65.3171 66.521C65.7323 65.8067 65.9399 64.774 65.9399 63.4228C65.9399 62.5255 65.8449 61.7672 65.6549 61.1479C65.4684 60.5251 65.1992 60.0536 64.8474 59.7334C64.499 59.4096 64.0838 59.2478 63.6017 59.2478C62.8733 59.2478 62.3015 59.6067 61.8863 60.3245C61.4711 61.0423 61.2618 62.0751 61.2582 63.4228C61.2582 64.3236 61.3515 65.0854 61.538 65.7082C61.728 66.3275 61.9972 66.7972 62.3455 67.1174C62.6939 67.4341 63.1126 67.5925 63.6017 67.5925Z" fill="black"/>
<path d="M18.6043 78.6454H19.3523V82.7351C19.3523 83.1574 19.2528 83.5344 19.0537 83.8662C18.8567 84.1959 18.5782 84.4563 18.2183 84.6473C17.8583 84.8363 17.4361 84.9308 16.9515 84.9308C16.4669 84.9308 16.0447 84.8363 15.6848 84.6473C15.3248 84.4563 15.0454 84.1959 14.8463 83.8662C14.6492 83.5344 14.5507 83.1574 14.5507 82.7351V78.6454H15.2987V82.6748C15.2987 82.9764 15.3651 83.2449 15.4978 83.4801C15.6305 83.7134 15.8195 83.8973 16.0648 84.0321C16.3121 84.1648 16.6077 84.2311 16.9515 84.2311C17.2953 84.2311 17.5909 84.1648 17.8382 84.0321C18.0855 83.8973 18.2746 83.7134 18.4052 83.4801C18.538 83.2449 18.6043 82.9764 18.6043 82.6748V78.6454ZM20.7495 86.5595V80.1896H21.4371V80.9255H21.5216C21.5739 80.8451 21.6463 80.7425 21.7388 80.6179C21.8333 80.4912 21.968 80.3786 22.1429 80.2801C22.3198 80.1795 22.5591 80.1293 22.8607 80.1293C23.2508 80.1293 23.5946 80.2268 23.8922 80.4218C24.1898 80.6169 24.422 80.8933 24.5889 81.2512C24.7558 81.6092 24.8393 82.0314 24.8393 82.518C24.8393 83.0086 24.7558 83.4339 24.5889 83.7938C24.422 84.1517 24.1908 84.4292 23.8952 84.6262C23.5997 84.8213 23.2588 84.9188 22.8728 84.9188C22.5752 84.9188 22.3369 84.8695 22.158 84.771C21.979 84.6705 21.8413 84.5569 21.7448 84.4302C21.6483 84.3015 21.5739 84.1949 21.5216 84.1105H21.4613V86.5595H20.7495ZM21.4492 82.5059C21.4492 82.8558 21.5005 83.1644 21.603 83.4319C21.7056 83.6973 21.8554 83.9054 22.0524 84.0562C22.2495 84.205 22.4908 84.2794 22.7763 84.2794C23.0739 84.2794 23.3222 84.201 23.5212 84.0441C23.7223 83.8853 23.8731 83.6721 23.9737 83.4047C24.0762 83.1353 24.1275 82.8357 24.1275 82.5059C24.1275 82.1802 24.0772 81.8866 23.9767 81.6252C23.8781 81.3618 23.7283 81.1537 23.5273 81.0009C23.3282 80.8461 23.0779 80.7687 22.7763 80.7687C22.4867 80.7687 22.2434 80.8421 22.0464 80.9888C21.8493 81.1336 21.7005 81.3367 21.6 81.5981C21.4995 81.8575 21.4492 82.1601 21.4492 82.5059ZM27.6744 84.9188C27.2883 84.9188 26.9475 84.8213 26.6519 84.6262C26.3563 84.4292 26.1251 84.1517 25.9582 83.7938C25.7913 83.4339 25.7079 83.0086 25.7079 82.518C25.7079 82.0314 25.7913 81.6092 25.9582 81.2512C26.1251 80.8933 26.3574 80.6169 26.6549 80.4218C26.9525 80.2268 27.2964 80.1293 27.6864 80.1293C27.988 80.1293 28.2263 80.1795 28.4012 80.2801C28.5782 80.3786 28.7129 80.4912 28.8054 80.6179C28.8999 80.7425 28.9733 80.8451 29.0256 80.9255H29.0859V78.6454H29.7977V84.8223H29.11V84.1105H29.0256C28.9733 84.1949 28.8989 84.3015 28.8024 84.4302C28.7059 84.5569 28.5681 84.6705 28.3892 84.771C28.2102 84.8695 27.972 84.9188 27.6744 84.9188ZM27.7709 84.2794C28.0564 84.2794 28.2977 84.205 28.4947 84.0562C28.6918 83.9054 28.8416 83.6973 28.9441 83.4319C29.0467 83.1644 29.0979 82.8558 29.0979 82.5059C29.0979 82.1601 29.0477 81.8575 28.9471 81.5981C28.8466 81.3367 28.6978 81.1336 28.5008 80.9888C28.3037 80.8421 28.0604 80.7687 27.7709 80.7687C27.4693 80.7687 27.2179 80.8461 27.0169 81.0009C26.8178 81.1537 26.668 81.3618 26.5675 81.6252C26.4689 81.8866 26.4197 82.1802 26.4197 82.5059C26.4197 82.8357 26.47 83.1353 26.5705 83.4047C26.673 83.6721 26.8238 83.8853 27.0229 84.0441C27.224 84.201 27.4733 84.2794 27.7709 84.2794ZM32.5634 84.9308C32.2698 84.9308 32.0034 84.8755 31.7641 84.765C31.5249 84.6524 31.3349 84.4905 31.1941 84.2794C31.0534 84.0662 30.983 83.8089 30.983 83.5073C30.983 83.2418 31.0353 83.0267 31.1398 82.8618C31.2444 82.6949 31.3841 82.5642 31.5591 82.4697C31.734 82.3752 31.927 82.3049 32.1381 82.2586C32.3513 82.2104 32.5654 82.1722 32.7806 82.144C33.0621 82.1078 33.2903 82.0807 33.4652 82.0626C33.6421 82.0425 33.7708 82.0093 33.8513 81.963C33.9337 81.9168 33.9749 81.8364 33.9749 81.7218V81.6976C33.9749 81.4 33.8935 81.1688 33.7306 81.0039C33.5698 80.8391 33.3255 80.7566 32.9977 80.7566C32.6579 80.7566 32.3915 80.831 32.1985 80.9798C32.0054 81.1286 31.8697 81.2874 31.7913 81.4563L31.1157 81.2151C31.2363 80.9336 31.3972 80.7144 31.5983 80.5576C31.8013 80.3987 32.0225 80.2881 32.2618 80.2258C32.5031 80.1614 32.7403 80.1293 32.9736 80.1293C33.1224 80.1293 33.2933 80.1474 33.4863 80.1836C33.6814 80.2177 33.8694 80.2891 34.0503 80.3977C34.2333 80.5063 34.3851 80.6702 34.5057 80.8893C34.6264 81.1085 34.6867 81.402 34.6867 81.77V84.8223H33.9749V84.1949H33.9387C33.8905 84.2955 33.81 84.403 33.6974 84.5176C33.5848 84.6323 33.435 84.7298 33.2481 84.8102C33.0611 84.8906 32.8328 84.9308 32.5634 84.9308ZM32.672 84.2914C32.9535 84.2914 33.1907 84.2361 33.3838 84.1256C33.5788 84.015 33.7256 83.8722 33.8241 83.6973C33.9247 83.5223 33.9749 83.3384 33.9749 83.1453V82.4939C33.9448 82.5301 33.8784 82.5632 33.7759 82.5934C33.6753 82.6215 33.5587 82.6467 33.426 82.6688C33.2953 82.6889 33.1676 82.707 33.043 82.7231C32.9203 82.7372 32.8208 82.7492 32.7444 82.7593C32.5594 82.7834 32.3865 82.8226 32.2256 82.8769C32.0668 82.9292 31.9381 83.0086 31.8395 83.1152C31.743 83.2197 31.6948 83.3625 31.6948 83.5435C31.6948 83.7908 31.7863 83.9778 31.9692 84.1044C32.1542 84.2291 32.3885 84.2914 32.672 84.2914ZM38.0006 80.1896V80.7928H35.5998V80.1896H38.0006ZM36.2996 79.0797H37.0113V83.4952C37.0113 83.6963 37.0405 83.8471 37.0988 83.9476C37.1591 84.0461 37.2355 84.1125 37.328 84.1467C37.4225 84.1788 37.5221 84.1949 37.6266 84.1949C37.705 84.1949 37.7694 84.1909 37.8197 84.1829C37.8699 84.1728 37.9101 84.1648 37.9403 84.1587L38.0851 84.7981C38.0368 84.8162 37.9694 84.8343 37.883 84.8524C37.7965 84.8725 37.6869 84.8826 37.5542 84.8826C37.3532 84.8826 37.1561 84.8394 36.9631 84.7529C36.7721 84.6664 36.6132 84.5347 36.4865 84.3578C36.3619 84.1808 36.2996 83.9577 36.2996 83.6882V79.0797ZM40.9639 84.9188C40.5175 84.9188 40.1325 84.8203 39.8087 84.6232C39.487 84.4241 39.2387 84.1467 39.0638 83.7908C38.8909 83.4329 38.8044 83.0166 38.8044 82.5421C38.8044 82.0676 38.8909 81.6494 39.0638 81.2874C39.2387 80.9235 39.482 80.64 39.7937 80.4369C40.1073 80.2318 40.4733 80.1293 40.8915 80.1293C41.1328 80.1293 41.3711 80.1695 41.6063 80.2499C41.8416 80.3303 42.0557 80.461 42.2487 80.642C42.4418 80.821 42.5956 81.0582 42.7102 81.3538C42.8248 81.6494 42.8821 82.0133 42.8821 82.4456V82.7472H39.3111V82.1319H42.1583C42.1583 81.8705 42.106 81.6373 42.0014 81.4322C41.8989 81.2271 41.7521 81.0653 41.5611 80.9466C41.3721 80.828 41.1489 80.7687 40.8915 80.7687C40.608 80.7687 40.3627 80.8391 40.1556 80.9798C39.9505 81.1185 39.7927 81.2995 39.6821 81.5227C39.5715 81.7459 39.5162 81.9852 39.5162 82.2405V82.6507C39.5162 83.0006 39.5765 83.2971 39.6971 83.5404C39.8198 83.7817 39.9897 83.9657 40.2069 84.0924C40.424 84.217 40.6764 84.2794 40.9639 84.2794C41.1509 84.2794 41.3198 84.2532 41.4706 84.201C41.6234 84.1467 41.7551 84.0662 41.8657 83.9597C41.9763 83.8511 42.0617 83.7164 42.1221 83.5555L42.8097 83.7485C42.7373 83.9818 42.6157 84.1869 42.4448 84.3638C42.2739 84.5388 42.0627 84.6755 41.8114 84.774C41.5601 84.8705 41.2776 84.9188 40.9639 84.9188ZM45.7142 84.9188C45.3281 84.9188 44.9873 84.8213 44.6918 84.6262C44.3962 84.4292 44.1649 84.1517 43.9981 83.7938C43.8312 83.4339 43.7477 83.0086 43.7477 82.518C43.7477 82.0314 43.8312 81.6092 43.9981 81.2512C44.1649 80.8933 44.3972 80.6169 44.6948 80.4218C44.9924 80.2268 45.3362 80.1293 45.7263 80.1293C46.0279 80.1293 46.2661 80.1795 46.4411 80.2801C46.618 80.3786 46.7527 80.4912 46.8452 80.6179C46.9397 80.7425 47.0131 80.8451 47.0654 80.9255H47.1257V78.6454H47.8375V84.8223H47.1498V84.1105H47.0654C47.0131 84.1949 46.9387 84.3015 46.8422 84.4302C46.7457 84.5569 46.608 84.6705 46.429 84.771C46.2501 84.8695 46.0118 84.9188 45.7142 84.9188ZM45.8107 84.2794C46.0962 84.2794 46.3375 84.205 46.5346 84.0562C46.7316 83.9054 46.8814 83.6973 46.984 83.4319C47.0865 83.1644 47.1378 82.8558 47.1378 82.5059C47.1378 82.1601 47.0875 81.8575 46.987 81.5981C46.8864 81.3367 46.7376 81.1336 46.5406 80.9888C46.3435 80.8421 46.1003 80.7687 45.8107 80.7687C45.5091 80.7687 45.2578 80.8461 45.0567 81.0009C44.8576 81.1537 44.7078 81.3618 44.6073 81.6252C44.5088 81.8866 44.4595 82.1802 44.4595 82.5059C44.4595 82.8357 44.5098 83.1353 44.6103 83.4047C44.7129 83.6721 44.8637 83.8853 45.0627 84.0441C45.2638 84.201 45.5131 84.2794 45.8107 84.2794ZM51.6166 84.8223V84.2794L53.6555 82.0475C53.8948 81.7861 54.0918 81.5589 54.2466 81.3659C54.4015 81.1708 54.5161 80.9878 54.5905 80.8169C54.6669 80.644 54.7051 80.463 54.7051 80.274C54.7051 80.0569 54.6528 79.8689 54.5482 79.71C54.4457 79.5512 54.305 79.4285 54.126 79.3421C53.947 79.2556 53.746 79.2124 53.5228 79.2124C53.2855 79.2124 53.0784 79.2616 52.9015 79.3602C52.7265 79.4567 52.5908 79.5924 52.4943 79.7673C52.3998 79.9423 52.3526 80.1474 52.3526 80.3826H51.6408C51.6408 80.0207 51.7242 79.703 51.8911 79.4295C52.058 79.1561 52.2852 78.943 52.5727 78.7901C52.8623 78.6373 53.187 78.5609 53.5469 78.5609C53.9088 78.5609 54.2295 78.6373 54.509 78.7901C54.7885 78.943 55.0077 79.149 55.1665 79.4084C55.3254 79.6678 55.4048 79.9563 55.4048 80.274C55.4048 80.5013 55.3636 80.7234 55.2811 80.9406C55.2007 81.1557 55.06 81.396 54.8589 81.6614C54.6598 81.9248 54.3834 82.2465 54.0295 82.6266L52.6421 84.1105V84.1587H55.5134V84.8223H51.6166ZM56.7711 84.8223V80.1896H57.4587V80.9134H57.5191C57.6156 80.6661 57.7714 80.4741 57.9866 80.3374C58.2017 80.1986 58.4601 80.1293 58.7617 80.1293C59.0673 80.1293 59.3217 80.1986 59.5248 80.3374C59.7298 80.4741 59.8897 80.6661 60.0043 80.9134H60.0526C60.1712 80.6742 60.3491 80.4842 60.5864 80.3434C60.8237 80.2007 61.1082 80.1293 61.44 80.1293C61.8542 80.1293 62.193 80.259 62.4564 80.5183C62.7198 80.7757 62.8515 81.1768 62.8515 81.7218V84.8223H62.1397V81.7218C62.1397 81.3799 62.0462 81.1356 61.8592 80.9888C61.6722 80.8421 61.452 80.7687 61.1987 80.7687C60.8729 80.7687 60.6206 80.8672 60.4416 81.0643C60.2627 81.2593 60.1732 81.5066 60.1732 81.8062V84.8223H59.4494V81.6494C59.4494 81.386 59.3639 81.1738 59.193 81.013C59.0221 80.8501 58.8019 80.7687 58.5325 80.7687C58.3475 80.7687 58.1746 80.8179 58.0137 80.9165C57.8549 81.015 57.7262 81.1517 57.6276 81.3266C57.5311 81.4996 57.4829 81.6996 57.4829 81.9268V84.8223H56.7711ZM64.1529 84.8223V80.1896H64.8647V84.8223H64.1529ZM64.5148 79.4175C64.3761 79.4175 64.2565 79.3702 64.1559 79.2757C64.0574 79.1812 64.0081 79.0676 64.0081 78.9349C64.0081 78.8022 64.0574 78.6886 64.1559 78.5941C64.2565 78.4996 64.3761 78.4523 64.5148 78.4523C64.6536 78.4523 64.7722 78.4996 64.8707 78.5941C64.9713 78.6886 65.0215 78.8022 65.0215 78.9349C65.0215 79.0676 64.9713 79.1812 64.8707 79.2757C64.7722 79.3702 64.6536 79.4175 64.5148 79.4175ZM66.8802 82.0354V84.8223H66.1684V80.1896H66.8561V80.9134H66.9164C67.025 80.6782 67.1898 80.4892 67.411 80.3464C67.6322 80.2017 67.9177 80.1293 68.2676 80.1293C68.5812 80.1293 68.8557 80.1936 69.091 80.3223C69.3262 80.449 69.5092 80.642 69.6399 80.9014C69.7706 81.1588 69.8359 81.4845 69.8359 81.8786V84.8223H69.1241V81.9268C69.1241 81.5629 69.0296 81.2794 68.8406 81.0763C68.6516 80.8712 68.3922 80.7687 68.0625 80.7687C67.8353 80.7687 67.6322 80.8179 67.4532 80.9165C67.2763 81.015 67.1365 81.1588 67.034 81.3478C66.9315 81.5368 66.8802 81.766 66.8802 82.0354ZM74.4181 81.2271L73.7787 81.4081C73.7385 81.3015 73.6791 81.198 73.6007 81.0974C73.5243 80.9949 73.4198 80.9104 73.2871 80.8441C73.1543 80.7777 72.9844 80.7445 72.7773 80.7445C72.4938 80.7445 72.2576 80.8099 72.0686 80.9406C71.8816 81.0693 71.7881 81.2331 71.7881 81.4322C71.7881 81.6092 71.8524 81.7489 71.9811 81.8514C72.1098 81.954 72.3109 82.0394 72.5843 82.1078L73.272 82.2767C73.6862 82.3772 73.9948 82.5311 74.1979 82.7382C74.401 82.9433 74.5025 83.2077 74.5025 83.5314C74.5025 83.7968 74.4261 84.0341 74.2733 84.2432C74.1225 84.4523 73.9114 84.6172 73.6399 84.7378C73.3685 84.8585 73.0528 84.9188 72.6929 84.9188C72.2204 84.9188 71.8293 84.8162 71.5196 84.6111C71.21 84.406 71.0139 84.1065 70.9315 83.7124L71.6071 83.5435C71.6714 83.7928 71.7931 83.9798 71.972 84.1044C72.153 84.2291 72.3893 84.2914 72.6808 84.2914C73.0126 84.2914 73.276 84.2211 73.471 84.0803C73.6681 83.9376 73.7666 83.7666 73.7666 83.5676C73.7666 83.4067 73.7103 83.272 73.5977 83.1634C73.4851 83.0528 73.3122 82.9704 73.0789 82.9161L72.3068 82.7351C71.8826 82.6346 71.5709 82.4788 71.3719 82.2677C71.1748 82.0545 71.0763 81.7881 71.0763 81.4684C71.0763 81.207 71.1497 80.9758 71.2965 80.7747C71.4452 80.5736 71.6473 80.4158 71.9027 80.3012C72.1601 80.1866 72.4516 80.1293 72.7773 80.1293C73.2358 80.1293 73.5957 80.2298 73.8571 80.4309C74.1205 80.6319 74.3075 80.8974 74.4181 81.2271ZM79.326 84.9308C79.0324 84.9308 78.766 84.8755 78.5267 84.765C78.2874 84.6524 78.0974 84.4905 77.9567 84.2794C77.8159 84.0662 77.7455 83.8089 77.7455 83.5073C77.7455 83.2418 77.7978 83.0267 77.9024 82.8618C78.0069 82.6949 78.1467 82.5642 78.3216 82.4697C78.4965 82.3752 78.6896 82.3049 78.9007 82.2586C79.1138 82.2104 79.328 82.1722 79.5431 82.144C79.8246 82.1078 80.0528 82.0807 80.2278 82.0626C80.4047 82.0425 80.5334 82.0093 80.6138 81.963C80.6963 81.9168 80.7375 81.8364 80.7375 81.7218V81.6976C80.7375 81.4 80.656 81.1688 80.4932 81.0039C80.3323 80.8391 80.088 80.7566 79.7603 80.7566C79.4205 80.7566 79.154 80.831 78.961 80.9798C78.768 81.1286 78.6323 81.2874 78.5539 81.4563L77.8783 81.2151C77.9989 80.9336 78.1598 80.7144 78.3608 80.5576C78.5639 80.3987 78.7851 80.2881 79.0244 80.2258C79.2656 80.1614 79.5029 80.1293 79.7361 80.1293C79.8849 80.1293 80.0559 80.1474 80.2489 80.1836C80.4439 80.2177 80.6319 80.2891 80.8129 80.3977C80.9959 80.5063 81.1477 80.6702 81.2683 80.8893C81.389 81.1085 81.4493 81.402 81.4493 81.77V84.8223H80.7375V84.1949H80.7013C80.653 84.2955 80.5726 84.403 80.46 84.5176C80.3474 84.6323 80.1976 84.7298 80.0106 84.8102C79.8236 84.8906 79.5954 84.9308 79.326 84.9308ZM79.4345 84.2914C79.716 84.2914 79.9533 84.2361 80.1463 84.1256C80.3414 84.015 80.4882 83.8722 80.5867 83.6973C80.6872 83.5223 80.7375 83.3384 80.7375 83.1453V82.4939C80.7073 82.5301 80.641 82.5632 80.5384 82.5934C80.4379 82.6215 80.3213 82.6467 80.1886 82.6688C80.0579 82.6889 79.9302 82.707 79.8055 82.7231C79.6829 82.7372 79.5833 82.7492 79.5069 82.7593C79.3219 82.7834 79.149 82.8226 78.9882 82.8769C78.8293 82.9292 78.7006 83.0086 78.6021 83.1152C78.5056 83.2197 78.4573 83.3625 78.4573 83.5435C78.4573 83.7908 78.5488 83.9778 78.7318 84.1044C78.9168 84.2291 79.151 84.2914 79.4345 84.2914ZM84.6184 86.656C84.2746 86.656 83.979 86.6118 83.7317 86.5233C83.4844 86.4369 83.2783 86.3223 83.1134 86.1795C82.9505 86.0387 82.8208 85.8879 82.7243 85.7271L83.2913 85.329C83.3557 85.4134 83.4371 85.5099 83.5356 85.6185C83.6342 85.7291 83.7689 85.8246 83.9398 85.905C84.1127 85.9875 84.3389 86.0287 84.6184 86.0287C84.9924 86.0287 85.301 85.9382 85.5443 85.7572C85.7876 85.5763 85.9093 85.2928 85.9093 84.9067V83.9657H85.849C85.7967 84.0502 85.7223 84.1547 85.6258 84.2794C85.5313 84.402 85.3945 84.5116 85.2156 84.6081C85.0386 84.7026 84.7994 84.7499 84.4978 84.7499C84.1238 84.7499 83.788 84.6614 83.4904 84.4845C83.1948 84.3075 82.9606 84.0502 82.7877 83.7124C82.6167 83.3746 82.5313 82.9644 82.5313 82.4818C82.5313 82.0073 82.6147 81.5941 82.7816 81.2422C82.9485 80.8883 83.1807 80.6149 83.4783 80.4218C83.7759 80.2268 84.1198 80.1293 84.5098 80.1293C84.8114 80.1293 85.0507 80.1795 85.2277 80.2801C85.4066 80.3786 85.5433 80.4912 85.6378 80.6179C85.7344 80.7425 85.8087 80.8451 85.861 80.9255H85.9334V80.1896H86.6211V84.955C86.6211 85.3531 86.5306 85.6768 86.3496 85.9261C86.1707 86.1775 85.9294 86.3615 85.6258 86.4781C85.3242 86.5967 84.9884 86.656 84.6184 86.656ZM84.5943 84.1105C84.8798 84.1105 85.1211 84.0451 85.3181 83.9144C85.5152 83.7837 85.665 83.5957 85.7675 83.3504C85.8701 83.1051 85.9213 82.8116 85.9213 82.4697C85.9213 82.136 85.8711 81.8414 85.7705 81.586C85.67 81.3307 85.5212 81.1306 85.3242 80.9858C85.1271 80.8411 84.8838 80.7687 84.5943 80.7687C84.2927 80.7687 84.0413 80.8451 83.8403 80.9979C83.6412 81.1507 83.4914 81.3558 83.3909 81.6132C83.2923 81.8705 83.2431 82.1561 83.2431 82.4697C83.2431 82.7914 83.2933 83.076 83.3939 83.3233C83.4964 83.5686 83.6472 83.7616 83.8463 83.9024C84.0474 84.0411 84.2967 84.1105 84.5943 84.1105ZM89.806 84.9188C89.3878 84.9188 89.0208 84.8192 88.7052 84.6202C88.3915 84.4211 88.1462 84.1426 87.9692 83.7847C87.7943 83.4268 87.7069 83.0086 87.7069 82.5301C87.7069 82.0475 87.7943 81.6262 87.9692 81.2663C88.1462 80.9064 88.3915 80.6269 88.7052 80.4279C89.0208 80.2288 89.3878 80.1293 89.806 80.1293C90.2243 80.1293 90.5902 80.2288 90.9039 80.4279C91.2196 80.6269 91.4649 80.9064 91.6398 81.2663C91.8167 81.6262 91.9052 82.0475 91.9052 82.5301C91.9052 83.0086 91.8167 83.4268 91.6398 83.7847C91.4649 84.1426 91.2196 84.4211 90.9039 84.6202C90.5902 84.8192 90.2243 84.9188 89.806 84.9188ZM89.806 84.2794C90.1237 84.2794 90.3851 84.1979 90.5902 84.0351C90.7953 83.8722 90.9471 83.6581 91.0456 83.3927C91.1442 83.1272 91.1934 82.8397 91.1934 82.5301C91.1934 82.2204 91.1442 81.9319 91.0456 81.6644C90.9471 81.397 90.7953 81.1809 90.5902 81.016C90.3851 80.8511 90.1237 80.7687 89.806 80.7687C89.4883 80.7687 89.2269 80.8511 89.0219 81.016C88.8168 81.1809 88.665 81.397 88.5664 81.6644C88.4679 81.9319 88.4186 82.2204 88.4186 82.5301C88.4186 82.8397 88.4679 83.1272 88.5664 83.3927C88.665 83.6581 88.8168 83.8722 89.0219 84.0351C89.2269 84.1979 89.4883 84.2794 89.806 84.2794Z" fill="#C1C7D0"/>
</g>
<defs>
<filter id="filter0_dd_2172_13562" x="0.532518" y="0.208853" width="186.851" height="109.316" filterUnits="userSpaceOnUse" color-interpolation-filters="sRGB">
<feFlood flood-opacity="0" result="BackgroundImageFix"/>
<feColorMatrix in="SourceAlpha" type="matrix" values="0 0 0 0 0 0 0 0 0 0 0 0 0 0 0 0 0 0 127 0" result="hardAlpha"/>
<feOffset dy="0.530827"/>
<feGaussianBlur stdDeviation="0.530827"/>
<feColorMatrix type="matrix" values="0 0 0 0 0.0627451 0 0 0 0 0.0941176 0 0 0 0 0.156863 0 0 0 0.06 0"/>
<feBlend mode="normal" in2="BackgroundImageFix" result="effect1_dropShadow_2172_13562"/>
<feColorMatrix in="SourceAlpha" type="matrix" values="0 0 0 0 0 0 0 0 0 0 0 0 0 0 0 0 0 0 127 0" result="hardAlpha"/>
<feOffset dy="0.530827"/>
<feGaussianBlur stdDeviation="0.796241"/>
<feColorMatrix type="matrix" values="0 0 0 0 0.0627451 0 0 0 0 0.0941176 0 0 0 0 0.156863 0 0 0 0.1 0"/>
<feBlend mode="normal" in2="effect1_dropShadow_2172_13562" result="effect2_dropShadow_2172_13562"/>
<feBlend mode="normal" in="SourceGraphic" in2="effect2_dropShadow_2172_13562" result="shape"/>
</filter>
<clipPath id="clip0_2172_13562">
<rect width="21.2331" height="21.2331" fill="white" transform="translate(13.8027 19.8496)"/>
</clipPath>
</defs>
</svg>
