<svg width="87" height="75" viewBox="0 0 87 75" fill="none" xmlns="http://www.w3.org/2000/svg">
<path d="M85.4285 14.8525L74.7286 14.8517V4.19514C74.722 1.87771 72.8502 0.00653678 70.5342 0.000731511L40.1839 0C39.1634 0.00512063 38.1517 0.268466 37.1854 0.663486C36.2227 1.06727 35.3215 1.5969 34.5958 2.31378L1.22675 35.6829C0.409646 36.4985 0 37.5832 0 38.6484C0 39.7142 0.410376 40.7982 1.22675 41.6155L33.1127 73.5014C33.9276 74.3185 35.0118 74.7282 36.0782 74.726C37.1441 74.7282 38.2268 74.3178 39.0438 73.5014L72.4129 40.1305C73.1305 39.4055 73.6586 38.5036 74.0624 37.5409C74.4575 36.5739 74.7208 35.563 74.7274 34.5424V17.9942L85.4273 17.9949C86.2956 17.9949 87 17.2912 87 16.4222C87.0007 15.5568 86.297 14.8516 85.428 14.8516L85.4285 14.8525ZM71.5824 34.5455C71.5889 34.9668 71.4331 35.6844 71.1574 36.3399C70.8889 36.9982 70.4917 37.6141 70.1896 37.9089L36.8205 71.2799C36.6156 71.4811 36.356 71.582 36.0787 71.5827C35.8 71.582 35.5389 71.4811 35.337 71.2806L3.45105 39.391C3.24843 39.1876 3.14893 38.9272 3.14601 38.6492C3.14893 38.3712 3.24842 38.1116 3.45105 37.9075L36.8201 4.53651C37.1135 4.23366 37.7294 3.83572 38.3892 3.56871C39.0447 3.29219 39.7623 3.13785 40.1836 3.14371H70.534C70.82 3.14371 71.076 3.25782 71.2735 3.45313C71.4688 3.65064 71.5829 3.90521 71.5829 4.19268V14.8485L66.0059 14.8478C65.7082 13.3877 64.9943 11.9912 63.8647 10.8618C62.3315 9.33005 60.3097 8.55677 58.3023 8.55902C56.293 8.55682 54.2724 9.33003 52.7415 10.8633C51.2075 12.3944 50.4358 14.4171 50.4371 16.4242C50.4349 18.4315 51.2067 20.4542 52.7415 21.9851C54.2718 23.5169 56.2937 24.2902 58.3023 24.2894C60.3097 24.2902 62.3316 23.5184 63.8632 21.9851L62.7528 20.8725L63.8654 21.9844C64.9941 20.8542 65.7088 19.4563 66.0059 17.9939L71.5829 17.9946L71.5824 34.5455ZM58.2975 17.995H62.7355C62.5087 18.638 62.1532 19.2452 61.6375 19.7623C60.7114 20.687 59.5139 21.1427 58.3004 21.1442C57.0883 21.142 55.8893 20.6862 54.9633 19.7623C54.0387 18.8362 53.5829 17.6387 53.5815 16.4252C53.5837 15.2117 54.0387 14.0142 54.9626 13.0881C55.8894 12.1635 57.0869 11.707 58.3004 11.7063C59.5103 11.707 60.7115 12.1642 61.6375 13.0881C62.1532 13.6031 62.508 14.2074 62.7333 14.8482H58.2973C57.429 14.8482 56.7246 15.5519 56.7246 16.4209C56.7246 17.2907 57.429 17.9951 58.2973 17.9951L58.2975 17.995Z" fill="#46AE56"/>
<path d="M49.547 40.5496C49.5492 39.7222 49.378 38.8781 49.0225 38.0786C48.6677 37.2783 48.1352 36.5278 47.4476 35.8372C46.7248 35.1159 45.948 34.5717 45.1287 34.2184C44.3116 33.8629 43.4615 33.7056 42.6444 33.7063C41.3028 33.7085 40.0679 34.1035 38.9224 34.6178C38.218 34.9374 37.5421 35.3112 36.8852 35.6924L30.9153 29.721C31.3103 29.4379 31.6943 29.2001 32.0586 29.0195C32.8779 28.6127 33.6014 28.4511 34.2253 28.4503C35.1638 28.4584 35.9334 28.7868 36.6686 29.5066C37.283 30.1204 38.2787 30.1189 38.8931 29.5059C39.5076 28.8922 39.5054 27.8951 38.8909 27.2806C37.662 26.0392 36.0029 25.2967 34.2254 25.3048C33.0476 25.3048 31.8415 25.6142 30.6577 26.2023C29.9899 26.5344 29.3257 26.9667 28.6695 27.4752L27.8744 26.6815C27.2607 26.067 26.2643 26.067 25.6498 26.6815C25.0361 27.2952 25.0361 28.2915 25.6498 28.906L26.3894 29.6463C25.7581 30.3983 25.2716 31.162 24.9213 31.93C24.4399 32.9841 24.2227 34.0441 24.2227 35.0375C24.227 37.0909 25.1217 38.7952 26.2511 39.9233C26.8773 40.5502 27.5642 41.0308 28.295 41.3432C29.0235 41.6577 29.788 41.7974 30.5218 41.7952C31.8246 41.7923 33.0147 41.3893 34.1259 40.8765C34.905 40.5115 35.6591 40.0828 36.3922 39.6475L42.8419 46.0979C41.6839 46.9926 40.5682 47.3627 39.6246 47.3613C38.6473 47.354 37.7958 47.008 37.0313 46.2538C36.4169 45.6393 35.4213 45.6393 34.8068 46.2538C34.1923 46.8682 34.1923 47.8645 34.8068 48.4783C36.1008 49.7826 37.8257 50.5148 39.6246 50.5075C41.4965 50.5068 43.3861 49.746 45.0831 48.3378L45.8672 49.1235C46.4817 49.738 47.478 49.738 48.0925 49.1235C48.7063 48.5098 48.7063 47.5127 48.0925 46.8989L47.2711 46.0767C47.7275 45.5083 48.1364 44.9202 48.478 44.3079C49.1218 43.1478 49.5468 41.883 49.5468 40.5495L49.547 40.5496ZM32.1554 38.2966C31.5321 38.5343 30.9842 38.6513 30.5182 38.6499C30.1635 38.6491 29.8562 38.5899 29.5314 38.4524C29.2081 38.3127 28.8599 38.0873 28.4722 37.6996C27.8643 37.0925 27.3618 36.1393 27.3662 35.0384C27.3662 34.4964 27.4781 33.9016 27.7817 33.2338C27.9733 32.8146 28.255 32.3603 28.628 31.8871L34.0887 37.3478C33.4018 37.7355 32.7486 38.0712 32.1554 38.2965L32.1554 38.2966ZM39.1962 38.0054C39.7836 37.6887 40.3542 37.4063 40.8824 37.2125C41.5312 36.9733 42.1201 36.8518 42.6438 36.8525C43.074 36.8533 43.4653 36.9272 43.8794 37.1049C44.2912 37.2841 44.7352 37.576 45.2217 38.0625C45.6781 38.5197 45.9664 38.9505 46.1463 39.3536C46.3248 39.7581 46.4002 40.14 46.4002 40.5489C46.4023 41.1999 46.1895 41.9475 45.7272 42.7757C45.5355 43.1195 45.2941 43.475 45.0234 43.8342L39.1962 38.0054Z" fill="#46AE56"/>
</svg>
