<svg width="87" height="82" viewBox="0 0 87 82" fill="none" xmlns="http://www.w3.org/2000/svg">
<path d="M36.0892 62.24C36.0892 59.9978 39.4985 59.9978 39.4985 62.24C39.4985 64.192 41.0805 65.774 43.0325 65.774C44.9846 65.774 46.5666 64.192 46.5666 62.24C46.5666 60.2879 44.9846 58.7059 43.0325 58.7059C39.1986 58.7059 36.0892 55.5972 36.0892 51.7626C36.0892 48.582 38.2546 45.8075 41.3279 45.0313V44.1412C41.3279 41.8991 44.7372 41.8991 44.7372 44.1412V45.0313C47.8105 45.8068 49.9758 48.582 49.9758 51.7626C49.9758 54.0048 46.5666 54.0048 46.5666 51.7626C46.5666 49.8106 44.9846 48.2286 43.0325 48.2286C41.0805 48.2286 39.4985 49.8106 39.4985 51.7626C39.4985 53.7147 41.0805 55.2967 43.0325 55.2967C46.8658 55.2967 49.9758 58.4054 49.9758 62.24C49.9758 65.4206 47.8105 68.1951 44.7372 68.9713V69.8614C44.7372 72.1035 41.3279 72.1035 41.3279 69.8614V68.9713C38.2546 68.1958 36.0892 65.4206 36.0892 62.24ZM54.0751 40.8296C59.4153 44.4813 62.6145 50.506 62.6145 57.0016C62.6145 63.4985 59.4153 69.5214 54.0751 73.1737H76.3885V40.8296H54.0751ZM31.9919 73.1737C26.6516 69.5213 23.4525 63.4985 23.4525 57.0016C23.4525 50.5058 26.6516 44.4807 31.9919 40.8296H9.67853V73.1737H31.9919ZM43.0338 40.8296C34.102 40.8296 26.8618 48.0698 26.8618 57.0016C26.8618 65.9335 34.102 73.1737 43.0338 73.1737C51.9657 73.1737 59.2059 65.9335 59.2059 57.0016C59.2059 48.0698 51.9657 40.8296 43.0338 40.8296ZM13.6985 19.9397C14.64 19.9397 15.4031 20.7027 15.4031 21.6443V32.0063H18.21V21.6443C18.21 20.7027 18.9731 19.9397 19.9146 19.9397H21.9467L16.8065 15.0823L11.6664 19.9397H13.6985ZM6.22338 20.4058L15.6413 11.5043C16.2909 10.8925 17.3131 10.885 17.9715 11.5043L27.3056 20.3265C28.5894 21.4578 27.7339 23.3497 26.2245 23.3497H21.6189V32.007H37.3942V12.3088H31.1068C29.4821 12.3057 28.7755 10.2199 30.0889 9.23979L41.9894 0.356822C42.5795 -0.100649 43.4244 -0.130403 44.0517 0.338225L55.9231 9.19818C57.3296 10.2049 56.5852 12.3093 54.9604 12.3093H48.673V32.0074H64.4483V23.3501L59.8427 23.3452C58.3178 23.3452 57.5534 21.4675 58.6779 20.4075C61.817 17.4402 64.9505 14.466 68.0958 11.506C68.7455 10.8941 69.7676 10.8867 70.426 11.506L79.7602 20.3282C81.0439 21.4594 80.1885 23.3513 78.6791 23.3513H74.0734V32.0087H84.3629C85.3045 32.0087 86.0675 32.7717 86.0675 33.7133V80.2966C86.0675 81.237 85.3044 82 84.3629 82H1.70464C0.763044 82 0 81.2369 0 80.2966V33.7133C0 32.7717 0.763075 32.0087 1.70464 32.0087H11.9941V23.3513L7.38843 23.3464C5.86104 23.3464 5.10108 21.4645 6.22368 20.4087L6.22338 20.4058ZM39.0991 8.89892C40.0395 8.89892 40.8025 9.662 40.8025 10.6036V32.006H45.2656V10.6036C45.2656 9.66197 46.0287 8.89892 46.969 8.89892H49.8303L43.034 3.82705L36.2376 8.89892H39.0991ZM66.1541 19.9396C67.0957 19.9396 67.8587 20.7027 67.8587 21.6442V32.0062H70.6656V21.6442C70.6656 20.7026 71.4287 19.9396 72.3703 19.9396H74.4023L69.2622 15.0823L64.1221 19.9396H66.1541ZM67.6015 61.3258C65.3587 61.3258 65.3587 57.9177 67.6015 57.9177H72.7081C74.9522 57.9177 74.9522 61.3258 72.7081 61.3258H67.6015ZM67.6015 56.0859C65.3587 56.0859 65.3587 52.6766 67.6015 52.6766H72.7081C74.9522 52.6766 74.9522 56.0859 72.7081 56.0859H67.6015ZM13.3614 61.3258C11.1174 61.3258 11.1174 57.9177 13.3614 57.9177H18.468C20.7108 57.9177 20.7108 61.3258 18.468 61.3258H13.3614ZM13.3614 56.0859C11.1174 56.0859 11.1174 52.6766 13.3614 52.6766H18.468C20.7108 52.6766 20.7108 56.0859 18.468 56.0859H13.3614ZM7.9758 37.4192H78.0944C79.036 37.4192 79.799 38.1823 79.799 39.1239V74.8782C79.799 75.8198 79.0359 76.5829 78.0944 76.5829H7.9758C7.0342 76.5829 6.27116 75.8198 6.27116 74.8782V39.1239C6.27116 38.1823 7.03423 37.4192 7.9758 37.4192ZM82.6599 35.4133H3.4103V78.5879H82.6599V35.4133Z" fill="#46AE56"/>
</svg>
