<svg width="141" height="35" viewBox="0 0 141 35" fill="none" xmlns="http://www.w3.org/2000/svg">
<path d="M24.8871 7.83246L33.4467 16.4279C33.6106 16.5927 33.7027 16.8162 33.7027 17.0491C33.7027 17.2821 33.6106 17.5056 33.4467 17.6704L17.2615 33.9234C17.2073 33.9779 17.1429 34.0211 17.072 34.0506C17.0012 34.0801 16.9252 34.0953 16.8485 34.0953C16.7718 34.0953 16.6959 34.0801 16.625 34.0506C16.5542 34.0211 16.4898 33.9779 16.4356 33.9234L13.5989 31.0749C13.5447 31.0204 13.5016 30.9558 13.4722 30.8847C13.4429 30.8135 13.4277 30.7372 13.4277 30.6602C13.4277 30.5832 13.4429 30.5069 13.4722 30.4358C13.5016 30.3646 13.5447 30.3 13.5989 30.2455L26.7315 17.0579L21.2158 11.5191C21.1616 11.4647 21.1185 11.4001 21.0891 11.3289C21.0598 11.2578 21.0447 11.1815 21.0447 11.1045C21.0447 11.0274 21.0598 10.9512 21.0891 10.88C21.1185 10.8088 21.1616 10.7442 21.2158 10.6898L24.0525 7.84125C24.1063 7.78485 24.1707 7.73981 24.2421 7.70877C24.3134 7.67773 24.3902 7.66131 24.468 7.66049C24.5457 7.65967 24.6228 7.67446 24.6948 7.70399C24.7668 7.73353 24.8322 7.7772 24.8871 7.83246Z" fill="#40D457"/>
<path d="M17.2555 0.174862L20.0921 3.02339C20.1464 3.07782 20.1894 3.14246 20.2188 3.21361C20.2482 3.28476 20.2633 3.36103 20.2633 3.43806C20.2633 3.51508 20.2482 3.59136 20.2188 3.66251C20.1894 3.73366 20.1464 3.7983 20.0921 3.85274L6.95951 17.0403L12.4752 22.5791C12.5295 22.6336 12.5725 22.6982 12.6019 22.7694C12.6313 22.8405 12.6464 22.9168 12.6464 22.9938C12.6464 23.0708 12.6313 23.1471 12.6019 23.2183C12.5725 23.2894 12.5295 23.3541 12.4752 23.4085L9.63855 26.257C9.58435 26.3115 9.51998 26.3547 9.44912 26.3842C9.37826 26.4137 9.30232 26.4289 9.22561 26.4289C9.14891 26.4289 9.07294 26.4137 9.00209 26.3842C8.93123 26.3547 8.86686 26.3115 8.81265 26.257L0.256033 17.6616C0.0920792 17.4968 0 17.2733 0 17.0403C0 16.8074 0.0920792 16.5839 0.256033 16.4191L16.4237 0.174862C16.478 0.119483 16.5428 0.0754961 16.6142 0.0454773C16.6856 0.0154585 16.7622 0 16.8396 0C16.917 0 16.9936 0.0154585 17.065 0.0454773C17.1364 0.0754961 17.2011 0.119483 17.2555 0.174862Z" fill="#40D457"/>
<path d="M43.9201 21.464C44.166 21.7636 44.4623 22.0175 44.7956 22.2143C45.1428 22.4264 45.5092 22.605 45.89 22.7476C46.269 22.8912 46.6595 23.002 47.0573 23.0788C47.4361 23.1536 47.8211 23.1928 48.2072 23.196C48.5509 23.1952 48.8935 23.1559 49.2286 23.0788C49.5436 23.0106 49.8447 22.8887 50.1187 22.7183C50.3754 22.5563 50.588 22.3327 50.7374 22.0677C50.9003 21.7576 50.9798 21.4101 50.9679 21.0596C50.9688 20.8058 50.9091 20.5555 50.7939 20.3296C50.6786 20.1037 50.5111 19.9089 50.3055 19.7614C49.7996 19.3753 49.2501 19.0506 48.6683 18.7943C48.0145 18.5012 47.3025 18.1876 46.5262 17.8711C45.7752 17.5657 45.0575 17.1837 44.3841 16.7311C43.7454 16.2979 43.1922 15.7494 42.7527 15.1135C42.2934 14.4132 42.0628 13.5865 42.0932 12.7485C42.0745 11.9464 42.2413 11.1509 42.5806 10.4245C42.893 9.77985 43.3446 9.2132 43.9026 8.76583C44.4759 8.31399 45.1295 7.97585 45.8287 7.76943C46.5865 7.54431 47.3732 7.43272 48.1634 7.43828C49.2381 7.43491 50.3047 7.6255 51.3123 8.00095C52.2993 8.36571 53.1956 8.9417 53.9388 9.68897L51.5253 12.0832C51.0337 11.6496 50.4628 11.3162 49.8443 11.1015C49.2146 10.8616 48.5479 10.7347 47.8745 10.7264C47.3018 10.7148 46.738 10.8706 46.2519 11.1748C45.783 11.4737 45.5476 11.969 45.5456 12.6606C45.5489 12.9038 45.6109 13.1426 45.7262 13.3565C45.8416 13.5703 46.007 13.7529 46.2081 13.8885C46.7201 14.2651 47.2745 14.5799 47.8599 14.8263C48.5223 15.1193 49.2344 15.4124 50.0019 15.7201C50.752 16.0196 51.4689 16.3968 52.1411 16.8454C52.7941 17.28 53.3562 17.8385 53.7958 18.4895C54.2559 19.2221 54.4857 20.0768 54.4553 20.9424C54.4731 21.808 54.2808 22.665 53.895 23.4392C53.5397 24.1386 53.0344 24.7501 52.4154 25.2298C51.7815 25.7113 51.0655 26.0728 50.3025 26.2966C49.4959 26.5387 48.658 26.6602 47.8161 26.657C46.6815 26.6643 45.5564 26.4493 44.5038 26.024C43.4374 25.5845 42.4808 24.9141 41.7021 24.0605L43.9201 21.464Z" fill="#F2F2F2"/>
<path d="M60.4174 13.4401H62.4018V16.4117H60.4174V26.4255H57.2072V16.4117H55.2256V13.4401H57.2072V9.77393H60.4174V13.4401Z" fill="#F2F2F2"/>
<path d="M63.2629 19.9342C63.2555 19.0458 63.4324 18.1655 63.7824 17.3495C64.1158 16.5693 64.5931 15.8593 65.189 15.257C65.7921 14.6558 66.5044 14.1763 67.2873 13.8445C68.0953 13.4982 68.9653 13.3216 69.8438 13.3258C70.6083 13.3177 71.3665 13.4642 72.0734 13.7566C72.7267 14.0307 73.3212 14.4287 73.8244 14.9288L73.9412 13.4284H76.7836V26.4255H73.9412L73.8244 24.925C73.3219 25.426 72.7272 25.8242 72.0734 26.0972C71.3671 26.392 70.6086 26.5395 69.8438 26.531C68.9653 26.5351 68.0953 26.3586 67.2873 26.0123C66.5042 25.6795 65.7919 25.199 65.189 24.5968C64.5918 23.9956 64.1144 23.2854 63.7824 22.5044C63.4336 21.6931 63.2567 20.8178 63.2629 19.9342ZM66.4731 19.9342C66.472 20.3911 66.5654 20.8431 66.7474 21.2618C66.9244 21.676 67.178 22.0529 67.4945 22.3725C67.8147 22.6918 68.1893 22.9509 68.6006 23.1374C69.034 23.3346 69.5051 23.4346 69.981 23.4304C70.4559 23.4343 70.9259 23.3343 71.3584 23.1374C71.7674 22.9529 72.1385 22.6935 72.4528 22.3725C72.7611 22.0492 73.0092 21.673 73.1853 21.2618C73.3651 20.8425 73.4574 20.3907 73.4567 19.9342C73.458 19.4777 73.3656 19.0258 73.1853 18.6067C73.0107 18.1947 72.7624 17.8183 72.4528 17.496C72.1418 17.1748 71.7696 16.9197 71.3584 16.7458C70.9233 16.5588 70.4542 16.465 69.981 16.4703C69.5068 16.4647 69.0366 16.5585 68.6006 16.7458C68.1871 16.9217 67.8115 17.1765 67.4945 17.496C67.1769 17.8147 66.9232 18.1918 66.7474 18.6067C66.5678 19.0258 66.4774 19.478 66.4819 19.9342H66.4731Z" fill="#F2F2F2"/>
<path d="M82.8622 9.77393V26.4255H79.5586V9.77393H82.8622ZM88.0072 13.4401H91.7136L86.8195 19.7877L91.7136 26.4255H88.0072L83.0927 19.6441L88.0072 13.4401Z" fill="#F2F2F2"/>
<path d="M101.773 25.3294C101.236 25.7427 100.626 26.0508 99.9757 26.2379C99.3279 26.4318 98.6555 26.5305 97.9795 26.531C97.1047 26.5363 96.2383 26.3597 95.4347 26.0123C94.6549 25.6751 93.9443 25.1951 93.3393 24.5968C92.7331 23.9994 92.2493 23.2886 91.9152 22.5044C91.5692 21.6985 91.3933 20.8294 91.3986 19.9518C91.3917 19.0637 91.5676 18.1837 91.9152 17.3671C92.2506 16.5829 92.7286 15.8683 93.3247 15.26C93.9238 14.6515 94.6356 14.1666 95.4201 13.8328C96.229 13.4862 97.1001 13.3096 97.9795 13.3141C98.8596 13.3089 99.7308 13.4907 100.536 13.8474C101.321 14.1879 102.034 14.6775 102.634 15.2893C103.23 15.8976 103.708 16.6122 104.044 17.3964C104.39 18.2033 104.566 19.0733 104.56 19.9518C104.561 20.463 104.532 20.9738 104.473 21.4816H95.1049C95.3009 22.0775 95.6774 22.597 96.1818 22.9674C96.6947 23.3431 97.3156 23.5407 97.9503 23.5301C98.3043 23.5257 98.6563 23.4765 98.998 23.3835C99.3455 23.306 99.6618 23.1252 99.9056 22.8648L101.773 25.3294ZM101.19 18.9818C100.99 18.2785 100.565 17.6607 99.9815 17.2235C99.4058 16.7778 98.6976 16.5394 97.9708 16.5465C97.2452 16.5327 96.5365 16.7662 95.96 17.2088C95.39 17.651 94.9799 18.2687 94.7927 18.9672L101.19 18.9818Z" fill="#F2F2F2"/>
<path d="M118.44 22.2992C118.198 22.9233 117.863 23.5072 117.448 24.0312C117.044 24.5426 116.57 24.9945 116.041 25.3734C115.507 25.7569 114.916 26.0536 114.29 26.2526C113.634 26.4536 112.951 26.5525 112.265 26.5456C111.386 26.5502 110.516 26.3736 109.708 26.0269C108.925 25.6948 108.212 25.2143 107.61 24.6114C107.009 24.0073 106.53 23.2917 106.201 22.5044C105.856 21.693 105.68 20.8193 105.684 19.9372C105.674 19.0453 105.849 18.1612 106.198 17.3407C106.533 16.5573 107.017 15.8467 107.622 15.2482C108.227 14.6509 108.937 14.1719 109.717 13.8357C110.53 13.4866 111.407 13.31 112.291 13.317C112.969 13.3153 113.643 13.4221 114.287 13.6335C114.916 13.8381 115.512 14.1343 116.056 14.5127C116.592 14.8882 117.071 15.3404 117.477 15.8549C117.889 16.3761 118.214 16.961 118.44 17.5869L115.42 18.6624C115.171 18.0476 114.746 17.5204 114.2 17.1473C113.639 16.7572 112.971 16.5523 112.288 16.5612C111.83 16.5566 111.375 16.6442 110.952 16.819C110.549 16.986 110.183 17.2309 109.875 17.54C109.568 17.8518 109.323 18.2199 109.154 18.6243C108.982 19.0402 108.894 19.4867 108.897 19.9372C108.895 20.3876 108.982 20.8341 109.154 21.2501C109.323 21.6508 109.568 22.015 109.875 22.3227C110.185 22.6333 110.55 22.8828 110.952 23.0582C111.373 23.2442 111.828 23.3381 112.288 23.3337C112.961 23.3392 113.619 23.1344 114.171 22.7476C114.723 22.368 115.148 21.8297 115.39 21.2032L118.44 22.2992Z" fill="#F2F2F2"/>
<path d="M128.552 26.4255V24.8693C128.119 25.3808 127.587 25.7977 126.988 26.0943C126.365 26.3976 125.681 26.5512 124.989 26.5427C124.323 26.5466 123.664 26.414 123.051 26.1529C122.46 25.9025 121.923 25.5392 121.469 25.0833C121.017 24.6275 120.657 24.0881 120.41 23.4949C120.148 22.879 120.016 22.2156 120.022 21.5461V13.4401H123.211V20.8867C123.211 21.2471 123.279 21.6043 123.413 21.9388C123.539 22.2633 123.724 22.5615 123.959 22.8179C124.193 23.0732 124.476 23.2794 124.79 23.4246C125.123 23.581 125.488 23.6602 125.855 23.6561C126.232 23.662 126.605 23.5829 126.947 23.4246C127.272 23.2714 127.56 23.0507 127.793 22.7769C128.037 22.4913 128.227 22.1636 128.354 21.8098C128.489 21.44 128.557 21.049 128.555 20.6552V13.4401H131.765V26.4255H128.552Z" fill="#F2F2F2"/>
<path d="M138.901 13.4401H140.885V16.4117H138.901V26.4255H135.691V16.4117H133.709V13.4401H135.691V9.77393H138.901V13.4401Z" fill="#F2F2F2"/>
</svg>
